<?xml version="1.0" encoding="UTF-8" standalone="no"?>
<!-- Created with Inkscape (http://www.inkscape.org/) -->

<svg
   xmlns:dc="http://purl.org/dc/elements/1.1/"
   xmlns:cc="http://creativecommons.org/ns#"
   xmlns:rdf="http://www.w3.org/1999/02/22-rdf-syntax-ns#"
   xmlns:svg="http://www.w3.org/2000/svg"
   xmlns="http://www.w3.org/2000/svg"
   xmlns:sodipodi="http://sodipodi.sourceforge.net/DTD/sodipodi-0.dtd"
   xmlns:inkscape="http://www.inkscape.org/namespaces/inkscape"
   width="957.14215"
   height="699.50647"
   id="svg5129"
   version="1.1"
   inkscape:version="0.48.3.1 r9886"
   sodipodi:docname="02_03sampling.svg"
   inkscape:export-filename="/home/guilhem/projects/polarity/img/02/03sampling.png"
   inkscape:export-xdpi="70"
   inkscape:export-ydpi="70">
  <sodipodi:namedview
     id="base"
     pagecolor="#ffffff"
     bordercolor="#666666"
     borderopacity="1.0"
     inkscape:pageopacity="1"
     inkscape:pageshadow="2"
     inkscape:zoom="0.49497475"
     inkscape:cx="713.88388"
     inkscape:cy="277.85868"
     inkscape:document-units="px"
     inkscape:current-layer="layer1"
     showgrid="false"
     inkscape:window-width="1280"
     inkscape:window-height="800"
     inkscape:window-x="0"
     inkscape:window-y="0"
     inkscape:window-maximized="0"
     fit-margin-top="0"
     fit-margin-left="0"
     fit-margin-right="0"
     fit-margin-bottom="0" />
  <defs
     id="defs5131" />
  <metadata
     id="metadata5134">
    <rdf:RDF>
      <cc:Work
         rdf:about="">
        <dc:format>image/svg+xml</dc:format>
        <dc:type
           rdf:resource="http://purl.org/dc/dcmitype/StillImage" />
        <dc:title></dc:title>
      </cc:Work>
    </rdf:RDF>
  </metadata>
  <g
     id="layer1"
     inkscape:groupmode="layer"
     inkscape:label="Layer 1"
     transform="translate(-9.0418295,-84.550018)">
    <text
       sodipodi:linespacing="125%"
       id="text5137"
       y="114.94064"
       x="12.121833"
       style="font-size:40px;font-style:normal;font-weight:bold;line-height:125%;letter-spacing:0px;word-spacing:0px;fill:#000000;fill-opacity:1;stroke:none;font-family:Sans;-inkscape-font-specification:Sans Bold"
       xml:space="preserve"><tspan
         y="114.94064"
         x="12.121833"
         id="tspan5139"
         sodipodi:role="line">How to fit the parameter to the data ?</tspan></text>
    <text
       sodipodi:linespacing="125%"
       id="text5141"
       y="452.33157"
       x="28.284262"
       style="font-size:40px;font-style:normal;font-weight:normal;line-height:125%;letter-spacing:0px;word-spacing:0px;fill:#000000;fill-opacity:1;stroke:none;font-family:Sans"
       xml:space="preserve"><tspan
         y="452.33157"
         x="28.284262"
         id="tspan5143"
         sodipodi:role="line">1. Define an error measure</tspan></text>
    <text
       sodipodi:linespacing="125%"
       id="text5141-9"
       y="632.90869"
       x="27.247335"
       style="font-size:40px;font-style:normal;font-weight:normal;line-height:125%;letter-spacing:0px;word-spacing:0px;fill:#000000;fill-opacity:1;stroke:none;font-family:Sans"
       xml:space="preserve"><tspan
         y="632.90869"
         x="27.247335"
         id="tspan5143-5"
         sodipodi:role="line">2. Choose a sampling strategy</tspan></text>
    <text
       sodipodi:linespacing="125%"
       id="text5166"
       y="508.90009"
       x="76.771599"
       style="font-size:40px;font-style:normal;font-weight:normal;line-height:125%;letter-spacing:0px;word-spacing:0px;fill:#000000;fill-opacity:1;stroke:none;font-family:Sans"
       xml:space="preserve"><tspan
         y="508.90009"
         x="76.771599"
         id="tspan5168"
         sodipodi:role="line">- Maximal error (l<tspan
   id="tspan5178"
   style="font-size:65.00091553%;baseline-shift:sub">infinity</tspan>)</tspan><tspan
         id="tspan5170"
         y="558.90009"
         x="76.771599"
         sodipodi:role="line">- Square-error (l<tspan
   id="tspan5174"
   style="font-size:65.00091553%;baseline-shift:sub">2</tspan>)  </tspan></text>
    <text
       sodipodi:linespacing="125%"
       id="text5166-6"
       y="678.78302"
       x="68.787361"
       style="font-size:40px;font-style:normal;font-weight:normal;line-height:125%;letter-spacing:0px;word-spacing:0px;fill:#000000;fill-opacity:1;stroke:none;font-family:Sans"
       xml:space="preserve"><tspan
         id="tspan5170-2"
         y="678.78302"
         x="68.787361"
         sodipodi:role="line">- Brute force</tspan><tspan
         id="tspan5213"
         y="728.78302"
         x="68.787361"
         sodipodi:role="line">- Gradient Descent</tspan><tspan
         id="tspan5215"
         y="778.78302"
         x="68.787361"
         sodipodi:role="line">- MCMC (Markov-Chain-Monte Carlo)</tspan></text>
    <text
       sodipodi:linespacing="125%"
       id="text5217"
       y="195.75279"
       x="531.34021"
       style="font-size:40px;font-style:normal;font-weight:normal;line-height:125%;letter-spacing:0px;word-spacing:0px;fill:#000000;fill-opacity:1;stroke:none;font-family:Sans"
       xml:space="preserve"><tspan
         y="195.75279"
         x="531.34021"
         id="tspan5219"
         sodipodi:role="line">Right now we have </tspan><tspan
         y="245.75279"
         x="531.34021"
         sodipodi:role="line"
         id="tspan6040">only one parameter :  </tspan></text>
    <g
       id="g5243"
       transform="translate(373.75643,-52.527933)">
      <g
         word-spacing="normal"
         letter-spacing="normal"
         font-size-adjust="none"
         font-stretch="normal"
         font-weight="normal"
         font-variant="normal"
         font-style="normal"
         stroke-miterlimit="10.433"
         xml:space="preserve"
         transform="matrix(1.0629921,0,0,-1.0629921,-186.02362,789.27165)"
         id="content"
         style="font-style:normal;font-variant:normal;font-weight:normal;font-stretch:normal;letter-spacing:normal;word-spacing:normal;text-anchor:start;fill:none;stroke:#000000;stroke-linecap:butt;stroke-linejoin:miter;stroke-miterlimit:10.43299961;stroke-opacity:1;stroke-dasharray:none;stroke-dashoffset:0"><path
           id="path5246"
           d="m 470.96,425.99 0.02,0 0.03,-0.01 0.03,-0.01 0.04,-0.01 0.04,-0.01 0.04,-0.02 0.04,-0.01 0.04,-0.01 0.05,-0.02 0.05,-0.02 0.05,-0.01 0.05,-0.02 0.05,-0.02 0.05,-0.02 0.11,-0.03 0.11,-0.04 0.11,-0.04 0.05,-0.02 0.05,-0.01 0.05,-0.02 0.05,-0.02 0.05,-0.02 0.05,-0.01 0.04,-0.02 0.04,-0.01 0.04,-0.02 0.04,-0.01 0.03,-0.01 0.03,-0.01 c 1.71,-0.6 2.16,-0.74 2.16,-1.61 0,-0.49 -0.37,-1.63 -1.56,-1.63 -0.53,0 -1.89,0.1 -3.39,0.97 -0.24,0.21 -0.31,0.21 -0.46,0.21 -0.2,0 -0.48,-0.15 -0.48,-0.49 0,-0.62 2.44,-1.67 4.33,-1.67 2.4,0 3.8,2.2 3.8,3.8 0,1.32 -0.74,2.01 -1.47,2.4 -0.28,0.14 -4.63,1.64 -5.02,1.75 -3.37,1.17 -5.26,1.8 -5.26,3.83 0,1.25 1.21,3.97 4.18,5.53 1.5,-0.48 3,-0.48 3.63,-0.48 1.25,0 3.62,0 3.62,1.29 0,1.08 -1.98,1.08 -3.2,1.08 l -0.05,-0.98 c 1.08,0 1.19,-0.03 1.85,-0.17 v -0.04 c -0.49,-0.14 -0.94,-0.2 -2.13,-0.2 -0.65,0 -1.08,0 -1.73,0.2 0.9,0.21 1.22,0.21 2.01,0.21 l 0.05,0.98 c -0.84,0 -1.89,0 -3.31,-0.48 -0.96,0.76 -1.19,1.87 -1.19,2.72 0,1.98 1.42,4.42 4.05,5.64 0.79,-0.88 1.67,-0.88 2.53,-0.88 1.08,0 3.45,0 3.45,1.3 0,1.08 -1.95,1.08 -3.23,1.08 l 0.03,-0.99 c 1.08,0 1.28,-0.03 1.84,-0.17 v -0.03 c -0.28,-0.08 -0.69,-0.2 -2.09,-0.2 -0.55,0 -0.97,0 -1.39,0.23 0.62,0.17 0.9,0.17 1.64,0.17 l -0.03,0.99 c -0.53,0 -1.3,0 -2.27,-0.14 0,0.03 -0.14,0.59 -0.14,1.04 0,0.38 0.06,0.8 0.14,1.19 0.03,0.03 0.06,0.17 0.06,0.24 0,0.28 -0.23,0.56 -0.54,0.56 -0.82,0 -0.82,-1.33 -0.82,-1.92 0,-0.14 0,-0.91 0.18,-1.36 -4.8,-1.28 -6.47,-4.32 -6.47,-6.58 0,-1.41 0.65,-2.75 2.29,-3.74 -3.93,-2.23 -5.06,-5.71 -5.06,-7.17 0,-3.17 3.36,-4.36 4.47,-4.75 z"
           inkscape:connector-curvature="0"
           style="fill:#000000;stroke-width:0" /><path
           id="path5248"
           d="m 489.73,430.91 0.15,0.97 1.64,6.56 c 0.2,0.76 0.2,0.81 1.25,0.81 h 3.68 c 2.55,0 4.27,-0.67 4.27,-2.56 0,-0.72 -0.36,-2.67 -1.77,-3.69 -1.42,-1.02 -3.37,-1.12 -4.36,-1.12 h -4.71 l -0.15,-0.97 h 5.43 c 3.84,0 8.32,2.34 8.32,5.43 0,2.32 -2.59,4.04 -6.2,4.04 h -9.81 c -0.5,0 -0.88,0 -0.88,-0.71 0,-0.42 0.3,-0.42 0.93,-0.42 0.25,0 1.06,0 1.59,-0.14 0,-0.31 0,-0.36 -0.08,-0.63 l -3.26,-13.06 c -0.21,-0.75 -0.22,-0.94 -2.15,-0.94 -0.62,0 -1.01,0 -1.01,-0.7 0,-0.2 0.17,-0.42 0.44,-0.42 0.53,0 1.12,0.08 1.67,0.08 0.62,0 1.22,0.01 1.84,0.01 0.63,0 1.22,-0.01 1.85,-0.01 0.57,0 1.2,-0.08 1.75,-0.08 0.14,0 0.62,0 0.62,0.7 0,0.42 -0.36,0.42 -0.83,0.42 -0.04,0 -0.64,0 -1.07,0.05 -0.61,0.05 -0.65,0.08 -0.65,0.27 0,0.06 0,0.11 0.08,0.36 z"
           inkscape:connector-curvature="0"
           style="fill:#000000;stroke-width:0" /><polyline
           id="polyline5250"
           points="462,418 508.8,418 508.8,420.04 462,420.04 "
           style="fill:#000000;fill-rule:nonzero;stroke-width:0" /><path
           id="path5252"
           d="m 471.08,386.63 0.02,0 0.03,-0.01 0.03,-0.01 0.04,-0.01 0.04,-0.01 0.04,-0.02 0.04,-0.01 0.04,-0.01 0.05,-0.02 0.05,-0.02 0.05,-0.01 0.05,-0.02 0.05,-0.02 0.06,-0.01 0.1,-0.04 0.11,-0.04 0.11,-0.04 0.05,-0.02 0.05,-0.01 0.05,-0.02 0.05,-0.02 0.05,-0.02 0.05,-0.01 0.04,-0.02 0.04,-0.01 0.04,-0.02 0.04,-0.01 0.04,-0.01 0.03,-0.01 c 1.7,-0.6 2.15,-0.74 2.15,-1.61 0,-0.49 -0.37,-1.63 -1.56,-1.63 -0.53,0 -1.89,0.1 -3.39,0.97 -0.24,0.21 -0.31,0.21 -0.45,0.21 -0.21,0 -0.49,-0.14 -0.49,-0.49 0,-0.62 2.44,-1.67 4.33,-1.67 2.41,0 3.8,2.2 3.8,3.8 0,1.32 -0.74,2.01 -1.47,2.4 -0.28,0.14 -4.63,1.64 -5.02,1.75 -3.37,1.17 -5.26,1.8 -5.26,3.83 0,1.25 1.22,3.97 4.18,5.53 1.5,-0.48 3,-0.48 3.63,-0.48 1.25,0 3.62,0 3.62,1.29 0,1.08 -1.98,1.08 -3.2,1.08 l -0.05,-0.98 c 1.08,0 1.19,-0.03 1.85,-0.17 v -0.03 c -0.49,-0.15 -0.94,-0.21 -2.13,-0.21 -0.65,0 -1.08,0 -1.73,0.21 0.9,0.2 1.22,0.2 2.01,0.2 l 0.05,0.98 c -0.84,0 -1.89,0 -3.31,-0.48 -0.96,0.76 -1.19,1.87 -1.19,2.72 0,1.98 1.42,4.42 4.05,5.64 0.79,-0.88 1.67,-0.88 2.53,-0.88 v 0.99 c -0.55,0 -0.97,0 -1.39,0.23 0.62,0.17 0.9,0.17 1.64,0.17 1.08,0 1.28,-0.03 1.84,-0.17 v -0.03 c -0.28,-0.08 -0.68,-0.2 -2.09,-0.2 v -0.99 c 1.08,0 3.45,0 3.45,1.3 0,1.08 -1.95,1.08 -3.23,1.08 -0.53,0 -1.3,0 -2.27,-0.14 0,0.03 -0.14,0.59 -0.14,1.04 0,0.38 0.06,0.8 0.14,1.19 0.03,0.03 0.06,0.17 0.06,0.24 0,0.28 -0.23,0.56 -0.54,0.56 -0.82,0 -0.82,-1.33 -0.82,-1.92 0,-0.14 0,-0.91 0.18,-1.36 -4.8,-1.28 -6.47,-4.32 -6.47,-6.58 0,-1.41 0.65,-2.75 2.29,-3.74 -3.93,-2.23 -5.06,-5.71 -5.06,-7.17 0,-3.17 3.36,-4.36 4.47,-4.75 z"
           inkscape:connector-curvature="0"
           style="fill:#000000;stroke-width:0" /><path
           id="path5254"
           d="m 497.87,401.16 -0.01,0.04 -0.01,0.05 -0.01,0.05 -0.01,0.04 -0.01,0.04 -0.01,0.04 -0.01,0.03 -0.01,0.04 -0.01,0.03 -0.01,0.03 -0.02,0.03 -0.01,0.03 -0.02,0.02 -0.02,0.03 -0.01,0.02 -0.02,0.02 -0.02,0.02 -0.03,0.02 -0.02,0.01 -0.03,0.02 -0.02,0.01 -0.03,0.01 -0.03,0.01 -0.03,0.01 -0.04,0.01 -0.03,0.01 -0.04,0 -0.04,0.01 -0.05,0 -0.04,0 -0.05,0 -0.05,0 c -0.59,0 -0.75,-0.2 -1,-0.57 l -9.76,-14.16 c -1.04,-1.52 -1.91,-1.91 -3.54,-1.99 -0.46,-0.03 -0.46,-0.67 -0.46,-0.7 0,-0.34 0.29,-0.42 0.39,-0.42 0.36,0 0.78,0.08 1.12,0.08 0.42,0 0.84,0.01 1.27,0.01 0.48,0 0.92,-0.01 1.37,-0.01 0.45,0 0.97,-0.08 1.42,-0.08 0.18,0 0.6,0 0.6,0.7 0,0.39 -0.38,0.42 -0.47,0.42 -0.2,0 -1.17,0.05 -1.17,0.65 0,0.29 0.29,0.71 0.47,0.96 l 1.82,2.68 c 0.13,0.15 0.14,0.17 0.61,0.17 h 7.57 l -0.21,1.12 h -7.08 l 5.57,8.07 1.51,-8.07 0.21,-1.12 c 0.04,-0.3 0.06,-0.42 0.14,-0.72 0.07,-0.45 0.57,-2.94 0.57,-3.19 0,-0.55 -1.57,-0.55 -1.7,-0.55 -0.37,0 -0.76,0 -0.76,-0.7 0,-0.25 0.17,-0.42 0.45,-0.42 0.51,0 1.11,0.08 1.65,0.08 0.61,0 1.18,0.01 1.79,0.01 0.51,0 1.06,-0.01 1.59,-0.01 0.5,0 1.06,-0.08 1.56,-0.08 0.42,0 0.6,0.3 0.6,0.7 0,0.42 -0.39,0.42 -0.74,0.42 -1.65,0 -1.67,0.18 -1.78,0.72 z"
           inkscape:connector-curvature="0"
           style="fill:#000000;stroke-width:0" /></g>    </g>
    <g
       id="g5990"
       transform="matrix(0.4012004,0,0,0.29590753,-281.16363,41.181153)">
      <path
         inkscape:connector-curvature="0"
         id="path4927"
         d="m 1125.3473,986.1972 c 10.1016,-42.4264 12.1219,-44.4467 12.1219,-44.4467 l 8.0812,-28.2843"
         style="fill:none;stroke:#000000;stroke-width:6.80000019;stroke-linecap:butt;stroke-linejoin:miter;stroke-miterlimit:4;stroke-opacity:1;stroke-dasharray:none" />
      <path
         inkscape:connector-curvature="0"
         id="rect4653-8"
         d="m 1276.5608,666.9815 0,-197.50001 c -8.5939,-6.65138 -14.125,-17.04188 -14.125,-28.74998 0,-20.0842 16.2597,-36.375 36.3438,-36.375 20.0841,0 36.375,16.2908 36.375,36.375 0,9.756 -3.8404,18.5938 -10.0938,25.12498 l 0,201.12501 -20.2187,0 0,-190.40631 c -1.966,0.3289 -4.0031,0.5 -6.0625,0.5 -0.6796,0 -1.3296,0.01 -2,-0.031 l 0,189.93761 -20.2188,0 z"
         style="color:#000000;fill:#ffe680;fill-opacity:1;fill-rule:nonzero;stroke:#d45500;stroke-width:5.65899992;stroke-miterlimit:4;stroke-opacity:1;stroke-dasharray:none;marker:none;visibility:visible;display:inline;overflow:visible;enable-background:accumulate" />
      <path
         id="rect4653-6-2"
         d="m 1888.2486,673.0424 0,-197.49999 c -8.5939,-6.65138 -14.125,-17.04188 -14.125,-28.74998 0,-20.0842 16.2597,-36.375 36.3438,-36.375 20.0841,0 36.375,16.2908 36.375,36.375 0,9.756 -3.8405,18.5938 -10.0938,25.12498 l 0,201.12499 -20.2187,0 0,-190.40629 c -1.966,0.3289 -4.0031,0.5 -6.0625,0.5 -0.6796,0 -1.3296,0.01 -2,-0.031 l 0,189.93759 -20.2188,0 z"
         style="color:#000000;fill:#ffe680;fill-opacity:1;fill-rule:nonzero;stroke:#d45500;stroke-width:5.65899992;stroke-miterlimit:4;stroke-opacity:1;stroke-dasharray:none;marker:none;visibility:visible;display:inline;overflow:visible;enable-background:accumulate"
         inkscape:connector-curvature="0" />
      <path
         id="rect4653-6-7-0"
         d="m 884.67209,666.9815 0,-197.49997 c -8.5939,-6.6514 -14.12501,-17.0419 -14.12501,-28.75 0,-20.0842 16.25965,-36.375 36.34375,-36.375 20.08412,0 36.37501,16.2908 36.37501,36.375 0,9.756 -3.84043,18.5938 -10.09375,25.125 l 0,201.12497 -20.21875,0 0,-190.40629 c -1.96601,0.3289 -4.00309,0.5 -6.06251,0.5 -0.67957,0 -1.32962,0.01 -2,-0.031 l 0,189.93759 -20.21874,0 z"
         style="color:#000000;fill:#ffe680;fill-opacity:1;fill-rule:nonzero;stroke:#d45500;stroke-width:5.65899992;stroke-miterlimit:4;stroke-opacity:1;stroke-dasharray:none;marker:none;visibility:visible;display:inline;overflow:visible;enable-background:accumulate"
         inkscape:connector-curvature="0" />
      <path
         id="rect4653-6-7-0-2"
         d="m 1519.7753,671.0221 0,-197.49997 c -8.5939,-6.65139 -14.125,-17.04189 -14.125,-28.75 0,-20.0842 16.2596,-36.375 36.3437,-36.375 20.0841,0 36.375,16.2908 36.375,36.375 0,9.756 -3.8404,18.5938 -10.0937,25.125 l 0,201.12497 -20.2188,0 0,-190.40629 c -1.966,0.3289 -4.0031,0.5 -6.0625,0.5 -0.6796,0 -1.3296,0.01 -2,-0.031 l 0,189.93759 -20.2187,0 z"
         style="color:#000000;fill:#ffe680;fill-opacity:1;fill-rule:nonzero;stroke:#d45500;stroke-width:5.65899992;stroke-miterlimit:4;stroke-opacity:1;stroke-dasharray:none;marker:none;visibility:visible;display:inline;overflow:visible;enable-background:accumulate"
         inkscape:connector-curvature="0" />
      <path
         id="rect4653-6-7-0-6"
         d="m 1198.1831,666.9814 0,-197.49981 c -8.5939,-6.65139 -14.125,-17.0419 -14.125,-28.75 0,-20.0842 16.2596,-36.375 36.3437,-36.375 20.0842,0 36.375,16.2908 36.375,36.375 0,9.756 -3.8404,18.5938 -10.0937,25.125 l 0,201.12481 -20.2188,0 0,-190.40612 c -1.966,0.3289 -4.003,0.5 -6.0625,0.5 -0.6795,0 -1.3296,0.01 -2,-0.031 l 0,189.93742 -20.2187,0 z"
         style="color:#000000;fill:#ffe680;fill-opacity:1;fill-rule:nonzero;stroke:#d45500;stroke-width:5.65899992;stroke-miterlimit:4;stroke-opacity:1;stroke-dasharray:none;marker:none;visibility:visible;display:inline;overflow:visible;enable-background:accumulate"
         inkscape:connector-curvature="0" />
      <path
         id="rect4653-6-7-0-1"
         d="m 1731.4931,673.0423 0,-197.49979 c -8.5939,-6.65139 -14.125,-17.0419 -14.125,-28.75 0,-20.0842 16.2597,-36.375 36.3438,-36.375 20.0841,0 36.375,16.2908 36.375,36.375 0,9.756 -3.8405,18.5938 -10.0938,25.125 l 0,201.12479 -20.2187,0 0,-190.4061 c -1.966,0.3289 -4.0031,0.5 -6.0625,0.5 -0.6796,0 -1.3297,0.01 -2,-0.031 l 0,189.9374 -20.2188,0 z"
         style="color:#000000;fill:#ffe680;fill-opacity:1;fill-rule:nonzero;stroke:#d45500;stroke-width:5.65899992;stroke-miterlimit:4;stroke-opacity:1;stroke-dasharray:none;marker:none;visibility:visible;display:inline;overflow:visible;enable-background:accumulate"
         inkscape:connector-curvature="0" />
      <path
         inkscape:connector-curvature="0"
         id="rect4653-8-0"
         d="m 1041.4276,666.9815 0,-197.49999 c -8.5939,-6.65141 -14.125,-17.04191 -14.125,-28.75001 0,-20.0842 16.2596,-36.375 36.3437,-36.375 20.0842,0 36.375,16.2908 36.375,36.375 0,9.756 -3.8404,18.5938 -10.0937,25.12498 l 0,201.12502 -20.2188,0 0,-190.40629 c -1.966,0.3289 -4.003,0.5 -6.0625,0.5 -0.6795,0 -1.3296,0.01 -2,-0.031 l 0,189.93759 -20.2187,0 z"
         style="color:#000000;fill:#ffe680;fill-opacity:1;fill-rule:nonzero;stroke:#d45500;stroke-width:5.65899992;stroke-miterlimit:4;stroke-opacity:1;stroke-dasharray:none;marker:none;visibility:visible;display:inline;overflow:visible;enable-background:accumulate" />
      <path
         id="rect4653-6-2-3"
         d="m 963.04984,666.9815 0,-197.49999 c -8.5939,-6.65141 -14.125,-17.04191 -14.125,-28.75001 0,-20.0842 16.25964,-36.375 36.34375,-36.375 20.08411,0 36.37501,16.2908 36.37501,36.375 0,9.756 -3.8404,18.5938 -10.0938,25.12498 l 0,201.12502 -20.21871,0 0,-190.40629 c -1.966,0.3289 -4.00308,0.5 -6.0625,0.5 -0.67957,0 -1.32962,0.01 -2,-0.031 l 0,189.93759 -20.21875,0 z"
         style="color:#000000;fill:#ffe680;fill-opacity:1;fill-rule:nonzero;stroke:#d45500;stroke-width:5.65899992;stroke-miterlimit:4;stroke-opacity:1;stroke-dasharray:none;marker:none;visibility:visible;display:inline;overflow:visible;enable-background:accumulate"
         inkscape:connector-curvature="0" />
      <path
         id="rect4653-6-7-0-16"
         d="m 1363.0198,671.0221 0,-197.50001 c -8.5939,-6.65136 -14.125,-17.04186 -14.125,-28.74996 0,-20.0842 16.2596,-36.375 36.3437,-36.375 20.0842,0 36.375,16.2908 36.375,36.375 0,9.756 -3.8404,18.5938 -10.0937,25.125 l 0,201.12497 -20.2188,0 0,-190.40631 c -1.966,0.3289 -4.003,0.5 -6.0625,0.5 -0.6795,0 -1.3296,0.01 -2,-0.031 l 0,189.93761 -20.2187,0 z"
         style="color:#000000;fill:#ffe680;fill-opacity:1;fill-rule:nonzero;stroke:#d45500;stroke-width:5.65899992;stroke-miterlimit:4;stroke-opacity:1;stroke-dasharray:none;marker:none;visibility:visible;display:inline;overflow:visible;enable-background:accumulate"
         inkscape:connector-curvature="0" />
      <path
         id="rect4653-6-7-0-2-8"
         d="m 1809.8709,673.0424 0,-197.49998 c -8.5939,-6.65138 -14.125,-17.04188 -14.125,-28.74999 0,-20.0842 16.2596,-36.375 36.3437,-36.375 20.0841,0 36.375,16.2908 36.375,36.375 0,9.756 -3.8404,18.5938 -10.0937,25.125 l 0,201.12497 -20.2188,0 0,-190.40628 c -1.966,0.3289 -4.0031,0.5 -6.0625,0.5 -0.6796,0 -1.3296,0.01 -2,-0.031 l 0,189.93758 -20.2187,0 z"
         style="color:#000000;fill:#ffe680;fill-opacity:1;fill-rule:nonzero;stroke:#d45500;stroke-width:5.65899992;stroke-miterlimit:4;stroke-opacity:1;stroke-dasharray:none;marker:none;visibility:visible;display:inline;overflow:visible;enable-background:accumulate"
         inkscape:connector-curvature="0" />
      <path
         id="rect4653-6-7-0-6-1"
         d="m 1441.3975,671.022 0,-197.49986 c -8.5939,-6.65134 -14.125,-17.04185 -14.125,-28.74995 0,-20.0842 16.2597,-36.375 36.3438,-36.375 20.0841,0 36.375,16.2908 36.375,36.375 0,9.756 -3.8405,18.5938 -10.0938,25.125 l 0,201.12481 -20.2187,0 0,-190.40616 c -1.966,0.3289 -4.0031,0.5 -6.0625,0.5 -0.6796,0 -1.3296,0.01 -2,-0.031 l 0,189.93746 -20.2188,0 z"
         style="color:#000000;fill:#ffe680;fill-opacity:1;fill-rule:nonzero;stroke:#d45500;stroke-width:5.65899992;stroke-miterlimit:4;stroke-opacity:1;stroke-dasharray:none;marker:none;visibility:visible;display:inline;overflow:visible;enable-background:accumulate"
         inkscape:connector-curvature="0" />
      <path
         id="rect4653-6-7-0-1-8"
         d="m 1119.8053,666.9814 0,-197.49987 c -8.5939,-6.65134 -14.125,-17.04185 -14.125,-28.74995 0,-20.0842 16.2597,-36.375 36.3438,-36.375 20.0841,0 36.375,16.2908 36.375,36.375 0,9.756 -3.8404,18.5938 -10.0938,25.125 l 0,201.12482 -20.2187,0 0,-190.40617 c -1.966,0.3289 -4.0031,0.5 -6.0625,0.5 -0.6796,0 -1.3296,0.01 -2,-0.031 l 0,189.93747 -20.2188,0 z"
         style="color:#000000;fill:#ffe680;fill-opacity:1;fill-rule:nonzero;stroke:#d45500;stroke-width:5.65899992;stroke-miterlimit:4;stroke-opacity:1;stroke-dasharray:none;marker:none;visibility:visible;display:inline;overflow:visible;enable-background:accumulate"
         inkscape:connector-curvature="0" />
      <path
         inkscape:connector-curvature="0"
         id="rect4653-8-9"
         d="m 1274.0358,675.0777 0,197.5 c -8.5939,6.6514 -14.125,17.0419 -14.125,28.75 0,20.0842 16.2596,36.375 36.3437,36.375 20.0841,0 36.375,-16.2908 36.375,-36.375 0,-9.756 -3.8404,-18.5938 -10.0937,-25.125 l 0,-201.125 -20.2188,0 0,190.4063 c -1.966,-0.3289 -4.0031,-0.5 -6.0625,-0.5 -0.6796,0 -1.3296,-0.01 -2,0.031 l 0,-189.9376 -20.2187,0 z"
         style="color:#000000;fill:#ffe680;fill-opacity:1;fill-rule:nonzero;stroke:#d45500;stroke-width:5.65899992;stroke-miterlimit:4;stroke-opacity:1;stroke-dasharray:none;marker:none;visibility:visible;display:inline;overflow:visible;enable-background:accumulate" />
      <path
         id="rect4653-6-2-2"
         d="m 1885.7235,681.1386 0,197.5 c -8.5939,6.6514 -14.125,17.0419 -14.125,28.75 0,20.0842 16.2597,36.375 36.3438,36.375 20.0841,0 36.375,-16.2908 36.375,-36.375 0,-9.756 -3.8405,-18.5938 -10.0938,-25.125 l 0,-201.125 -20.2187,0 0,190.4063 c -1.966,-0.3289 -4.0031,-0.5 -6.0625,-0.5 -0.6796,0 -1.3296,-0.01 -2,0.031 l 0,-189.9376 -20.2188,0 z"
         style="color:#000000;fill:#ffe680;fill-opacity:1;fill-rule:nonzero;stroke:#d45500;stroke-width:5.65899992;stroke-miterlimit:4;stroke-opacity:1;stroke-dasharray:none;marker:none;visibility:visible;display:inline;overflow:visible;enable-background:accumulate"
         inkscape:connector-curvature="0" />
      <path
         id="rect4653-6-7-0-8"
         d="m 882.14703,675.0777 0,197.5 c -8.59391,6.6514 -14.12501,17.0419 -14.12501,28.75 0,20.0842 16.25971,36.375 36.34381,36.375 20.0841,0 36.375,-16.2908 36.375,-36.375 0,-9.756 -3.8405,-18.5938 -10.0938,-25.125 l 0,-201.125 -20.2187,0 0,190.4063 c -1.966,-0.3289 -4.0031,-0.5 -6.0625,-0.5 -0.6796,0 -1.3297,-0.01 -2,0.031 l 0,-189.9376 -20.2188,0 z"
         style="color:#000000;fill:#ffe680;fill-opacity:1;fill-rule:nonzero;stroke:#d45500;stroke-width:5.65899992;stroke-miterlimit:4;stroke-opacity:1;stroke-dasharray:none;marker:none;visibility:visible;display:inline;overflow:visible;enable-background:accumulate"
         inkscape:connector-curvature="0" />
      <path
         id="rect4653-6-7-0-2-9"
         d="m 1517.2502,679.1183 0,197.5 c -8.5939,6.6514 -14.125,17.0419 -14.125,28.75 0,20.0842 16.2596,36.375 36.3437,36.375 20.0841,0 36.375,-16.2908 36.375,-36.375 0,-9.756 -3.8404,-18.5938 -10.0937,-25.125 l 0,-201.125 -20.2188,0 0,190.4063 c -1.966,-0.3289 -4.0031,-0.5 -6.0625,-0.5 -0.6796,0 -1.3296,-0.01 -2,0.031 l 0,-189.9376 -20.2187,0 z"
         style="color:#000000;fill:#ffe680;fill-opacity:1;fill-rule:nonzero;stroke:#d45500;stroke-width:5.65899992;stroke-miterlimit:4;stroke-opacity:1;stroke-dasharray:none;marker:none;visibility:visible;display:inline;overflow:visible;enable-background:accumulate"
         inkscape:connector-curvature="0" />
      <path
         id="rect4653-6-7-0-6-3"
         d="m 1195.658,675.0778 0,197.4998 c -8.5939,6.6514 -14.125,17.0419 -14.125,28.75 0,20.0842 16.2597,36.375 36.3438,36.375 20.0841,0 36.375,-16.2908 36.375,-36.375 0,-9.756 -3.8405,-18.5938 -10.0938,-25.125 l 0,-201.1248 -20.2187,0 0,190.4061 c -1.966,-0.3289 -4.0031,-0.5 -6.0625,-0.5 -0.6796,0 -1.3297,-0.01 -2,0.031 l 0,-189.9374 -20.2188,0 z"
         style="color:#000000;fill:#ffe680;fill-opacity:1;fill-rule:nonzero;stroke:#d45500;stroke-width:5.65899992;stroke-miterlimit:4;stroke-opacity:1;stroke-dasharray:none;marker:none;visibility:visible;display:inline;overflow:visible;enable-background:accumulate"
         inkscape:connector-curvature="0" />
      <path
         id="rect4653-6-7-0-1-0"
         d="m 1728.968,681.1387 0,197.4998 c -8.5939,6.6514 -14.125,17.0419 -14.125,28.75 0,20.0842 16.2597,36.375 36.3438,36.375 20.0841,0 36.375,-16.2908 36.375,-36.375 0,-9.756 -3.8405,-18.5938 -10.0938,-25.125 l 0,-201.1248 -20.2187,0 0,190.4061 c -1.966,-0.3289 -4.0031,-0.5 -6.0625,-0.5 -0.6796,0 -1.3297,-0.01 -2,0.031 l 0,-189.9374 -20.2188,0 z"
         style="color:#000000;fill:#ffe680;fill-opacity:1;fill-rule:nonzero;stroke:#d45500;stroke-width:5.65899992;stroke-miterlimit:4;stroke-opacity:1;stroke-dasharray:none;marker:none;visibility:visible;display:inline;overflow:visible;enable-background:accumulate"
         inkscape:connector-curvature="0" />
      <path
         inkscape:connector-curvature="0"
         id="rect4653-8-0-2"
         d="m 1038.9025,675.0777 0,197.5 c -8.5939,6.6514 -14.125,17.0419 -14.125,28.75 0,20.0842 16.2597,36.375 36.3438,36.375 20.0841,0 36.375,-16.2908 36.375,-36.375 0,-9.756 -3.8405,-18.5938 -10.0938,-25.125 l 0,-201.125 -20.2187,0 0,190.4063 c -1.966,-0.3289 -4.0031,-0.5 -6.0625,-0.5 -0.6796,0 -1.3297,-0.01 -2,0.031 l 0,-189.9376 -20.2188,0 z"
         style="color:#000000;fill:#ffe680;fill-opacity:1;fill-rule:nonzero;stroke:#d45500;stroke-width:5.65899992;stroke-miterlimit:4;stroke-opacity:1;stroke-dasharray:none;marker:none;visibility:visible;display:inline;overflow:visible;enable-background:accumulate" />
      <path
         id="rect4653-6-2-3-2"
         d="m 960.52483,675.0777 0,197.5 c -8.5939,6.6514 -14.125,17.0419 -14.125,28.75 0,20.0842 16.2596,36.375 36.3437,36.375 20.08407,0 36.37497,-16.2908 36.37497,-36.375 0,-9.756 -3.8404,-18.5938 -10.0937,-25.125 l 0,-201.125 -20.21877,0 0,190.4063 c -1.966,-0.3289 -4.0031,-0.5 -6.0625,-0.5 -0.6796,0 -1.3296,-0.01 -2,0.031 l 0,-189.9376 -20.2187,0 z"
         style="color:#000000;fill:#ffe680;fill-opacity:1;fill-rule:nonzero;stroke:#d45500;stroke-width:5.65899992;stroke-miterlimit:4;stroke-opacity:1;stroke-dasharray:none;marker:none;visibility:visible;display:inline;overflow:visible;enable-background:accumulate"
         inkscape:connector-curvature="0" />
      <path
         id="rect4653-6-7-0-16-9"
         d="m 1360.4948,679.1183 0,197.5 c -8.5939,6.6514 -14.125,17.0419 -14.125,28.75 0,20.0842 16.2596,36.375 36.3436,36.375 20.0842,0 36.3751,-16.2908 36.3751,-36.375 0,-9.756 -3.8405,-18.5938 -10.0938,-25.125 l 0,-201.125 -20.2187,0 0,190.4063 c -1.9661,-0.3289 -4.0031,-0.5 -6.0626,-0.5 -0.6795,0 -1.3295,-0.01 -1.9999,0.031 l 0,-189.9376 -20.2187,0 z"
         style="color:#000000;fill:#ffe680;fill-opacity:1;fill-rule:nonzero;stroke:#d45500;stroke-width:5.65899992;stroke-miterlimit:4;stroke-opacity:1;stroke-dasharray:none;marker:none;visibility:visible;display:inline;overflow:visible;enable-background:accumulate"
         inkscape:connector-curvature="0" />
      <path
         id="rect4653-6-7-0-2-8-3"
         d="m 1807.3458,683.1589 0,197.5 c -8.5939,6.6514 -14.125,17.0419 -14.125,28.75 0,20.0842 16.2596,36.375 36.3437,36.375 20.0841,0 36.375,-16.2908 36.375,-36.375 0,-9.756 -3.8404,-18.5938 -10.0937,-25.125 l 0,-201.125 -20.2188,0 0,190.4063 c -1.966,-0.3289 -4.0031,-0.5 -6.0625,-0.5 -0.6796,0 -1.3296,-0.01 -2,0.031 l 0,-189.9376 -20.2187,0 z"
         style="color:#000000;fill:#ffe680;fill-opacity:1;fill-rule:nonzero;stroke:#d45500;stroke-width:5.65899992;stroke-miterlimit:4;stroke-opacity:1;stroke-dasharray:none;marker:none;visibility:visible;display:inline;overflow:visible;enable-background:accumulate"
         inkscape:connector-curvature="0" />
      <path
         id="rect4653-6-7-0-6-1-2"
         d="m 1438.8725,679.1184 0,197.4999 c -8.5939,6.6513 -14.125,17.0418 -14.125,28.7499 0,20.0842 16.2596,36.375 36.3437,36.375 20.0841,0 36.375,-16.2908 36.375,-36.375 0,-9.756 -3.8405,-18.5938 -10.0938,-25.125 l 0,-201.1248 -20.2187,0 0,190.4062 c -1.966,-0.3289 -4.0031,-0.5 -6.0625,-0.5 -0.6796,0 -1.3296,-0.01 -2,0.031 l 0,-189.9375 -20.2187,0 z"
         style="color:#000000;fill:#ffe680;fill-opacity:1;fill-rule:nonzero;stroke:#d45500;stroke-width:5.65899992;stroke-miterlimit:4;stroke-opacity:1;stroke-dasharray:none;marker:none;visibility:visible;display:inline;overflow:visible;enable-background:accumulate"
         inkscape:connector-curvature="0" />
      <path
         id="rect4653-6-7-0-1-8-4"
         d="m 1117.2803,675.0778 0,197.4999 c -8.5939,6.6513 -14.125,17.0418 -14.125,28.7499 0,20.0842 16.2596,36.375 36.3437,36.375 20.0841,0 36.375,-16.2908 36.375,-36.375 0,-9.756 -3.8404,-18.5938 -10.0937,-25.125 l 0,-201.1248 -20.2188,0 0,190.4062 c -1.966,-0.3289 -4.0031,-0.5 -6.0625,-0.5 -0.6796,0 -1.3296,-0.01 -2,0.031 l 0,-189.9375 -20.2187,0 z"
         style="color:#000000;fill:#ffe680;fill-opacity:1;fill-rule:nonzero;stroke:#d45500;stroke-width:5.65899992;stroke-miterlimit:4;stroke-opacity:1;stroke-dasharray:none;marker:none;visibility:visible;display:inline;overflow:visible;enable-background:accumulate"
         inkscape:connector-curvature="0" />
      <rect
         y="353.84158"
         x="1596.0784"
         height="660.63977"
         width="105.86507"
         id="rect4882"
         style="color:#000000;fill:#d40000;fill-opacity:1;fill-rule:nonzero;stroke:#000000;stroke-width:5.2024951;stroke-miterlimit:4;stroke-opacity:1;stroke-dasharray:none;marker:none;visibility:visible;display:inline;overflow:visible;enable-background:accumulate" />
      <rect
         y="984.37042"
         x="1049.3749"
         height="205.6843"
         width="160.02647"
         id="rect4882-2"
         style="color:#000000;fill:#00aad4;fill-opacity:1;fill-rule:nonzero;stroke:#000000;stroke-width:3.56902409;stroke-miterlimit:4;stroke-opacity:1;stroke-dasharray:none;marker:none;visibility:visible;display:inline;overflow:visible;enable-background:accumulate" />
      <text
         sodipodi:linespacing="125%"
         id="text4902"
         y="1135.6997"
         x="1086.3391"
         style="font-size:128.68232727px;font-style:normal;font-weight:normal;line-height:125%;letter-spacing:0px;word-spacing:0px;fill:#000000;fill-opacity:1;stroke:none;font-family:Sans"
         xml:space="preserve"><tspan
           y="1135.6997"
           x="1086.3391"
           id="tspan4904"
           sodipodi:role="line">P</tspan></text>
      <text
         sodipodi:linespacing="125%"
         id="text4902-0"
         y="758.34076"
         x="1607.7115"
         style="font-size:128.68232727px;font-style:normal;font-weight:normal;line-height:125%;letter-spacing:0px;word-spacing:0px;fill:#000000;fill-opacity:1;stroke:none;font-family:Sans"
         xml:space="preserve"><tspan
           y="758.34076"
           x="1607.7115"
           id="tspan4904-4"
           sodipodi:role="line">A</tspan></text>
      <text
         sodipodi:linespacing="125%"
         id="text4933"
         y="1069.0297"
         x="769.77362"
         style="font-size:40px;font-style:normal;font-weight:normal;line-height:125%;letter-spacing:0px;word-spacing:0px;fill:#000000;fill-opacity:1;stroke:none;font-family:Sans"
         xml:space="preserve"><tspan
           y="1069.0297"
           x="769.77362"
           id="tspan4935"
           sodipodi:role="line">Direct liaison</tspan></text>
      <text
         sodipodi:linespacing="125%"
         id="text4933-3"
         y="1057.6118"
         x="1306.1516"
         style="font-size:40px;font-style:normal;font-weight:normal;line-height:125%;letter-spacing:0px;word-spacing:0px;fill:#000000;fill-opacity:1;stroke:none;font-family:Sans"
         xml:space="preserve"><tspan
           y="1057.6118"
           x="1306.1516"
           id="tspan4935-2"
           sodipodi:role="line">&quot;Going with the flow&quot;</tspan></text>
      <g
         id="g5098"
         transform="translate(1060.965,841.89619)">
        <g
           word-spacing="normal"
           letter-spacing="normal"
           font-size-adjust="none"
           font-stretch="normal"
           font-weight="normal"
           font-variant="normal"
           font-style="normal"
           stroke-miterlimit="10.433"
           xml:space="preserve"
           transform="matrix(1.2368751,0,0,-1.2368751,-216.45314,792.33758)"
           id="g5100"
           style="font-style:normal;font-variant:normal;font-weight:normal;font-stretch:normal;letter-spacing:normal;word-spacing:normal;text-anchor:start;fill:none;stroke:#000000;stroke-linecap:butt;stroke-linejoin:miter;stroke-miterlimit:10.43299961;stroke-opacity:1;stroke-dasharray:none;stroke-dashoffset:0"><path
             id="path5102"
             d="m 463.19,421.45 -0.5,-0.34 -0.47,-0.35 -0.45,-0.35 -0.42,-0.35 -0.4,-0.36 -0.38,-0.36 -0.36,-0.36 -0.33,-0.37 -0.32,-0.36 -0.29,-0.37 -0.28,-0.36 -0.25,-0.36 -0.24,-0.36 -0.22,-0.36 -0.21,-0.35 -0.18,-0.35 -0.17,-0.34 -0.16,-0.34 -0.14,-0.33 -0.13,-0.32 -0.11,-0.32 -0.1,-0.3 -0.09,-0.3 -0.07,-0.28 -0.07,-0.28 -0.05,-0.26 -0.05,-0.25 -0.03,-0.24 -0.03,-0.22 -0.02,-0.21 -0.01,-0.19 0,-0.17 c 0,-2.39 1.34,-3.8 1.45,-3.94 1.6,-1.66 2.05,-1.84 5.78,-3.25 l 6.02,-2.33 c 0.75,-0.36 1.75,-0.7 1.75,-2.16 0,-1.14 -0.89,-2.64 -2.44,-2.64 -2.18,0 -3.84,1.21 -4.39,1.61 -0.29,0.19 -0.34,0.24 -0.54,0.24 -0.4,0 -0.5,-0.35 -0.5,-0.55 0,-0.59 2.64,-2.39 5.43,-2.39 3.1,0 5.17,2.89 5.17,5.34 0,2.39 -1.84,3.29 -2.39,3.54 -0.68,0.25 -2.39,0.89 -3.03,1.14 -1,0.4 -2,0.79 -3.04,1.15 l -2.99,1.19 c -2.23,0.91 -3.73,2.34 -3.73,4.44 0,2.04 1.93,6.37 6.12,8.47 1.85,-0.66 3.35,-0.66 4.39,-0.66 1.49,0 4.63,0 4.63,1.55 0,1.25 -2.14,1.34 -4.08,1.34 l -0.05,-1.09 c 1.74,0 1.94,-0.05 2.83,-0.3 -0.39,-0.2 -0.89,-0.39 -3.19,-0.39 -1.14,0 -1.59,0 -2.48,0.39 h 0 c 1.14,0.3 2.23,0.3 2.84,0.3 l 0.05,1.09 c -0.91,0 -2.34,0 -4.19,-0.59 -1.29,1.29 -1.5,2.93 -1.5,3.89 0,2.78 1.8,6.62 5.53,8.47 0.91,-1.1 2.05,-1.1 3.19,-1.1 l 0.06,1.1 c -0.95,0 -1.54,0 -2.09,0.45 h 0 c 0.8,0.25 1.84,0.25 2.39,0.25 1.69,0 1.89,-0.06 2.78,-0.31 -0.39,-0.14 -0.89,-0.39 -3.08,-0.39 l -0.06,-1.1 c 1.25,0 4.44,0 4.44,1.55 0,1.3 -2.19,1.34 -4.14,1.34 -0.64,0 -1.85,0 -3.13,-0.25 -0.15,0.44 -0.25,0.8 -0.25,1.64 0,0.71 0.25,1.75 0.25,1.85 0,0.39 -0.25,0.64 -0.61,0.64 -0.89,0 -0.89,-2.28 -0.89,-2.44 0,-1 0.3,-1.73 0.35,-1.94 -5.33,-1.5 -8.72,-5.48 -8.72,-9.31 0,-1.84 0.9,-3.94 3.23,-5.28 z"
             inkscape:connector-curvature="0"
             style="fill:#000000;stroke-width:0" /><path
             id="path5104"
             d="m 484.53,402.95 -0.11,-0.18 -0.12,-0.16 -0.11,-0.17 -0.11,-0.15 -0.12,-0.16 -0.11,-0.14 -0.11,-0.14 -0.12,-0.14 -0.12,-0.13 -0.11,-0.12 -0.12,-0.12 -0.12,-0.11 -0.12,-0.11 -0.12,-0.11 -0.13,-0.09 -0.13,-0.1 -0.13,-0.08 -0.13,-0.09 -0.14,-0.07 -0.14,-0.08 -0.14,-0.06 -0.14,-0.07 -0.15,-0.05 -0.15,-0.06 -0.16,-0.04 -0.16,-0.05 -0.17,-0.04 -0.17,-0.03 -0.17,-0.03 -0.18,-0.02 -0.19,-0.02 -0.19,-0.02 c -0.34,-0.03 -0.8,-0.03 -0.8,-0.73 0,-0.38 0.32,-0.52 0.49,-0.52 0.9,0 2.06,0.14 3,0.14 1.11,0 2.55,-0.14 3.59,-0.14 0.17,0 0.69,0 0.69,0.77 0,0.45 -0.45,0.48 -0.58,0.48 -0.28,0.05 -1.55,0.11 -1.55,1.05 0,0.42 0.36,1.01 0.54,1.33 l 2.78,4.31 h 9.97 l -0.18,1.26 h -8.95 l 7.31,11.4 1.64,-11.4 0.18,-1.26 0.84,-5.78 c -0.14,-0.35 -0.36,-0.91 -2.41,-0.91 -0.42,0 -0.9,0 -0.9,-0.76 0,-0.14 0.09,-0.49 0.54,-0.49 1.02,0 3.49,0.14 4.5,0.14 0.63,0 1.43,-0.03 2.07,-0.03 0.62,-0.05 1.36,-0.11 1.98,-0.11 0.45,0 0.69,0.28 0.69,0.74 0,0.51 -0.41,0.51 -0.97,0.51 -2.02,0 -2.09,0.28 -2.2,1.13 l -3.07,21.5 c -0.11,0.72 -0.17,0.97 -0.82,0.97 -0.68,0 -0.88,-0.32 -1.19,-0.8 z"
             inkscape:connector-curvature="0"
             style="fill:#000000;stroke-width:0" /><path
             id="path5106"
             d="m 557.3,431.01 0.06,0.03 0.06,0.03 0.05,0.02 0.05,0.03 0.05,0.03 0.05,0.03 0.05,0.02 0.04,0.03 0.04,0.03 0.05,0.03 0.04,0.03 0.03,0.02 0.04,0.03 0.04,0.03 0.03,0.03 0.03,0.04 0.03,0.03 0.03,0.03 0.02,0.03 0.03,0.04 0.02,0.03 0.02,0.04 0.02,0.04 0.01,0.04 0.02,0.04 0.01,0.04 0.01,0.04 0.01,0.04 0.01,0.05 0,0.05 0.01,0.04 0,0.06 c 0,0.54 -0.46,1 -1,1 -0.14,0 -0.25,0 -0.89,-0.35 l -27.61,-13.01 c -0.55,-0.25 -0.94,-0.5 -0.94,-1.1 0,-0.59 0.39,-0.84 0.94,-1.09 l 27.61,-13 c 0.64,-0.36 0.75,-0.36 0.89,-0.36 0.54,0 1,0.45 1,1 0,0.55 -0.35,0.8 -0.96,1.09 l -26.15,12.36 z"
             inkscape:connector-curvature="0"
             style="fill:#000000;stroke-width:0" /><path
             id="path5108"
             d="m 590.88,438.09 0,0.05 0,0.06 0,0.05 0,0.05 0,0.05 0,0.05 0,0.04 0,0.05 0,0.04 -0.01,0.04 0,0.04 0,0.04 0,0.04 0,0.03 -0.01,0.04 0,0.03 -0.01,0.07 -0.01,0.06 -0.01,0.05 -0.01,0.05 -0.02,0.05 -0.02,0.04 -0.02,0.04 -0.02,0.03 -0.03,0.03 -0.03,0.03 -0.04,0.03 -0.04,0.02 -0.04,0.02 -0.03,0.01 -0.02,0.01 -0.03,0 -0.02,0.01 -0.03,0.01 -0.03,0 -0.03,0.01 -0.04,0 -0.03,0.01 -0.03,0 -0.04,0 -0.04,0.01 -0.04,0 -0.04,0 -0.04,0 -0.04,0 -0.04,0 -0.05,0.01 -0.05,0 -0.05,0 -0.05,0 -0.05,0 c -3.09,-3.19 -7.47,-3.19 -9.06,-3.19 v -1.55 c 1,0 3.93,0 6.51,1.3 v -25.81 c 0,-1.8 -0.14,-2.39 -4.62,-2.39 h -1.6 v -1.55 c 1.75,0.16 6.08,0.16 8.06,0.16 2,0 6.33,0 8.08,-0.16 v 1.55 h -1.59 c -4.49,0 -4.64,0.54 -4.64,2.39 z"
             inkscape:connector-curvature="0"
             style="fill:#000000;stroke-width:0" /></g>      </g>
      <g
         transform="translate(446.32387,854.084)"
         id="g5400">
        <g
           style="font-style:normal;font-variant:normal;font-weight:normal;font-stretch:normal;letter-spacing:normal;word-spacing:normal;text-anchor:start;fill:none;stroke:#000000;stroke-linecap:butt;stroke-linejoin:miter;stroke-miterlimit:10.43299961;stroke-opacity:1;stroke-dasharray:none;stroke-dashoffset:0"
           id="g5402"
           transform="matrix(1.2368751,0,0,-1.2368751,-216.45314,792.33758)"
           xml:space="preserve"
           stroke-miterlimit="10.433"
           font-style="normal"
           font-variant="normal"
           font-weight="normal"
           font-stretch="normal"
           font-size-adjust="none"
           letter-spacing="normal"
           word-spacing="normal"><path
             style="fill:#000000;stroke-width:0"
             inkscape:connector-curvature="0"
             d="m 463.19,421.45 -0.5,-0.34 -0.47,-0.35 -0.45,-0.35 -0.42,-0.35 -0.4,-0.36 -0.38,-0.36 -0.36,-0.36 -0.33,-0.37 -0.32,-0.36 -0.29,-0.37 -0.28,-0.36 -0.25,-0.36 -0.24,-0.36 -0.22,-0.36 -0.21,-0.35 -0.18,-0.35 -0.17,-0.34 -0.16,-0.34 -0.14,-0.33 -0.13,-0.32 -0.11,-0.32 -0.1,-0.3 -0.09,-0.3 -0.07,-0.28 -0.07,-0.28 -0.05,-0.26 -0.05,-0.25 -0.03,-0.24 -0.03,-0.22 -0.02,-0.21 -0.01,-0.19 0,-0.17 c 0,-2.39 1.34,-3.8 1.45,-3.94 1.6,-1.66 2.05,-1.84 5.78,-3.25 l 6.02,-2.33 c 0.75,-0.36 1.75,-0.7 1.75,-2.16 0,-1.14 -0.89,-2.64 -2.44,-2.64 -2.18,0 -3.84,1.21 -4.39,1.61 -0.29,0.19 -0.34,0.24 -0.54,0.24 -0.4,0 -0.5,-0.35 -0.5,-0.55 0,-0.59 2.64,-2.39 5.43,-2.39 3.1,0 5.17,2.89 5.17,5.34 0,2.39 -1.84,3.29 -2.39,3.54 -0.68,0.25 -2.39,0.89 -3.03,1.14 -1,0.4 -2,0.79 -3.04,1.15 l -2.99,1.19 c -2.23,0.91 -3.73,2.34 -3.73,4.44 0,2.04 1.93,6.37 6.12,8.47 1.85,-0.66 3.35,-0.66 4.39,-0.66 1.49,0 4.63,0 4.63,1.55 0,1.25 -2.14,1.34 -4.08,1.34 l -0.05,-1.09 c 1.74,0 1.94,-0.05 2.83,-0.3 -0.39,-0.2 -0.89,-0.39 -3.19,-0.39 -1.14,0 -1.59,0 -2.48,0.39 h 0 c 1.14,0.3 2.23,0.3 2.84,0.3 l 0.05,1.09 c -0.91,0 -2.34,0 -4.19,-0.59 -1.29,1.29 -1.5,2.93 -1.5,3.89 0,2.78 1.8,6.62 5.53,8.47 0.91,-1.1 2.05,-1.1 3.19,-1.1 l 0.06,1.1 c -0.95,0 -1.54,0 -2.09,0.45 h 0 c 0.8,0.25 1.84,0.25 2.39,0.25 1.69,0 1.89,-0.06 2.78,-0.31 -0.39,-0.14 -0.89,-0.39 -3.08,-0.39 l -0.06,-1.1 c 1.25,0 4.44,0 4.44,1.55 0,1.3 -2.19,1.34 -4.14,1.34 -0.64,0 -1.85,0 -3.13,-0.25 -0.15,0.44 -0.25,0.8 -0.25,1.64 0,0.71 0.25,1.75 0.25,1.85 0,0.39 -0.25,0.64 -0.61,0.64 -0.89,0 -0.89,-2.28 -0.89,-2.44 0,-1 0.3,-1.73 0.35,-1.94 -5.33,-1.5 -8.72,-5.48 -8.72,-9.31 0,-1.84 0.9,-3.94 3.23,-5.28 z"
             id="path5404" /><path
             style="fill:#000000;stroke-width:0"
             inkscape:connector-curvature="0"
             d="m 489.23,409.56 0.15,1.12 2.37,9.44 c 0.28,1.08 0.31,1.19 1.78,1.19 h 4.08 c 3.23,0 5.25,-0.99 5.25,-3.45 0,-1.08 -0.41,-3.83 -2.16,-5.41 -1.25,-1.11 -3.23,-1.77 -5.75,-1.77 h -5.57 l -0.15,-1.12 h 6.32 c 5.89,0 10.87,3.76 10.87,7.56 0,2.94 -2.86,5.44 -7.64,5.44 h -12.19 c -0.7,0 -1.11,0 -1.11,-0.77 0,-0.48 0.38,-0.48 1.14,-0.48 0.57,0 0.71,0 1.33,-0.08 0.71,-0.06 0.77,-0.14 0.77,-0.48 0,-0.07 0,-0.24 -0.14,-0.77 l -4.6,-18.36 c -0.36,-1.36 -0.39,-1.61 -3.1,-1.61 -0.63,0 -1.05,0 -1.05,-0.76 0,-0.04 0,-0.49 0.56,-0.49 1.02,0 3.52,0.14 4.53,0.14 0.6,0 1.81,0 2.41,-0.03 0.69,-0.05 1.56,-0.11 2.23,-0.11 0.21,0 0.72,0 0.72,0.77 0,0.48 -0.4,0.48 -1.11,0.48 -0.03,0 -0.7,0 -1.33,0.08 -0.79,0.06 -0.79,0.17 -0.79,0.52 0,0.03 0,0.25 0.14,0.76 z"
             id="path5406" /><path
             style="fill:#000000;stroke-width:0"
             inkscape:connector-curvature="0"
             d="m 558.63,422.5 0.14,0 0.15,0 0.14,0 0.07,0.01 0.08,0 0.07,0.01 0.07,0.01 0.07,0.01 0.07,0.01 0.07,0.01 0.06,0.02 0.07,0.02 0.06,0.02 0.06,0.02 0.06,0.03 0.06,0.03 0.05,0.04 0.05,0.03 0.05,0.05 0.04,0.04 0.04,0.05 0.02,0.03 0.02,0.03 0.01,0.02 0.02,0.03 0.01,0.03 0.01,0.04 0.02,0.03 0.01,0.04 0.01,0.03 0.01,0.04 0,0.04 0.01,0.04 0,0.04 0.01,0.04 0,0.04 0,0.05 c 0,1 -0.95,1 -1.64,1 h -29.84 c -0.71,0 -1.64,0 -1.64,-1 0,-0.98 0.93,-0.98 1.68,-0.98 z"
             id="path5408" /><path
             style="fill:#000000;stroke-width:0"
             inkscape:connector-curvature="0"
             d="m 558.68,412.82 0.07,0 0.06,0 0.14,0.01 0.14,0 0.07,0 0.07,0.01 0.07,0.01 0.06,0 0.07,0.01 0.07,0.02 0.07,0.01 0.06,0.02 0.07,0.02 0.06,0.02 0.06,0.02 0.05,0.03 0.06,0.03 0.05,0.04 0.05,0.04 0.05,0.04 0.04,0.05 0.02,0.02 0.02,0.03 0.02,0.02 0.02,0.03 0.01,0.03 0.02,0.03 0.01,0.03 0.01,0.03 0.02,0.04 0.01,0.03 0.01,0.04 0.01,0.04 0,0.04 0.01,0.04 0,0.04 0.01,0.04 0,0.05 0,0.04 c 0,1 -0.95,1 -1.69,1 h -29.75 c -0.75,0 -1.68,0 -1.68,-1 0,-1 0.93,-1 1.64,-1 z"
             id="path5410" /><path
             style="fill:#000000;stroke-width:0"
             inkscape:connector-curvature="0"
             d="m 591.6,438.09 0,0.05 0,0.06 0,0.05 0,0.05 0,0.05 0,0.05 0,0.04 0,0.05 -0.01,0.04 0,0.04 0,0.04 0,0.04 0,0.04 0,0.03 -0.01,0.04 0,0.03 -0.01,0.07 -0.01,0.06 -0.01,0.05 -0.01,0.05 -0.02,0.05 -0.02,0.04 -0.02,0.04 -0.02,0.03 -0.03,0.03 -0.04,0.03 -0.03,0.03 -0.04,0.02 -0.04,0.02 -0.03,0.01 -0.02,0.01 -0.03,0 -0.03,0.01 -0.02,0.01 -0.03,0 -0.03,0.01 -0.04,0 -0.03,0.01 -0.03,0 -0.04,0 -0.04,0.01 -0.04,0 -0.04,0 -0.04,0 -0.04,0 -0.05,0 -0.04,0.01 -0.05,0 -0.05,0 -0.05,0 -0.05,0 c -3.1,-3.19 -7.47,-3.19 -9.06,-3.19 v -1.55 c 1,0 3.93,0 6.51,1.3 v -25.81 c 0,-1.8 -0.14,-2.39 -4.63,-2.39 h -1.59 v -1.55 c 1.75,0.16 6.08,0.16 8.06,0.16 2,0 6.33,0 8.08,-0.16 v 1.55 h -1.59 c -4.49,0 -4.64,0.54 -4.64,2.39 z"
             id="path5412" /></g>      </g>
    </g>
  </g>
</svg>
