<?xml version="1.0" encoding="UTF-8" standalone="no"?>
<!-- Created with Inkscape (http://www.inkscape.org/) -->

<svg
   xmlns:dc="http://purl.org/dc/elements/1.1/"
   xmlns:cc="http://creativecommons.org/ns#"
   xmlns:rdf="http://www.w3.org/1999/02/22-rdf-syntax-ns#"
   xmlns:svg="http://www.w3.org/2000/svg"
   xmlns="http://www.w3.org/2000/svg"
   xmlns:sodipodi="http://sodipodi.sourceforge.net/DTD/sodipodi-0.dtd"
   xmlns:inkscape="http://www.inkscape.org/namespaces/inkscape"
   width="1236.4087"
   height="840.59888"
   id="svg5680"
   version="1.1"
   inkscape:version="0.48.3.1 r9886"
   sodipodi:docname="New document 36">
  <defs
     id="defs5682" />
  <sodipodi:namedview
     id="base"
     pagecolor="#ffffff"
     bordercolor="#666666"
     borderopacity="1.0"
     inkscape:pageopacity="0.0"
     inkscape:pageshadow="2"
     inkscape:zoom="0.35"
     inkscape:cx="666.57881"
     inkscape:cy="314.58514"
     inkscape:document-units="px"
     inkscape:current-layer="layer1"
     showgrid="false"
     fit-margin-top="0"
     fit-margin-left="0"
     fit-margin-right="0"
     fit-margin-bottom="0"
     inkscape:window-width="557"
     inkscape:window-height="777"
     inkscape:window-x="719"
     inkscape:window-y="19"
     inkscape:window-maximized="0" />
  <metadata
     id="metadata5685">
    <rdf:RDF>
      <cc:Work
         rdf:about="">
        <dc:format>image/svg+xml</dc:format>
        <dc:type
           rdf:resource="http://purl.org/dc/dcmitype/StillImage" />
        <dc:title></dc:title>
      </cc:Work>
    </rdf:RDF>
  </metadata>
  <g
     inkscape:label="Layer 1"
     inkscape:groupmode="layer"
     id="layer1"
     transform="translate(295.34717,-6.3484604)">
    <path
       style="fill:none;stroke:#000000;stroke-width:6.80000019;stroke-linecap:butt;stroke-linejoin:miter;stroke-miterlimit:4;stroke-opacity:1;stroke-dasharray:none"
       d="m 56.300778,641.30532 c 10.10153,-42.4264 12.12183,-44.4467 12.12183,-44.4467 l 8.08122,-28.2843"
       id="path4927"
       inkscape:connector-curvature="0" />
    <path
       style="color:#000000;fill:#ffe680;fill-opacity:1;fill-rule:nonzero;stroke:#d45500;stroke-width:5.65899992;stroke-miterlimit:4;stroke-opacity:1;stroke-dasharray:none;marker:none;visibility:visible;display:inline;overflow:visible;enable-background:accumulate"
       d="m 207.51429,322.08962 0,-197.50001 c -8.5939,-6.65138 -14.125,-17.04188 -14.125,-28.749976 0,-20.0842 16.25965,-36.375 36.34375,-36.375 20.08411,0 36.375,16.2908 36.375,36.375 0,9.755996 -3.84042,18.593796 -10.09375,25.124976 l 0,201.12501 -20.21875,0 0,-190.40631 c -1.966,0.3289 -4.00307,0.5 -6.0625,0.5 -0.67957,0 -1.32962,0.01 -2,-0.031 l 0,189.93761 -20.21875,0 z"
       id="rect4653-8"
       inkscape:connector-curvature="0" />
    <path
       inkscape:connector-curvature="0"
       style="color:#000000;fill:#ffe680;fill-opacity:1;fill-rule:nonzero;stroke:#d45500;stroke-width:5.65899992;stroke-miterlimit:4;stroke-opacity:1;stroke-dasharray:none;marker:none;visibility:visible;display:inline;overflow:visible;enable-background:accumulate"
       d="m 819.20203,328.15052 0,-197.49999 c -8.5939,-6.65138 -14.125,-17.04188 -14.125,-28.74998 0,-20.084196 16.2597,-36.374996 36.3438,-36.374996 20.0841,0 36.375,16.2908 36.375,36.374996 0,9.756 -3.8405,18.5938 -10.0938,25.12498 l 0,201.12499 -20.2187,0 0,-190.40629 c -1.966,0.3289 -4.0031,0.5 -6.0625,0.5 -0.6796,0 -1.3296,0.01 -2,-0.031 l 0,189.93759 -20.2188,0 z"
       id="rect4653-6-2" />
    <path
       inkscape:connector-curvature="0"
       style="color:#000000;fill:#ffe680;fill-opacity:1;fill-rule:nonzero;stroke:#d45500;stroke-width:5.65899992;stroke-miterlimit:4;stroke-opacity:1;stroke-dasharray:none;marker:none;visibility:visible;display:inline;overflow:visible;enable-background:accumulate"
       d="m -184.37446,322.08962 0,-197.49997 c -8.5939,-6.6514 -14.12501,-17.0419 -14.12501,-28.749996 0,-20.0842 16.25965,-36.375 36.34375,-36.375 20.08412,0 36.37501,16.2908 36.37501,36.375 0,9.755996 -3.84043,18.593796 -10.09375,25.124996 l 0,201.12497 -20.21875,0 0,-190.40629 c -1.96601,0.3289 -4.00309,0.5 -6.06251,0.5 -0.67957,0 -1.32962,0.01 -2,-0.031 l 0,189.93759 -20.21874,0 z"
       id="rect4653-6-7-0" />
    <path
       inkscape:connector-curvature="0"
       style="color:#000000;fill:#ffe680;fill-opacity:1;fill-rule:nonzero;stroke:#d45500;stroke-width:5.65899992;stroke-miterlimit:4;stroke-opacity:1;stroke-dasharray:none;marker:none;visibility:visible;display:inline;overflow:visible;enable-background:accumulate"
       d="m 450.72876,326.13022 0,-197.49997 c -8.5939,-6.65139 -14.125,-17.04189 -14.125,-28.749996 0,-20.0842 16.2596,-36.375 36.3437,-36.375 20.0841,0 36.375,16.2908 36.375,36.375 0,9.755996 -3.8404,18.593796 -10.0937,25.124996 l 0,201.12497 -20.2188,0 0,-190.40629 c -1.966,0.3289 -4.0031,0.5 -6.0625,0.5 -0.6796,0 -1.3296,0.01 -2,-0.031 l 0,189.93759 -20.2187,0 z"
       id="rect4653-6-7-0-2" />
    <path
       inkscape:connector-curvature="0"
       style="color:#000000;fill:#ffe680;fill-opacity:1;fill-rule:nonzero;stroke:#d45500;stroke-width:5.65899992;stroke-miterlimit:4;stroke-opacity:1;stroke-dasharray:none;marker:none;visibility:visible;display:inline;overflow:visible;enable-background:accumulate"
       d="m 129.13654,322.08952 0,-197.49981 c -8.5939,-6.65139 -14.125,-17.0419 -14.125,-28.749996 0,-20.0842 16.25964,-36.375 36.34374,-36.375 20.08412,0 36.37501,16.2908 36.37501,36.375 0,9.755996 -3.84043,18.593796 -10.09375,25.124996 l 0,201.12481 -20.21875,0 0,-190.40612 c -1.96601,0.3289 -4.00309,0.5 -6.06251,0.5 -0.67957,0 -1.32962,0.01 -2,-0.031 l 0,189.93742 -20.21874,0 z"
       id="rect4653-6-7-0-6" />
    <path
       inkscape:connector-curvature="0"
       style="color:#000000;fill:#ffe680;fill-opacity:1;fill-rule:nonzero;stroke:#d45500;stroke-width:5.65899992;stroke-miterlimit:4;stroke-opacity:1;stroke-dasharray:none;marker:none;visibility:visible;display:inline;overflow:visible;enable-background:accumulate"
       d="m 662.44656,328.15042 0,-197.49979 c -8.5939,-6.65139 -14.125,-17.0419 -14.125,-28.75 0,-20.084196 16.2597,-36.374996 36.3438,-36.374996 20.08407,0 36.37497,16.2908 36.37497,36.374996 0,9.756 -3.8405,18.5938 -10.0938,25.125 l 0,201.12479 -20.21867,0 0,-190.4061 c -1.966,0.3289 -4.0031,0.5 -6.0625,0.5 -0.6796,0 -1.3297,0.01 -2,-0.031 l 0,189.9374 -20.2188,0 z"
       id="rect4653-6-7-0-1" />
    <path
       style="color:#000000;fill:#ffe680;fill-opacity:1;fill-rule:nonzero;stroke:#d45500;stroke-width:5.65899992;stroke-miterlimit:4;stroke-opacity:1;stroke-dasharray:none;marker:none;visibility:visible;display:inline;overflow:visible;enable-background:accumulate"
       d="m -27.618962,322.08962 0,-197.49999 c -8.5939,-6.65141 -14.125,-17.04191 -14.125,-28.750006 0,-20.0842 16.25965,-36.375 36.3437497,-36.375 20.0841103,0 36.3750003,16.2908 36.3750003,36.375 0,9.755996 -3.84042,18.593796 -10.09375,25.124976 l 0,201.12502 -20.21875033,0 0,-190.40629 c -1.96599997,0.3289 -4.00306997,0.5 -6.06249997,0.5 -0.67957,0 -1.32962,0.01 -2,-0.031 l 0,189.93759 -20.2187497,0 z"
       id="rect4653-8-0"
       inkscape:connector-curvature="0" />
    <path
       inkscape:connector-curvature="0"
       style="color:#000000;fill:#ffe680;fill-opacity:1;fill-rule:nonzero;stroke:#d45500;stroke-width:5.65899992;stroke-miterlimit:4;stroke-opacity:1;stroke-dasharray:none;marker:none;visibility:visible;display:inline;overflow:visible;enable-background:accumulate"
       d="m -105.99671,322.08962 0,-197.49999 c -8.5939,-6.65141 -14.125,-17.04191 -14.125,-28.750006 0,-20.0842 16.25964,-36.375 36.343748,-36.375 20.08411,0 36.375,16.2908 36.375,36.375 0,9.755996 -3.84043,18.593796 -10.09375,25.124976 l 0,201.12502 -20.21875,0 0,-190.40629 c -1.966,0.3289 -4.00308,0.5 -6.0625,0.5 -0.67957,0 -1.32962,0.01 -2,-0.031 l 0,189.93759 -20.218748,0 z"
       id="rect4653-6-2-3" />
    <path
       inkscape:connector-curvature="0"
       style="color:#000000;fill:#ffe680;fill-opacity:1;fill-rule:nonzero;stroke:#d45500;stroke-width:5.65899992;stroke-miterlimit:4;stroke-opacity:1;stroke-dasharray:none;marker:none;visibility:visible;display:inline;overflow:visible;enable-background:accumulate"
       d="m 293.97325,326.13022 0,-197.50001 c -8.5939,-6.65136 -14.125,-17.04186 -14.125,-28.749956 0,-20.0842 16.25964,-36.375 36.34371,-36.375 20.0842,0 36.375,16.2908 36.375,36.375 0,9.755996 -3.8404,18.593796 -10.0937,25.124996 l 0,201.12497 -20.2188,0 0,-190.40631 c -1.966,0.3289 -4.003,0.5 -6.0625,0.5 -0.6795,0 -1.3296,0.01 -2,-0.031 l 0,189.93761 -20.21871,0 z"
       id="rect4653-6-7-0-16" />
    <path
       inkscape:connector-curvature="0"
       style="color:#000000;fill:#ffe680;fill-opacity:1;fill-rule:nonzero;stroke:#d45500;stroke-width:5.65899992;stroke-miterlimit:4;stroke-opacity:1;stroke-dasharray:none;marker:none;visibility:visible;display:inline;overflow:visible;enable-background:accumulate"
       d="m 740.82433,328.15052 0,-197.49998 c -8.5939,-6.65138 -14.125,-17.04188 -14.125,-28.74999 0,-20.084196 16.2596,-36.374996 36.3437,-36.374996 20.0841,0 36.375,16.2908 36.375,36.374996 0,9.756 -3.8404,18.5938 -10.0937,25.125 l 0,201.12497 -20.2188,0 0,-190.40628 c -1.966,0.3289 -4.0031,0.5 -6.0625,0.5 -0.6796,0 -1.3296,0.01 -2,-0.031 l 0,189.93758 -20.2187,0 z"
       id="rect4653-6-7-0-2-8" />
    <path
       inkscape:connector-curvature="0"
       style="color:#000000;fill:#ffe680;fill-opacity:1;fill-rule:nonzero;stroke:#d45500;stroke-width:5.65899992;stroke-miterlimit:4;stroke-opacity:1;stroke-dasharray:none;marker:none;visibility:visible;display:inline;overflow:visible;enable-background:accumulate"
       d="m 372.35096,326.13012 0,-197.49986 c -8.5939,-6.65134 -14.125,-17.04185 -14.125,-28.749946 0,-20.0842 16.2597,-36.375 36.3438,-36.375 20.0841,0 36.375,16.2908 36.375,36.375 0,9.755996 -3.8405,18.593796 -10.0938,25.124996 l 0,201.12481 -20.2187,0 0,-190.40616 c -1.966,0.3289 -4.0031,0.5 -6.0625,0.5 -0.6796,0 -1.3296,0.01 -2,-0.031 l 0,189.93746 -20.2188,0 z"
       id="rect4653-6-7-0-6-1" />
    <path
       inkscape:connector-curvature="0"
       style="color:#000000;fill:#ffe680;fill-opacity:1;fill-rule:nonzero;stroke:#d45500;stroke-width:5.65899992;stroke-miterlimit:4;stroke-opacity:1;stroke-dasharray:none;marker:none;visibility:visible;display:inline;overflow:visible;enable-background:accumulate"
       d="m 50.758788,322.08952 0,-197.49987 c -8.5939,-6.65134 -14.125,-17.04185 -14.125,-28.749946 0,-20.0842 16.25964,-36.375 36.34374,-36.375 20.08412,0 36.375012,16.2908 36.375012,36.375 0,9.755996 -3.84043,18.593796 -10.093752,25.124996 l 0,201.12482 -20.21875,0 0,-190.40617 c -1.96601,0.3289 -4.00309,0.5 -6.06251,0.5 -0.67957,0 -1.32962,0.01 -2,-0.031 l 0,189.93747 -20.21874,0 z"
       id="rect4653-6-7-0-1-8" />
    <path
       style="color:#000000;fill:#ffe680;fill-opacity:1;fill-rule:nonzero;stroke:#d45500;stroke-width:5.65899992;stroke-miterlimit:4;stroke-opacity:1;stroke-dasharray:none;marker:none;visibility:visible;display:inline;overflow:visible;enable-background:accumulate"
       d="m 204.98928,330.18582 0,197.5 c -8.5939,6.6514 -14.125,17.0419 -14.125,28.75 0,20.0842 16.2596,36.375 36.3437,36.375 20.0841,0 36.375,-16.2908 36.375,-36.375 0,-9.756 -3.8404,-18.5938 -10.0937,-25.125 l 0,-201.125 -20.2188,0 0,190.4063 c -1.966,-0.3289 -4.0031,-0.5 -6.0625,-0.5 -0.6796,0 -1.3296,-0.01 -2,0.031 l 0,-189.9376 -20.2187,0 z"
       id="rect4653-8-9"
       inkscape:connector-curvature="0" />
    <path
       inkscape:connector-curvature="0"
       style="color:#000000;fill:#ffe680;fill-opacity:1;fill-rule:nonzero;stroke:#d45500;stroke-width:5.65899992;stroke-miterlimit:4;stroke-opacity:1;stroke-dasharray:none;marker:none;visibility:visible;display:inline;overflow:visible;enable-background:accumulate"
       d="m 816.67693,336.24672 0,197.5 c -8.5939,6.6514 -14.125,17.0419 -14.125,28.75 0,20.0842 16.2597,36.375 36.3438,36.375 20.0841,0 36.375,-16.2908 36.375,-36.375 0,-9.756 -3.8405,-18.5938 -10.0938,-25.125 l 0,-201.125 -20.2187,0 0,190.4063 c -1.966,-0.3289 -4.0031,-0.5 -6.0625,-0.5 -0.6796,0 -1.3296,-0.01 -2,0.031 l 0,-189.9376 -20.2188,0 z"
       id="rect4653-6-2-2" />
    <path
       inkscape:connector-curvature="0"
       style="color:#000000;fill:#ffe680;fill-opacity:1;fill-rule:nonzero;stroke:#d45500;stroke-width:5.65899992;stroke-miterlimit:4;stroke-opacity:1;stroke-dasharray:none;marker:none;visibility:visible;display:inline;overflow:visible;enable-background:accumulate"
       d="m -186.89952,330.18582 0,197.5 c -8.59391,6.6514 -14.12501,17.0419 -14.12501,28.75 0,20.0842 16.25971,36.375 36.34381,36.375 20.0841,0 36.375,-16.2908 36.375,-36.375 0,-9.756 -3.8405,-18.5938 -10.0938,-25.125 l 0,-201.125 -20.2187,0 0,190.4063 c -1.966,-0.3289 -4.0031,-0.5 -6.0625,-0.5 -0.6796,0 -1.3297,-0.01 -2,0.031 l 0,-189.9376 -20.2188,0 z"
       id="rect4653-6-7-0-8" />
    <path
       inkscape:connector-curvature="0"
       style="color:#000000;fill:#ffe680;fill-opacity:1;fill-rule:nonzero;stroke:#d45500;stroke-width:5.65899992;stroke-miterlimit:4;stroke-opacity:1;stroke-dasharray:none;marker:none;visibility:visible;display:inline;overflow:visible;enable-background:accumulate"
       d="m 448.20366,334.22642 0,197.5 c -8.5939,6.6514 -14.125,17.0419 -14.125,28.75 0,20.0842 16.2596,36.375 36.3437,36.375 20.0841,0 36.375,-16.2908 36.375,-36.375 0,-9.756 -3.8404,-18.5938 -10.0937,-25.125 l 0,-201.125 -20.2188,0 0,190.4063 c -1.966,-0.3289 -4.0031,-0.5 -6.0625,-0.5 -0.6796,0 -1.3296,-0.01 -2,0.031 l 0,-189.9376 -20.2187,0 z"
       id="rect4653-6-7-0-2-9" />
    <path
       inkscape:connector-curvature="0"
       style="color:#000000;fill:#ffe680;fill-opacity:1;fill-rule:nonzero;stroke:#d45500;stroke-width:5.65899992;stroke-miterlimit:4;stroke-opacity:1;stroke-dasharray:none;marker:none;visibility:visible;display:inline;overflow:visible;enable-background:accumulate"
       d="m 126.61148,330.18592 0,197.4998 c -8.5939,6.6514 -14.125,17.0419 -14.125,28.75 0,20.0842 16.2597,36.375 36.3438,36.375 20.0841,0 36.375,-16.2908 36.375,-36.375 0,-9.756 -3.8405,-18.5938 -10.0938,-25.125 l 0,-201.1248 -20.2187,0 0,190.4061 c -1.966,-0.3289 -4.0031,-0.5 -6.0625,-0.5 -0.6796,0 -1.3297,-0.01 -2,0.031 l 0,-189.9374 -20.2188,0 z"
       id="rect4653-6-7-0-6-3" />
    <path
       inkscape:connector-curvature="0"
       style="color:#000000;fill:#ffe680;fill-opacity:1;fill-rule:nonzero;stroke:#d45500;stroke-width:5.65899992;stroke-miterlimit:4;stroke-opacity:1;stroke-dasharray:none;marker:none;visibility:visible;display:inline;overflow:visible;enable-background:accumulate"
       d="m 659.92146,336.24682 0,197.4998 c -8.5939,6.6514 -14.125,17.0419 -14.125,28.75 0,20.0842 16.2597,36.375 36.3438,36.375 20.0841,0 36.37497,-16.2908 36.37497,-36.375 0,-9.756 -3.8405,-18.5938 -10.0938,-25.125 l 0,-201.1248 -20.21867,0 0,190.4061 c -1.966,-0.3289 -4.0031,-0.5 -6.0625,-0.5 -0.6796,0 -1.3297,-0.01 -2,0.031 l 0,-189.9374 -20.2188,0 z"
       id="rect4653-6-7-0-1-0" />
    <path
       style="color:#000000;fill:#ffe680;fill-opacity:1;fill-rule:nonzero;stroke:#d45500;stroke-width:5.65899992;stroke-miterlimit:4;stroke-opacity:1;stroke-dasharray:none;marker:none;visibility:visible;display:inline;overflow:visible;enable-background:accumulate"
       d="m -30.144022,330.18582 0,197.5 c -8.5939,6.6514 -14.125,17.0419 -14.125,28.75 0,20.0842 16.2597,36.375 36.3437997,36.375 20.0841003,0 36.3750003,-16.2908 36.3750003,-36.375 0,-9.756 -3.8405,-18.5938 -10.0938,-25.125 l 0,-201.125 -20.2187003,0 0,190.4063 c -1.966,-0.3289 -4.0031,-0.5 -6.0625,-0.5 -0.6796,0 -1.3297,-0.01 -2,0.031 l 0,-189.9376 -20.2187997,0 z"
       id="rect4653-8-0-2"
       inkscape:connector-curvature="0" />
    <path
       inkscape:connector-curvature="0"
       style="color:#000000;fill:#ffe680;fill-opacity:1;fill-rule:nonzero;stroke:#d45500;stroke-width:5.65899992;stroke-miterlimit:4;stroke-opacity:1;stroke-dasharray:none;marker:none;visibility:visible;display:inline;overflow:visible;enable-background:accumulate"
       d="m -108.52172,330.18582 0,197.5 c -8.5939,6.6514 -14.125,17.0419 -14.125,28.75 0,20.0842 16.2596,36.375 36.343698,36.375 20.0841,0 36.375,-16.2908 36.375,-36.375 0,-9.756 -3.8404,-18.5938 -10.0937,-25.125 l 0,-201.125 -20.2188,0 0,190.4063 c -1.966,-0.3289 -4.0031,-0.5 -6.0625,-0.5 -0.6796,0 -1.3296,-0.01 -2,0.031 l 0,-189.9376 -20.218698,0 z"
       id="rect4653-6-2-3-2" />
    <path
       inkscape:connector-curvature="0"
       style="color:#000000;fill:#ffe680;fill-opacity:1;fill-rule:nonzero;stroke:#d45500;stroke-width:5.65899992;stroke-miterlimit:4;stroke-opacity:1;stroke-dasharray:none;marker:none;visibility:visible;display:inline;overflow:visible;enable-background:accumulate"
       d="m 291.4482,334.22642 0,197.5 c -8.5939,6.6514 -14.125,17.0419 -14.125,28.75 0,20.0842 16.2596,36.375 36.34366,36.375 20.0842,0 36.3751,-16.2908 36.3751,-36.375 0,-9.756 -3.8405,-18.5938 -10.0938,-25.125 l 0,-201.125 -20.2187,0 0,190.4063 c -1.9661,-0.3289 -4.0031,-0.5 -6.0626,-0.5 -0.6795,0 -1.32956,-0.01 -1.99996,0.031 l 0,-189.9376 -20.2187,0 z"
       id="rect4653-6-7-0-16-9" />
    <path
       inkscape:connector-curvature="0"
       style="color:#000000;fill:#ffe680;fill-opacity:1;fill-rule:nonzero;stroke:#d45500;stroke-width:5.65899992;stroke-miterlimit:4;stroke-opacity:1;stroke-dasharray:none;marker:none;visibility:visible;display:inline;overflow:visible;enable-background:accumulate"
       d="m 738.29923,338.26702 0,197.5 c -8.5939,6.6514 -14.125,17.0419 -14.125,28.75 0,20.0842 16.2596,36.375 36.3437,36.375 20.0841,0 36.375,-16.2908 36.375,-36.375 0,-9.756 -3.8404,-18.5938 -10.0937,-25.125 l 0,-201.125 -20.2188,0 0,190.4063 c -1.966,-0.3289 -4.0031,-0.5 -6.0625,-0.5 -0.6796,0 -1.3296,-0.01 -2,0.031 l 0,-189.9376 -20.2187,0 z"
       id="rect4653-6-7-0-2-8-3" />
    <path
       inkscape:connector-curvature="0"
       style="color:#000000;fill:#ffe680;fill-opacity:1;fill-rule:nonzero;stroke:#d45500;stroke-width:5.65899992;stroke-miterlimit:4;stroke-opacity:1;stroke-dasharray:none;marker:none;visibility:visible;display:inline;overflow:visible;enable-background:accumulate"
       d="m 369.82596,334.22652 0,197.4999 c -8.5939,6.6513 -14.125,17.0418 -14.125,28.7499 0,20.0842 16.2596,36.375 36.3437,36.375 20.0841,0 36.375,-16.2908 36.375,-36.375 0,-9.756 -3.8405,-18.5938 -10.0938,-25.125 l 0,-201.1248 -20.2187,0 0,190.4062 c -1.966,-0.3289 -4.0031,-0.5 -6.0625,-0.5 -0.6796,0 -1.3296,-0.01 -2,0.031 l 0,-189.9375 -20.2187,0 z"
       id="rect4653-6-7-0-6-1-2" />
    <path
       inkscape:connector-curvature="0"
       style="color:#000000;fill:#ffe680;fill-opacity:1;fill-rule:nonzero;stroke:#d45500;stroke-width:5.65899992;stroke-miterlimit:4;stroke-opacity:1;stroke-dasharray:none;marker:none;visibility:visible;display:inline;overflow:visible;enable-background:accumulate"
       d="m 48.233778,330.18592 0,197.4999 c -8.5939,6.6513 -14.125,17.0418 -14.125,28.7499 0,20.0842 16.2596,36.375 36.3437,36.375 20.0841,0 36.375002,-16.2908 36.375002,-36.375 0,-9.756 -3.8404,-18.5938 -10.093702,-25.125 l 0,-201.1248 -20.2188,0 0,190.4062 c -1.966,-0.3289 -4.0031,-0.5 -6.0625,-0.5 -0.6796,0 -1.3296,-0.01 -2,0.031 l 0,-189.9375 -20.2187,0 z"
       id="rect4653-6-7-0-1-8-4" />
    <rect
       style="color:#000000;fill:#d40000;fill-opacity:1;fill-rule:nonzero;stroke:#000000;stroke-width:5.2024951;stroke-miterlimit:4;stroke-opacity:1;stroke-dasharray:none;marker:none;visibility:visible;display:inline;overflow:visible;enable-background:accumulate"
       id="rect4882"
       width="105.86507"
       height="660.63977"
       x="527.0318"
       y="8.949708" />
    <rect
       style="color:#000000;fill:#00aad4;fill-opacity:1;fill-rule:nonzero;stroke:#000000;stroke-width:3.56902409;stroke-miterlimit:4;stroke-opacity:1;stroke-dasharray:none;marker:none;visibility:visible;display:inline;overflow:visible;enable-background:accumulate"
       id="rect4882-2"
       width="160.02647"
       height="205.6843"
       x="-19.671696"
       y="639.47852" />
    <text
       xml:space="preserve"
       style="font-size:128.68232727px;font-style:normal;font-weight:normal;line-height:125%;letter-spacing:0px;word-spacing:0px;fill:#000000;fill-opacity:1;stroke:none;font-family:Sans"
       x="17.292538"
       y="790.80786"
       id="text4902"
       sodipodi:linespacing="125%"><tspan
         sodipodi:role="line"
         id="tspan4904"
         x="17.292538"
         y="790.80786">P</tspan></text>
    <text
       xml:space="preserve"
       style="font-size:128.68232727px;font-style:normal;font-weight:normal;line-height:125%;letter-spacing:0px;word-spacing:0px;fill:#000000;fill-opacity:1;stroke:none;font-family:Sans"
       x="538.66498"
       y="413.44885"
       id="text4902-0"
       sodipodi:linespacing="125%"><tspan
         sodipodi:role="line"
         id="tspan4904-4"
         x="538.66498"
         y="413.44885">A</tspan></text>
    <text
       xml:space="preserve"
       style="font-size:40px;font-style:normal;font-weight:normal;line-height:125%;letter-spacing:0px;word-spacing:0px;fill:#000000;fill-opacity:1;stroke:none;font-family:Sans"
       x="-299.27295"
       y="724.13782"
       id="text4933"
       sodipodi:linespacing="125%"><tspan
         sodipodi:role="line"
         id="tspan4935"
         x="-299.27295"
         y="724.13782">Direct liaison</tspan></text>
    <text
       xml:space="preserve"
       style="font-size:40px;font-style:normal;font-weight:normal;line-height:125%;letter-spacing:0px;word-spacing:0px;fill:#000000;fill-opacity:1;stroke:none;font-family:Sans"
       x="519.47943"
       y="728.94836"
       id="text4933-3"
       sodipodi:linespacing="125%"><tspan
         sodipodi:role="line"
         id="tspan4935-2"
         x="519.47943"
         y="728.94836">&quot;Going with the flow&quot;</tspan></text>
    <g
       transform="translate(274.29283,513.23272)"
       id="g5098">
      <g
         style="font-style:normal;font-variant:normal;font-weight:normal;font-stretch:normal;letter-spacing:normal;word-spacing:normal;text-anchor:start;fill:none;stroke:#000000;stroke-linecap:butt;stroke-linejoin:miter;stroke-miterlimit:10.43299961;stroke-opacity:1;stroke-dasharray:none;stroke-dashoffset:0"
         id="g5100"
         transform="matrix(1.2368751,0,0,-1.2368751,-216.45314,792.33758)"
         xml:space="preserve"
         stroke-miterlimit="10.433"
         font-style="normal"
         font-variant="normal"
         font-weight="normal"
         font-stretch="normal"
         font-size-adjust="none"
         letter-spacing="normal"
         word-spacing="normal"><path
           style="fill:#000000;stroke-width:0"
           inkscape:connector-curvature="0"
           d="m 463.19,421.45 -0.5,-0.34 -0.47,-0.35 -0.45,-0.35 -0.42,-0.35 -0.4,-0.36 -0.38,-0.36 -0.36,-0.36 -0.33,-0.37 -0.32,-0.36 -0.29,-0.37 -0.28,-0.36 -0.25,-0.36 -0.24,-0.36 -0.22,-0.36 -0.21,-0.35 -0.18,-0.35 -0.17,-0.34 -0.16,-0.34 -0.14,-0.33 -0.13,-0.32 -0.11,-0.32 -0.1,-0.3 -0.09,-0.3 -0.07,-0.28 -0.07,-0.28 -0.05,-0.26 -0.05,-0.25 -0.03,-0.24 -0.03,-0.22 -0.02,-0.21 -0.01,-0.19 0,-0.17 c 0,-2.39 1.34,-3.8 1.45,-3.94 1.6,-1.66 2.05,-1.84 5.78,-3.25 l 6.02,-2.33 c 0.75,-0.36 1.75,-0.7 1.75,-2.16 0,-1.14 -0.89,-2.64 -2.44,-2.64 -2.18,0 -3.84,1.21 -4.39,1.61 -0.29,0.19 -0.34,0.24 -0.54,0.24 -0.4,0 -0.5,-0.35 -0.5,-0.55 0,-0.59 2.64,-2.39 5.43,-2.39 3.1,0 5.17,2.89 5.17,5.34 0,2.39 -1.84,3.29 -2.39,3.54 -0.68,0.25 -2.39,0.89 -3.03,1.14 -1,0.4 -2,0.79 -3.04,1.15 l -2.99,1.19 c -2.23,0.91 -3.73,2.34 -3.73,4.44 0,2.04 1.93,6.37 6.12,8.47 1.85,-0.66 3.35,-0.66 4.39,-0.66 1.49,0 4.63,0 4.63,1.55 0,1.25 -2.14,1.34 -4.08,1.34 l -0.05,-1.09 c 1.74,0 1.94,-0.05 2.83,-0.3 -0.39,-0.2 -0.89,-0.39 -3.19,-0.39 -1.14,0 -1.59,0 -2.48,0.39 h 0 c 1.14,0.3 2.23,0.3 2.84,0.3 l 0.05,1.09 c -0.91,0 -2.34,0 -4.19,-0.59 -1.29,1.29 -1.5,2.93 -1.5,3.89 0,2.78 1.8,6.62 5.53,8.47 0.91,-1.1 2.05,-1.1 3.19,-1.1 l 0.06,1.1 c -0.95,0 -1.54,0 -2.09,0.45 h 0 c 0.8,0.25 1.84,0.25 2.39,0.25 1.69,0 1.89,-0.06 2.78,-0.31 -0.39,-0.14 -0.89,-0.39 -3.08,-0.39 l -0.06,-1.1 c 1.25,0 4.44,0 4.44,1.55 0,1.3 -2.19,1.34 -4.14,1.34 -0.64,0 -1.85,0 -3.13,-0.25 -0.15,0.44 -0.25,0.8 -0.25,1.64 0,0.71 0.25,1.75 0.25,1.85 0,0.39 -0.25,0.64 -0.61,0.64 -0.89,0 -0.89,-2.28 -0.89,-2.44 0,-1 0.3,-1.73 0.35,-1.94 -5.33,-1.5 -8.72,-5.48 -8.72,-9.31 0,-1.84 0.9,-3.94 3.23,-5.28 z"
           id="path5102" /><path
           style="fill:#000000;stroke-width:0"
           inkscape:connector-curvature="0"
           d="m 484.53,402.95 -0.11,-0.18 -0.12,-0.16 -0.11,-0.17 -0.11,-0.15 -0.12,-0.16 -0.11,-0.14 -0.11,-0.14 -0.12,-0.14 -0.12,-0.13 -0.11,-0.12 -0.12,-0.12 -0.12,-0.11 -0.12,-0.11 -0.12,-0.11 -0.13,-0.09 -0.13,-0.1 -0.13,-0.08 -0.13,-0.09 -0.14,-0.07 -0.14,-0.08 -0.14,-0.06 -0.14,-0.07 -0.15,-0.05 -0.15,-0.06 -0.16,-0.04 -0.16,-0.05 -0.17,-0.04 -0.17,-0.03 -0.17,-0.03 -0.18,-0.02 -0.19,-0.02 -0.19,-0.02 c -0.34,-0.03 -0.8,-0.03 -0.8,-0.73 0,-0.38 0.32,-0.52 0.49,-0.52 0.9,0 2.06,0.14 3,0.14 1.11,0 2.55,-0.14 3.59,-0.14 0.17,0 0.69,0 0.69,0.77 0,0.45 -0.45,0.48 -0.58,0.48 -0.28,0.05 -1.55,0.11 -1.55,1.05 0,0.42 0.36,1.01 0.54,1.33 l 2.78,4.31 h 9.97 l -0.18,1.26 h -8.95 l 7.31,11.4 1.64,-11.4 0.18,-1.26 0.84,-5.78 c -0.14,-0.35 -0.36,-0.91 -2.41,-0.91 -0.42,0 -0.9,0 -0.9,-0.76 0,-0.14 0.09,-0.49 0.54,-0.49 1.02,0 3.49,0.14 4.5,0.14 0.63,0 1.43,-0.03 2.07,-0.03 0.62,-0.05 1.36,-0.11 1.98,-0.11 0.45,0 0.69,0.28 0.69,0.74 0,0.51 -0.41,0.51 -0.97,0.51 -2.02,0 -2.09,0.28 -2.2,1.13 l -3.07,21.5 c -0.11,0.72 -0.17,0.97 -0.82,0.97 -0.68,0 -0.88,-0.32 -1.19,-0.8 z"
           id="path5104" /><path
           style="fill:#000000;stroke-width:0"
           inkscape:connector-curvature="0"
           d="m 557.3,431.01 0.06,0.03 0.06,0.03 0.05,0.02 0.05,0.03 0.05,0.03 0.05,0.03 0.05,0.02 0.04,0.03 0.04,0.03 0.05,0.03 0.04,0.03 0.03,0.02 0.04,0.03 0.04,0.03 0.03,0.03 0.03,0.04 0.03,0.03 0.03,0.03 0.02,0.03 0.03,0.04 0.02,0.03 0.02,0.04 0.02,0.04 0.01,0.04 0.02,0.04 0.01,0.04 0.01,0.04 0.01,0.04 0.01,0.05 0,0.05 0.01,0.04 0,0.06 c 0,0.54 -0.46,1 -1,1 -0.14,0 -0.25,0 -0.89,-0.35 l -27.61,-13.01 c -0.55,-0.25 -0.94,-0.5 -0.94,-1.1 0,-0.59 0.39,-0.84 0.94,-1.09 l 27.61,-13 c 0.64,-0.36 0.75,-0.36 0.89,-0.36 0.54,0 1,0.45 1,1 0,0.55 -0.35,0.8 -0.96,1.09 l -26.15,12.36 z"
           id="path5106" /><path
           style="fill:#000000;stroke-width:0"
           inkscape:connector-curvature="0"
           d="m 590.88,438.09 0,0.05 0,0.06 0,0.05 0,0.05 0,0.05 0,0.05 0,0.04 0,0.05 0,0.04 -0.01,0.04 0,0.04 0,0.04 0,0.04 0,0.03 -0.01,0.04 0,0.03 -0.01,0.07 -0.01,0.06 -0.01,0.05 -0.01,0.05 -0.02,0.05 -0.02,0.04 -0.02,0.04 -0.02,0.03 -0.03,0.03 -0.03,0.03 -0.04,0.03 -0.04,0.02 -0.04,0.02 -0.03,0.01 -0.02,0.01 -0.03,0 -0.02,0.01 -0.03,0.01 -0.03,0 -0.03,0.01 -0.04,0 -0.03,0.01 -0.03,0 -0.04,0 -0.04,0.01 -0.04,0 -0.04,0 -0.04,0 -0.04,0 -0.04,0 -0.05,0.01 -0.05,0 -0.05,0 -0.05,0 -0.05,0 c -3.09,-3.19 -7.47,-3.19 -9.06,-3.19 v -1.55 c 1,0 3.93,0 6.51,1.3 v -25.81 c 0,-1.8 -0.14,-2.39 -4.62,-2.39 h -1.6 v -1.55 c 1.75,0.16 6.08,0.16 8.06,0.16 2,0 6.33,0 8.08,-0.16 v 1.55 h -1.59 c -4.49,0 -4.64,0.54 -4.64,2.39 z"
           id="path5108" /></g>    </g>
    <g
       id="g5400"
       transform="translate(-622.72268,509.19212)">
      <g
         word-spacing="normal"
         letter-spacing="normal"
         font-size-adjust="none"
         font-stretch="normal"
         font-weight="normal"
         font-variant="normal"
         font-style="normal"
         stroke-miterlimit="10.433"
         xml:space="preserve"
         transform="matrix(1.2368751,0,0,-1.2368751,-216.45314,792.33758)"
         id="g5402"
         style="font-style:normal;font-variant:normal;font-weight:normal;font-stretch:normal;letter-spacing:normal;word-spacing:normal;text-anchor:start;fill:none;stroke:#000000;stroke-linecap:butt;stroke-linejoin:miter;stroke-miterlimit:10.43299961;stroke-opacity:1;stroke-dasharray:none;stroke-dashoffset:0"><path
           id="path5404"
           d="m 463.19,421.45 -0.5,-0.34 -0.47,-0.35 -0.45,-0.35 -0.42,-0.35 -0.4,-0.36 -0.38,-0.36 -0.36,-0.36 -0.33,-0.37 -0.32,-0.36 -0.29,-0.37 -0.28,-0.36 -0.25,-0.36 -0.24,-0.36 -0.22,-0.36 -0.21,-0.35 -0.18,-0.35 -0.17,-0.34 -0.16,-0.34 -0.14,-0.33 -0.13,-0.32 -0.11,-0.32 -0.1,-0.3 -0.09,-0.3 -0.07,-0.28 -0.07,-0.28 -0.05,-0.26 -0.05,-0.25 -0.03,-0.24 -0.03,-0.22 -0.02,-0.21 -0.01,-0.19 0,-0.17 c 0,-2.39 1.34,-3.8 1.45,-3.94 1.6,-1.66 2.05,-1.84 5.78,-3.25 l 6.02,-2.33 c 0.75,-0.36 1.75,-0.7 1.75,-2.16 0,-1.14 -0.89,-2.64 -2.44,-2.64 -2.18,0 -3.84,1.21 -4.39,1.61 -0.29,0.19 -0.34,0.24 -0.54,0.24 -0.4,0 -0.5,-0.35 -0.5,-0.55 0,-0.59 2.64,-2.39 5.43,-2.39 3.1,0 5.17,2.89 5.17,5.34 0,2.39 -1.84,3.29 -2.39,3.54 -0.68,0.25 -2.39,0.89 -3.03,1.14 -1,0.4 -2,0.79 -3.04,1.15 l -2.99,1.19 c -2.23,0.91 -3.73,2.34 -3.73,4.44 0,2.04 1.93,6.37 6.12,8.47 1.85,-0.66 3.35,-0.66 4.39,-0.66 1.49,0 4.63,0 4.63,1.55 0,1.25 -2.14,1.34 -4.08,1.34 l -0.05,-1.09 c 1.74,0 1.94,-0.05 2.83,-0.3 -0.39,-0.2 -0.89,-0.39 -3.19,-0.39 -1.14,0 -1.59,0 -2.48,0.39 h 0 c 1.14,0.3 2.23,0.3 2.84,0.3 l 0.05,1.09 c -0.91,0 -2.34,0 -4.19,-0.59 -1.29,1.29 -1.5,2.93 -1.5,3.89 0,2.78 1.8,6.62 5.53,8.47 0.91,-1.1 2.05,-1.1 3.19,-1.1 l 0.06,1.1 c -0.95,0 -1.54,0 -2.09,0.45 h 0 c 0.8,0.25 1.84,0.25 2.39,0.25 1.69,0 1.89,-0.06 2.78,-0.31 -0.39,-0.14 -0.89,-0.39 -3.08,-0.39 l -0.06,-1.1 c 1.25,0 4.44,0 4.44,1.55 0,1.3 -2.19,1.34 -4.14,1.34 -0.64,0 -1.85,0 -3.13,-0.25 -0.15,0.44 -0.25,0.8 -0.25,1.64 0,0.71 0.25,1.75 0.25,1.85 0,0.39 -0.25,0.64 -0.61,0.64 -0.89,0 -0.89,-2.28 -0.89,-2.44 0,-1 0.3,-1.73 0.35,-1.94 -5.33,-1.5 -8.72,-5.48 -8.72,-9.31 0,-1.84 0.9,-3.94 3.23,-5.28 z"
           inkscape:connector-curvature="0"
           style="fill:#000000;stroke-width:0" /><path
           id="path5406"
           d="m 489.23,409.56 0.15,1.12 2.37,9.44 c 0.28,1.08 0.31,1.19 1.78,1.19 h 4.08 c 3.23,0 5.25,-0.99 5.25,-3.45 0,-1.08 -0.41,-3.83 -2.16,-5.41 -1.25,-1.11 -3.23,-1.77 -5.75,-1.77 h -5.57 l -0.15,-1.12 h 6.32 c 5.89,0 10.87,3.76 10.87,7.56 0,2.94 -2.86,5.44 -7.64,5.44 h -12.19 c -0.7,0 -1.11,0 -1.11,-0.77 0,-0.48 0.38,-0.48 1.14,-0.48 0.57,0 0.71,0 1.33,-0.08 0.71,-0.06 0.77,-0.14 0.77,-0.48 0,-0.07 0,-0.24 -0.14,-0.77 l -4.6,-18.36 c -0.36,-1.36 -0.39,-1.61 -3.1,-1.61 -0.63,0 -1.05,0 -1.05,-0.76 0,-0.04 0,-0.49 0.56,-0.49 1.02,0 3.52,0.14 4.53,0.14 0.6,0 1.81,0 2.41,-0.03 0.69,-0.05 1.56,-0.11 2.23,-0.11 0.21,0 0.72,0 0.72,0.77 0,0.48 -0.4,0.48 -1.11,0.48 -0.03,0 -0.7,0 -1.33,0.08 -0.79,0.06 -0.79,0.17 -0.79,0.52 0,0.03 0,0.25 0.14,0.76 z"
           inkscape:connector-curvature="0"
           style="fill:#000000;stroke-width:0" /><path
           id="path5408"
           d="m 558.63,422.5 0.14,0 0.15,0 0.14,0 0.07,0.01 0.08,0 0.07,0.01 0.07,0.01 0.07,0.01 0.07,0.01 0.07,0.01 0.06,0.02 0.07,0.02 0.06,0.02 0.06,0.02 0.06,0.03 0.06,0.03 0.05,0.04 0.05,0.03 0.05,0.05 0.04,0.04 0.04,0.05 0.02,0.03 0.02,0.03 0.01,0.02 0.02,0.03 0.01,0.03 0.01,0.04 0.02,0.03 0.01,0.04 0.01,0.03 0.01,0.04 0,0.04 0.01,0.04 0,0.04 0.01,0.04 0,0.04 0,0.05 c 0,1 -0.95,1 -1.64,1 h -29.84 c -0.71,0 -1.64,0 -1.64,-1 0,-0.98 0.93,-0.98 1.68,-0.98 z"
           inkscape:connector-curvature="0"
           style="fill:#000000;stroke-width:0" /><path
           id="path5410"
           d="m 558.68,412.82 0.07,0 0.06,0 0.14,0.01 0.14,0 0.07,0 0.07,0.01 0.07,0.01 0.06,0 0.07,0.01 0.07,0.02 0.07,0.01 0.06,0.02 0.07,0.02 0.06,0.02 0.06,0.02 0.05,0.03 0.06,0.03 0.05,0.04 0.05,0.04 0.05,0.04 0.04,0.05 0.02,0.02 0.02,0.03 0.02,0.02 0.02,0.03 0.01,0.03 0.02,0.03 0.01,0.03 0.01,0.03 0.02,0.04 0.01,0.03 0.01,0.04 0.01,0.04 0,0.04 0.01,0.04 0,0.04 0.01,0.04 0,0.05 0,0.04 c 0,1 -0.95,1 -1.69,1 h -29.75 c -0.75,0 -1.68,0 -1.68,-1 0,-1 0.93,-1 1.64,-1 z"
           inkscape:connector-curvature="0"
           style="fill:#000000;stroke-width:0" /><path
           id="path5412"
           d="m 591.6,438.09 0,0.05 0,0.06 0,0.05 0,0.05 0,0.05 0,0.05 0,0.04 0,0.05 -0.01,0.04 0,0.04 0,0.04 0,0.04 0,0.04 0,0.03 -0.01,0.04 0,0.03 -0.01,0.07 -0.01,0.06 -0.01,0.05 -0.01,0.05 -0.02,0.05 -0.02,0.04 -0.02,0.04 -0.02,0.03 -0.03,0.03 -0.04,0.03 -0.03,0.03 -0.04,0.02 -0.04,0.02 -0.03,0.01 -0.02,0.01 -0.03,0 -0.03,0.01 -0.02,0.01 -0.03,0 -0.03,0.01 -0.04,0 -0.03,0.01 -0.03,0 -0.04,0 -0.04,0.01 -0.04,0 -0.04,0 -0.04,0 -0.04,0 -0.05,0 -0.04,0.01 -0.05,0 -0.05,0 -0.05,0 -0.05,0 c -3.1,-3.19 -7.47,-3.19 -9.06,-3.19 v -1.55 c 1,0 3.93,0 6.51,1.3 v -25.81 c 0,-1.8 -0.14,-2.39 -4.63,-2.39 h -1.59 v -1.55 c 1.75,0.16 6.08,0.16 8.06,0.16 2,0 6.33,0 8.08,-0.16 v 1.55 h -1.59 c -4.49,0 -4.64,0.54 -4.64,2.39 z"
           inkscape:connector-curvature="0"
           style="fill:#000000;stroke-width:0" /></g>    </g>
  </g>
</svg>
