<?xml version="1.0" encoding="UTF-8" standalone="no"?>
<!-- Created with Inkscape (http://www.inkscape.org/) -->

<svg
   xmlns:dc="http://purl.org/dc/elements/1.1/"
   xmlns:cc="http://creativecommons.org/ns#"
   xmlns:rdf="http://www.w3.org/1999/02/22-rdf-syntax-ns#"
   xmlns:svg="http://www.w3.org/2000/svg"
   xmlns="http://www.w3.org/2000/svg"
   xmlns:sodipodi="http://sodipodi.sourceforge.net/DTD/sodipodi-0.dtd"
   xmlns:inkscape="http://www.inkscape.org/namespaces/inkscape"
   width="704.00995"
   height="219.83466"
   id="svg2"
   version="1.1"
   inkscape:version="0.48.3.1 r9886"
   sodipodi:docname="01_autocorrelation.svg">
  <sodipodi:namedview
     id="base"
     pagecolor="#ffffff"
     bordercolor="#666666"
     borderopacity="1.0"
     inkscape:pageopacity="0.0"
     inkscape:pageshadow="2"
     inkscape:zoom="0.24748737"
     inkscape:cx="-398.34944"
     inkscape:cy="137.73724"
     inkscape:document-units="px"
     inkscape:current-layer="g3645"
     showgrid="false"
     inkscape:window-width="1276"
     inkscape:window-height="777"
     inkscape:window-x="0"
     inkscape:window-y="19"
     inkscape:window-maximized="0"
     fit-margin-top="0"
     fit-margin-left="0"
     fit-margin-right="0"
     fit-margin-bottom="0" />
  <defs
     id="defs4">
    <marker
       inkscape:stockid="Arrow1Lend"
       orient="auto"
       refY="0"
       refX="0"
       id="Arrow1Lend"
       style="overflow:visible">
      <path
         id="path4588"
         d="M 0,0 5,-5 -12.5,0 5,5 0,0 z"
         style="fill-rule:evenodd;stroke:#000000;stroke-width:1pt"
         transform="matrix(-0.8,0,0,-0.8,-10,0)"
         inkscape:connector-curvature="0" />
    </marker>
  </defs>
  <metadata
     id="metadata7">
    <rdf:RDF>
      <cc:Work
         rdf:about="">
        <dc:format>image/svg+xml</dc:format>
        <dc:type
           rdf:resource="http://purl.org/dc/dcmitype/StillImage" />
        <dc:title />
      </cc:Work>
    </rdf:RDF>
  </metadata>
  <g
     inkscape:label="Layer 1"
     inkscape:groupmode="layer"
     id="layer1"
     transform="translate(-18.407751,-133.56861)">
    <g
       id="g3221"
       transform="translate(-745.71429,437.14286)">
      <g
         id="g3645"
         transform="matrix(0.88799044,0,0,0.88799044,351.76148,-259.06373)">
        <path
           transform="translate(745.71429,-437.14286)"
           style="font-style:normal;font-variant:normal;font-weight:normal;font-stretch:normal;letter-spacing:normal;word-spacing:normal;text-anchor:start;fill:#000000;stroke:#000000;stroke-width:0;stroke-linecap:butt;stroke-linejoin:miter;stroke-miterlimit:10.43299961;stroke-opacity:1;stroke-dasharray:none;stroke-dashoffset:0"
           inkscape:connector-curvature="0"
           id="path3067"
           d="m 314.45904,594.94677 -14.56812,17.99203 c -0.32921,0.41154 -0.32921,0.50207 -0.32921,0.65845 0,0.46092 0.32921,0.46092 1.06997,0.46092 h 33.99226 l 3.53915,-10.21415 h -0.98768 c -1.06996,3.07824 -3.78606,5.57211 -7.32519,6.76553 -0.65845,0.20577 -3.45685,1.18521 -9.46516,1.18521 h -17.44882 l 14.23889,-17.59697 c 0.24691,-0.35391 0.41153,-0.4856 0.41153,-0.65022 0,-0.15637 -0.0823,-0.20576 -0.32922,-0.56791 L 303.9239,574.69134 h 16.21424 c 4.69142,0 14.15658,0.27984 17.03727,7.95073 h 0.98768 l -3.53915,-9.59684 h -33.99226 c -1.06997,0 -1.15228,0.0411 -1.15228,1.30865 z" />
        <path
           id="path3225"
           d="m 477.23209,140.3547 0,-0.007 0,-0.007 0,0 0,-0.007 0,-0.007 0,-0.007 0,0 0,-0.007 0.007,-0.0133 0,-0.0199 0,-0.0133 0.007,-0.0133 0.007,-0.0199 0,-0.0199 0.007,-0.0133 0,-0.0199 0.007,-0.0199 0.007,-0.0199 0.007,-0.0398 0.0133,-0.0397 0,-0.0199 0.007,-0.0133 0.007,-0.0199 0,-0.0199 0.007,-0.0133 0.007,-0.0133 0,-0.0133 0.007,-0.0133 0,-0.007 0,-0.007 0,-0.007 0,-0.007 0.007,0 0,-0.007 0,-0.007 0,0 0,-0.007 0,0 0,0 0,-0.007 c 0,-0.0265 0,-0.33118 -0.3908,-0.33118 -0.33117,0 -0.36429,0.10598 -0.49676,0.66235 l -1.9142,7.61705 c -5.24583,0.16559 -10.10087,4.55699 -10.10087,9.04774 0,3.13293 2.30498,5.74259 6.33209,5.96779 l 0.16558,-0.72196 c -1.9738,-0.0927 -4.35827,-1.25185 -4.35827,-4.55036 0,-3.9675 2.84811,-8.58409 7.76277,-9.008 l -3.4045,13.55836 -0.16558,0.72196 c -0.25832,1.02665 -0.48352,2.08641 -0.75508,3.10644 -0.39079,1.55652 -0.72197,2.80837 -0.72197,2.90772 0,0.32455 0.2252,0.3643 0.39079,0.3643 0.16559,0 0.23845,-0.0398 0.33118,-0.13248 0.0596,-0.0662 0.27156,-0.86105 0.36429,-1.3247 l 1.25185,-4.92128 0.16558,-0.72196 3.40449,-13.55836 c 2.5037,0.12585 4.38478,1.64926 4.38478,4.55699 0,3.88801 -2.83487,8.61058 -7.78927,9.00137 l -0.16558,0.72196 c 5.31868,-0.16558 10.10087,-4.60997 10.10087,-9.03448 0,-2.60305 -1.74861,-5.64987 -6.33871,-5.98105 z"
           inkscape:connector-curvature="0"
           style="font-style:normal;font-variant:normal;font-weight:normal;font-stretch:normal;letter-spacing:normal;word-spacing:normal;text-anchor:start;fill:#000000;stroke:#000000;stroke-width:0;stroke-linecap:butt;stroke-linejoin:miter;stroke-miterlimit:10.43299961;stroke-opacity:1;stroke-dasharray:none;stroke-dashoffset:0" />
        <path
           id="path3227"
           d="m 488.1874,164.94122 -0.0199,0.0729 -0.0265,0.0795 -0.0331,0.0795 -0.0265,0.0795 -0.0398,0.0795 -0.0398,0.0861 -0.0397,0.0861 -0.0464,0.0795 -0.0464,0.0861 -0.0464,0.0861 -0.053,0.0861 -0.0596,0.0795 -0.0596,0.0861 -0.0596,0.0795 -0.0662,0.0795 -0.0662,0.0795 -0.0662,0.0795 -0.0729,0.0729 -0.0795,0.0662 -0.0795,0.0662 -0.0795,0.0662 -0.0795,0.0596 -0.0861,0.053 -0.0927,0.053 -0.0861,0.0464 -0.0994,0.0398 -0.0927,0.0332 -0.0994,0.0331 -0.0994,0.0265 -0.10598,0.0133 -0.10598,0.0133 -0.10597,0 c -0.0729,0 -0.76833,0 -1.25185,-0.31793 0.94717,-0.29806 1.0134,-1.13925 1.0134,-1.27172 0,-0.51001 -0.39741,-0.86106 -0.92067,-0.86106 -0.64248,0 -1.31808,0.55638 -1.31808,1.41744 0,1.15249 1.29821,1.67575 2.42421,1.67575 1.06639,0 2.00693,-0.66235 2.58317,-1.63601 0.54976,1.22535 1.82147,1.63601 2.74877,1.63601 2.65603,0 4.06684,-2.87461 4.06684,-3.53034 0,-0.29806 -0.30468,-0.29806 -0.37754,-0.29806 -0.31793,0 -0.3378,0.1126 -0.43053,0.39079 -0.49014,1.59627 -1.87445,2.79513 -3.16604,2.79513 -0.92067,0 -1.41081,-0.61599 -1.41081,-1.49692 0,-0.60274 0.55637,-2.70239 1.19885,-5.27232 0.47028,-1.76848 1.50355,-2.34473 2.27187,-2.34473 0.0398,0 0.75509,0 1.2386,0.31793 -0.73521,0.20533 -1.0134,0.86106 -1.0134,1.27171 0,0.51002 0.39079,0.85444 0.92067,0.85444 0.53651,0 1.29159,-0.43715 1.29159,-1.41081 0,-1.29159 -1.47705,-1.67575 -2.39771,-1.67575 -1.1525,0 -2.07979,0.75508 -2.5898,1.63601 -0.41066,-0.95379 -1.47043,-1.63601 -2.76201,-1.63601 -2.5898,0 -4.06684,2.83487 -4.06684,3.53033 0,0.29807 0.33117,0.29807 0.39078,0.29807 0.30468,0 0.32455,-0.0927 0.44378,-0.3908 0.56962,-1.80159 2.03342,-2.79512 3.15942,-2.79512 0.76833,0 1.38431,0.41066 1.38431,1.51679 0,0.47027 -0.27818,1.61614 -0.48351,2.40434 z"
           inkscape:connector-curvature="0"
           style="font-style:normal;font-variant:normal;font-weight:normal;font-stretch:normal;letter-spacing:normal;word-spacing:normal;text-anchor:start;fill:#000000;stroke:#000000;stroke-width:0;stroke-linecap:butt;stroke-linejoin:miter;stroke-miterlimit:10.43299961;stroke-opacity:1;stroke-dasharray:none;stroke-dashoffset:0" />
        <path
           id="path3229"
           d="m 503.13006,164.94122 -0.0199,0.0729 -0.0265,0.0795 -0.0331,0.0795 -0.0332,0.0795 -0.0331,0.0795 -0.0398,0.0861 -0.0398,0.0861 -0.0464,0.0795 -0.0464,0.0861 -0.0464,0.0861 -0.053,0.0861 -0.0596,0.0795 -0.0596,0.0861 -0.0596,0.0795 -0.0662,0.0795 -0.0662,0.0795 -0.0662,0.0795 -0.0729,0.0729 -0.0795,0.0662 -0.0795,0.0662 -0.0795,0.0662 -0.0795,0.0596 -0.0861,0.053 -0.0927,0.053 -0.0927,0.0464 -0.0927,0.0398 -0.0927,0.0332 -0.0994,0.0331 -0.0994,0.0265 -0.10597,0.0133 -0.10598,0.0133 -0.1126,0 c -0.0662,0 -0.7617,0 -1.25185,-0.31793 0.95379,-0.29806 1.02003,-1.13925 1.02003,-1.27172 0,-0.51001 -0.39742,-0.86106 -0.92067,-0.86106 -0.64248,0 -1.31808,0.55638 -1.31808,1.41744 0,1.15249 1.29158,1.67575 2.42421,1.67575 1.06638,0 2.00692,-0.66235 2.58317,-1.63601 0.54975,1.22535 1.82147,1.63601 2.74214,1.63601 2.66265,0 4.06684,-2.87461 4.06684,-3.53034 0,-0.29806 -0.29805,-0.29806 -0.37091,-0.29806 -0.31794,0 -0.33781,0.1126 -0.43054,0.39079 -0.49013,1.59627 -1.87445,2.79513 -3.17266,2.79513 -0.92067,0 -1.40419,-0.61599 -1.40419,-1.49692 0,-0.60274 0.55638,-2.70239 1.19886,-5.27232 0.46365,-1.76848 1.50354,-2.34473 2.26525,-2.34473 0.0463,0 0.75508,0 1.24521,0.31793 -0.73521,0.20533 -1.0134,0.86106 -1.0134,1.27171 0,0.51002 0.3908,0.85444 0.92067,0.85444 0.53651,0 1.2916,-0.43715 1.2916,-1.41081 0,-1.29159 -1.47705,-1.67575 -2.39772,-1.67575 -1.15249,0 -2.07979,0.75508 -2.5898,1.63601 -0.41066,-0.95379 -1.47042,-1.63601 -2.76201,-1.63601 -2.5898,0 -4.06684,2.83487 -4.06684,3.53033 0,0.29807 0.33118,0.29807 0.39078,0.29807 0.29806,0 0.32456,-0.0927 0.44378,-0.3908 0.56962,-1.80159 2.03343,-2.79512 3.15942,-2.79512 0.76833,0 1.38432,0.41066 1.38432,1.51679 0,0.47027 -0.27819,1.61614 -0.48352,2.40434 z"
           inkscape:connector-curvature="0"
           style="font-style:normal;font-variant:normal;font-weight:normal;font-stretch:normal;letter-spacing:normal;word-spacing:normal;text-anchor:start;fill:#000000;stroke:#000000;stroke-width:0;stroke-linecap:butt;stroke-linejoin:miter;stroke-miterlimit:10.43299961;stroke-opacity:1;stroke-dasharray:none;stroke-dashoffset:0" />
        <path
           id="path3231"
           d="m 525.00094,170.3725 0,-0.0133 -0.007,-0.0199 0,-0.007 0,-0.0133 0,-0.007 -0.007,-0.0133 0,-0.007 -0.007,-0.0133 -0.007,-0.0133 -0.007,-0.0133 -0.007,-0.0133 -0.007,-0.0199 -0.0133,-0.0133 -0.0133,-0.0199 -0.0133,-0.0199 -0.0133,-0.0199 -0.0199,-0.0199 -0.0199,-0.0265 -0.0133,-0.0133 -0.007,-0.0133 -0.0133,-0.0133 -0.0133,-0.0133 -0.0133,-0.0133 -0.0133,-0.0199 -0.0133,-0.0133 -0.0133,-0.0133 -0.0133,-0.0199 -0.0199,-0.0133 -0.0133,-0.0199 -0.0199,-0.0199 -0.0133,-0.0199 -0.0199,-0.0199 -0.0199,-0.0199 -0.0199,-0.0199 -0.0199,-0.0199 -0.0199,-0.0199 -0.0265,-0.0265 -0.0199,-0.0199 -0.0199,-0.0265 -0.0265,-0.0199 -0.0265,-0.0265 -0.0265,-0.0265 c -4.11983,-4.15957 -5.17298,-10.3923 -5.17298,-15.43943 0,-5.74259 1.25185,-11.49182 5.31206,-15.60502 0.42391,-0.40403 0.42391,-0.47027 0.42391,-0.56962 0,-0.23183 -0.12584,-0.32456 -0.32455,-0.32456 -0.33117,0 -3.29852,2.23876 -5.24583,6.42482 -1.689,3.63631 -2.07979,7.29912 -2.07979,10.07438 0,2.57655 0.3643,6.55729 2.17252,10.29295 1.97381,4.06023 4.82193,6.19962 5.1531,6.19962 0.19871,0 0.32455,-0.0927 0.32455,-0.33118 z"
           inkscape:connector-curvature="0"
           style="font-style:normal;font-variant:normal;font-weight:normal;font-stretch:normal;letter-spacing:normal;word-spacing:normal;text-anchor:start;fill:#000000;stroke:#000000;stroke-width:0;stroke-linecap:butt;stroke-linejoin:miter;stroke-miterlimit:10.43299961;stroke-opacity:1;stroke-dasharray:none;stroke-dashoffset:0" />
        <path
           id="path3233"
           d="m 543.89785,139.91755 0,0 0,-0.007 0,0 0,-0.007 0,-0.0133 0,-0.007 0,-0.0133 -0.007,-0.0133 0,-0.0133 0,-0.0133 -0.007,-0.0133 -0.007,-0.0133 0,-0.0133 -0.007,-0.0199 -0.007,-0.0133 -0.007,-0.0199 -0.0133,-0.0133 -0.007,-0.0199 -0.0133,-0.0133 -0.0133,-0.0133 -0.0199,-0.0199 -0.007,-0.007 -0.007,-0.007 -0.007,-0.007 -0.0133,-0.007 -0.007,-0.007 -0.0133,-0.007 -0.007,-0.007 -0.0133,-0.007 -0.0133,-0.007 -0.007,-0.007 -0.0133,0 -0.0133,-0.007 -0.0133,-0.007 -0.0133,0 -0.0199,-0.007 -0.0133,-0.007 -0.0133,0 -0.0199,0 -0.0133,-0.007 -0.0199,0 -0.0133,0 -0.0199,-0.007 -0.0199,0 -0.0199,0 c -0.49676,0 -3.62969,0.30469 -4.19269,0.3643 -0.26494,0.0332 -0.46365,0.19871 -0.46365,0.62923 0,0.39742 0.29806,0.39742 0.79483,0.39742 1.58302,0 1.64926,0.22519 1.64926,0.55637 l -0.0927,0.66235 -1.98706,7.82238 c -0.58949,-1.21873 -1.55653,-2.10628 -3.03357,-2.10628 l 0.0265,0.72196 c 2.14602,0 2.60967,2.7024 2.60967,2.89449 0,0.21195 -0.0596,0.40403 -0.0927,0.56962 l -1.65588,6.47118 c -0.16559,0.58949 -0.16559,0.64911 -0.66236,1.21873 -1.44393,1.81484 -2.80175,2.3381 -3.72242,2.3381 -1.64925,0 -2.1129,-1.80822 -2.1129,-3.09981 0,-1.64925 1.05314,-5.70285 1.80822,-7.22626 1.02665,-1.94732 2.51694,-3.16605 3.8284,-3.16605 l -0.0265,-0.72196 c -3.86152,0 -7.94823,4.8418 -7.94823,9.66372 0,3.10643 1.80822,5.27895 4.38477,5.27895 0.65573,0 2.31161,-0.13909 4.28542,-2.4772 0.27156,1.39094 1.41743,2.4772 3.00045,2.4772 1.15912,0 1.9142,-0.75508 2.44408,-1.81484 0.56301,-1.18562 0.99353,-3.20579 0.99353,-3.2654 0,-0.33118 -0.29806,-0.33118 -0.39078,-0.33118 -0.33118,0 -0.3643,0.13247 -0.47027,0.59612 -0.55638,2.14602 -1.15912,4.08671 -2.5037,4.08671 -0.88755,0 -0.99353,-0.85443 -0.99353,-1.51679 0,-0.78819 0.0662,-1.02664 0.19871,-1.58302 z"
           inkscape:connector-curvature="0"
           style="font-style:normal;font-variant:normal;font-weight:normal;font-stretch:normal;letter-spacing:normal;word-spacing:normal;text-anchor:start;fill:#000000;stroke:#000000;stroke-width:0;stroke-linecap:butt;stroke-linejoin:miter;stroke-miterlimit:10.43299961;stroke-opacity:1;stroke-dasharray:none;stroke-dashoffset:0" />
        <path
           id="path3235"
           d="m 553.57482,154.21111 0,-0.24507 -0.007,-0.25832 -0.007,-0.25831 -0.007,-0.27157 -0.0265,-0.55638 -0.0397,-0.58287 -0.053,-0.60936 -0.0729,-0.62923 -0.0861,-0.64249 -0.1126,-0.66898 -0.12585,-0.67559 -0.15234,-0.68223 -0.17883,-0.69546 -0.20533,-0.7021 -0.23183,-0.70872 -0.25831,-0.70872 -0.1391,-0.35104 -0.15234,-0.35105 -0.15234,-0.35104 -0.16559,-0.35105 c -1.98043,-4.0536 -4.8153,-6.19962 -5.14647,-6.19962 -0.19871,0 -0.33118,0.12585 -0.33118,0.32455 0,0.0994 0,0.16559 0.62261,0.76171 3.2389,3.25877 5.11998,8.51123 5.11998,15.41294 0,5.63662 -1.21872,11.44545 -5.31868,15.60502 -0.42391,0.39079 -0.42391,0.46365 -0.42391,0.55637 0,0.19871 0.13247,0.33118 0.33118,0.33118 0.33117,0 3.29189,-2.24537 5.24582,-6.43144 1.67575,-3.62307 2.07317,-7.28588 2.07317,-10.06113 z"
           inkscape:connector-curvature="0"
           style="font-style:normal;font-variant:normal;font-weight:normal;font-stretch:normal;letter-spacing:normal;word-spacing:normal;text-anchor:start;fill:#000000;stroke:#000000;stroke-width:0;stroke-linecap:butt;stroke-linejoin:miter;stroke-miterlimit:10.43299961;stroke-opacity:1;stroke-dasharray:none;stroke-dashoffset:0" />
        <path
           id="path3237"
           d="m 588.72585,151.66105 0.0927,0 0.0994,0 0.0927,0 0.053,-0.007 0.0464,0 0.0464,-0.007 0.0464,-0.007 0.0464,-0.007 0.0464,-0.007 0.0464,-0.007 0.0464,-0.0133 0.0398,-0.0133 0.0398,-0.0133 0.0397,-0.0133 0.0398,-0.0199 0.0398,-0.0199 0.0331,-0.0265 0.0331,-0.0199 0.0331,-0.0331 0.0265,-0.0265 0.0265,-0.0331 0.0133,-0.0199 0.0133,-0.0199 0.007,-0.0133 0.0133,-0.0199 0.007,-0.0199 0.0133,-0.0265 0.007,-0.0199 0.007,-0.0265 0.007,-0.0199 0.007,-0.0265 0.007,-0.0265 0,-0.0265 0.007,-0.0265 0,-0.0265 0,-0.0265 0,-0.0331 c 0,-0.66236 -0.62924,-0.66236 -1.08626,-0.66236 h -19.76456 c -0.47026,0 -1.08625,0 -1.08625,0.66236 0,0.6491 0.61599,0.6491 1.11937,0.6491 z"
           inkscape:connector-curvature="0"
           style="font-style:normal;font-variant:normal;font-weight:normal;font-stretch:normal;letter-spacing:normal;word-spacing:normal;text-anchor:start;fill:#000000;stroke:#000000;stroke-width:0;stroke-linecap:butt;stroke-linejoin:miter;stroke-miterlimit:10.43299961;stroke-opacity:1;stroke-dasharray:none;stroke-dashoffset:0" />
        <path
           id="path3239"
           d="m 588.75897,158.07262 0.0464,0 0.0398,0 0.0927,-0.007 0.0927,0 0.0464,0 0.0464,-0.007 0.0464,-0.007 0.0464,0 0.0464,-0.007 0.0398,-0.0133 0.0464,-0.007 0.0398,-0.0133 0.0464,-0.0133 0.0398,-0.0133 0.0397,-0.0133 0.0398,-0.0199 0.0331,-0.0199 0.0331,-0.0265 0.0331,-0.0265 0.0331,-0.0265 0.0265,-0.0331 0.0133,-0.0133 0.0133,-0.0199 0.0133,-0.0133 0.0133,-0.0199 0.007,-0.0199 0.0133,-0.0199 0.007,-0.0199 0.0133,-0.0199 0.007,-0.0265 0.007,-0.0199 0.007,-0.0265 0.007,-0.0265 0.007,-0.0265 0,-0.0265 0.007,-0.0265 0,-0.0265 0,-0.0331 0,-0.0265 c 0,-0.66235 -0.62924,-0.66235 -1.11938,-0.66235 h -19.69836 c -0.50338,0 -1.11937,0 -1.11937,0.66235 0,0.66236 0.61599,0.66236 1.08625,0.66236 z"
           inkscape:connector-curvature="0"
           style="font-style:normal;font-variant:normal;font-weight:normal;font-stretch:normal;letter-spacing:normal;word-spacing:normal;text-anchor:start;fill:#000000;stroke:#000000;stroke-width:0;stroke-linecap:butt;stroke-linejoin:miter;stroke-miterlimit:10.43299961;stroke-opacity:1;stroke-dasharray:none;stroke-dashoffset:0" />
        <path
           id="path3241"
           d="m 624.23456,154.76748 0.007,-0.0133 0.007,-0.0199 0.0133,-0.0331 0.0133,-0.0331 0.0133,-0.0332 0.0133,-0.0332 0.0133,-0.0331 0.007,-0.0331 0.0133,-0.0332 0.007,-0.0199 0.007,-0.0133 0.007,-0.0133 0.007,-0.0199 0,-0.0133 0.007,-0.0133 0.007,-0.0133 0,-0.0133 0.007,-0.0133 0,-0.0133 0.007,-0.007 0,-0.0133 0,-0.0133 0,-0.007 0,-0.007 0.007,-0.007 c 0,-0.0331 0,-0.36429 -0.39741,-0.36429 -0.29806,0 -0.36429,0.1987 -0.4239,0.40403 -2.15265,4.88816 -3.36475,7.08717 -9.01462,7.08717 h -4.8153 c -0.46365,0 -0.52325,0 -0.72196,-0.0265 -0.33118,-0.0332 -0.43716,-0.0662 -0.43716,-0.33117 0,-0.0927 0,-0.16559 0.16559,-0.75509 l 2.252,-9.01461 h 3.2654 c 2.80837,0 2.80837,0.68884 2.80837,1.51678 0,0.23183 0,0.63586 -0.23845,1.61614 -0.0596,0.16559 -0.0927,0.27157 -0.0927,0.3643 0,0.16559 0.11922,0.36429 0.4239,0.36429 0.27157,0 0.35767,-0.16559 0.49676,-0.65573 l 1.88109,-7.72965 c 0,-0.1987 -0.16559,-0.36429 -0.40404,-0.36429 -0.29143,0 -0.35767,0.1987 -0.45702,0.60273 -0.68885,2.5037 -1.29159,3.25878 -4.32516,3.25878 h -3.09981 l 1.98706,-7.94823 c 0.28481,-1.15912 0.33117,-1.28496 1.7751,-1.28496 h 4.64971 c 4.0271,0 5.02063,0.95378 5.02063,3.66281 0,0.7882 0,0.85443 -0.13247,1.74861 0,0.1987 -0.0331,0.43052 -0.0331,0.59611 0,0.16559 0.0993,0.39079 0.39079,0.39079 0.37091,0 0.40403,-0.1987 0.47026,-0.82794 l 0.66235,-5.70285 c 0.0861,-0.88755 -0.0662,-0.88755 -0.89417,-0.88755 h -16.65816 c -0.66235,0 -0.99352,0 -0.99352,0.66235 0,0.35767 0.29805,0.35767 0.91404,0.35767 1.22535,0 2.14602,0 2.14602,0.58949 0,0.1391 0,0.19871 -0.16559,0.80145 l -4.34503,17.44636 c -0.33117,1.29158 -0.40403,1.5499 -3.0137,1.5499 -0.55637,0 -0.92067,0 -0.92067,0.63586 0,0.39079 0.29806,0.39079 0.92067,0.39079 h 17.12843 c 0.76833,0 0.79482,-0.0332 1.02664,-0.55637 z"
           inkscape:connector-curvature="0"
           style="font-style:normal;font-variant:normal;font-weight:normal;font-stretch:normal;letter-spacing:normal;word-spacing:normal;text-anchor:start;fill:#000000;stroke:#000000;stroke-width:0;stroke-linecap:butt;stroke-linejoin:miter;stroke-miterlimit:10.43299961;stroke-opacity:1;stroke-dasharray:none;stroke-dashoffset:0" />
        <polygon
           transform="matrix(0.6623523,0,0,-0.6623523,161.09796,431.5049)"
           id="polygon3243"
           points="716.25,443.56 709.42,443.56 709.42,393.75 716.25,393.75 716.25,395.73 711.42,395.73 711.42,441.57 716.25,441.57 "
           style="font-style:normal;font-variant:normal;font-weight:normal;font-stretch:normal;letter-spacing:normal;word-spacing:normal;text-anchor:start;fill:#000000;stroke:#000000;stroke-width:0;stroke-linecap:butt;stroke-linejoin:miter;stroke-miterlimit:10.43299961;stroke-opacity:1;stroke-dasharray:none;stroke-dashoffset:0" />
        <path
           id="path3245"
           d="m 647.2513,152.48899 0.0199,-0.0861 0.0265,-0.0994 0.0265,-0.10597 0.0331,-0.11923 0.0331,-0.12585 0.0398,-0.13908 0.0464,-0.14572 0.0464,-0.14572 0.053,-0.15234 0.0596,-0.15897 0.0596,-0.16558 0.0662,-0.15897 0.0795,-0.16559 0.0795,-0.16559 0.0795,-0.16559 0.0927,-0.16559 0.0994,-0.15896 0.10598,-0.15896 0.10598,-0.15234 0.11922,-0.14572 0.12584,-0.14572 0.13248,-0.13247 0.13247,-0.12584 0.15234,-0.11923 0.15234,-0.10597 0.15897,-0.0927 0.0861,-0.0464 0.0861,-0.0398 0.0861,-0.0332 0.0927,-0.0331 0.0927,-0.0332 0.0927,-0.0265 0.0927,-0.0199 0.0993,-0.0199 0.10598,-0.0133 0.0993,-0.0133 0.10598,-0.007 0.10597,0 c 0.16559,0 0.95379,0 1.64926,0.42391 -0.92067,0.16559 -1.58302,0.99353 -1.58302,1.78173 0,0.52326 0.35767,1.15911 1.25185,1.15911 0.72196,0 1.7751,-0.58949 1.7751,-1.91419 0,-1.72212 -1.94069,-2.17252 -3.06007,-2.17252 -1.9142,0 -3.07331,1.74861 -3.47073,2.50369 -0.82794,-2.17251 -2.60304,-2.50369 -3.55682,-2.50369 -3.43761,0 -5.3187,4.2523 -5.3187,5.08024 0,0.33118 0.33118,0.33118 0.40404,0.33118 0.25832,0 0.35767,-0.0729 0.42391,-0.3643 1.11937,-3.49722 3.29851,-4.32516 4.41789,-4.32516 0.62923,0 1.78173,0.29144 1.78173,2.20564 0,1.02002 -0.56301,3.2389 -1.78173,7.85549 -0.52989,2.04668 -1.67575,3.43099 -3.13293,3.43099 -0.19871,0 -0.95379,0 -1.64926,-0.43053 0.82794,-0.15896 1.55653,-0.84781 1.55653,-1.78172 0,-0.88756 -0.72859,-1.14588 -1.22535,-1.14588 -0.99353,0 -1.82147,0.85444 -1.82147,1.9142 0,1.51017 1.65588,2.17252 3.10643,2.17252 2.18576,0 3.36475,-2.31161 3.4641,-2.50369 0.39742,1.21873 1.58302,2.50369 3.56346,2.50369 3.40449,0 5.28557,-4.2523 5.28557,-5.08024 0,-0.33118 -0.29806,-0.33118 -0.40404,-0.33118 -0.2848,0 -0.35766,0.13247 -0.4239,0.35767 -1.08626,3.53034 -3.33163,4.32516 -4.38477,4.32516 -1.29821,0 -1.82147,-1.05314 -1.82147,-2.17914 0,-0.72858 0.19208,-1.45055 0.56962,-2.9011 z"
           inkscape:connector-curvature="0"
           style="font-style:normal;font-variant:normal;font-weight:normal;font-stretch:normal;letter-spacing:normal;word-spacing:normal;text-anchor:start;fill:#000000;stroke:#000000;stroke-width:0;stroke-linecap:butt;stroke-linejoin:miter;stroke-miterlimit:10.43299961;stroke-opacity:1;stroke-dasharray:none;stroke-dashoffset:0" />
        <path
           id="path3247"
           d="m 665.98925,170.3725 0,-0.0133 -0.007,-0.0199 0,-0.007 0,-0.0133 0,-0.007 -0.007,-0.0133 0,-0.007 -0.007,-0.0133 -0.007,-0.0133 -0.007,-0.0133 -0.007,-0.0133 -0.007,-0.0199 -0.0133,-0.0133 -0.0133,-0.0199 -0.0133,-0.0199 -0.0133,-0.0199 -0.0199,-0.0199 -0.0199,-0.0265 -0.0133,-0.0133 -0.007,-0.0133 -0.0133,-0.0133 -0.0133,-0.0133 -0.0133,-0.0133 -0.0133,-0.0199 -0.0133,-0.0133 -0.0133,-0.0133 -0.0133,-0.0199 -0.0199,-0.0133 -0.0133,-0.0199 -0.0199,-0.0199 -0.0133,-0.0199 -0.0199,-0.0199 -0.0199,-0.0199 -0.0199,-0.0199 -0.0199,-0.0199 -0.0199,-0.0199 -0.0265,-0.0265 -0.0199,-0.0199 -0.0199,-0.0265 -0.0265,-0.0199 -0.0265,-0.0265 -0.0265,-0.0265 c -4.11983,-4.15957 -5.17297,-10.3923 -5.17297,-15.43943 0,-5.74259 1.25184,-11.49182 5.30544,-15.60502 0.43053,-0.40403 0.43053,-0.47027 0.43053,-0.56962 0,-0.23183 -0.12585,-0.32456 -0.32455,-0.32456 -0.33118,0 -3.29852,2.23876 -5.24584,6.42482 -1.68899,3.63631 -2.07978,7.29912 -2.07978,10.07438 0,2.57655 0.36429,6.55729 2.17251,10.29295 1.97382,4.06023 4.82193,6.19962 5.15311,6.19962 0.1987,0 0.32455,-0.0927 0.32455,-0.33118 z"
           inkscape:connector-curvature="0"
           style="font-style:normal;font-variant:normal;font-weight:normal;font-stretch:normal;letter-spacing:normal;word-spacing:normal;text-anchor:start;fill:#000000;stroke:#000000;stroke-width:0;stroke-linecap:butt;stroke-linejoin:miter;stroke-miterlimit:10.43299961;stroke-opacity:1;stroke-dasharray:none;stroke-dashoffset:0" />
        <path
           id="path3249"
           d="m 674.65944,149.26334 h 3.10643 c 0.64911,0 0.98029,0 0.98029,-0.66236 0,-0.36429 -0.33118,-0.36429 -0.91405,-0.36429 h -2.91435 c 1.19223,-4.68946 1.35782,-5.35181 1.35782,-5.54389 0,-0.563 -0.39079,-0.89417 -0.95379,-0.89417 -0.0993,0 -1.02002,0.0331 -1.3247,1.19223 l -1.27834,5.24583 h -3.10644 c -0.66235,0 -0.99352,0 -0.99352,0.62261 0,0.40404 0.27156,0.40404 0.93392,0.40404 h 2.89447 c -2.37122,9.36566 -2.50369,9.92204 -2.50369,10.52477 0,1.78173 1.25185,3.03358 3.03357,3.03358 3.36475,0 5.24583,-4.8153 5.24583,-5.08024 0,-0.33118 -0.25831,-0.33118 -0.39078,-0.33118 -0.30468,0 -0.33118,0.0994 -0.49677,0.46364 -1.42405,3.42437 -3.17266,4.21919 -4.28542,4.21919 -0.69547,0 -1.02664,-0.43053 -1.02664,-1.51679 0,-0.7882 0.0596,-1.02664 0.1987,-1.58302 z"
           inkscape:connector-curvature="0"
           style="font-style:normal;font-variant:normal;font-weight:normal;font-stretch:normal;letter-spacing:normal;word-spacing:normal;text-anchor:start;fill:#000000;stroke:#000000;stroke-width:0;stroke-linecap:butt;stroke-linejoin:miter;stroke-miterlimit:10.43299961;stroke-opacity:1;stroke-dasharray:none;stroke-dashoffset:0" />
        <path
           id="path3251"
           d="m 689.3173,154.21111 0,-0.24507 -0.007,-0.25832 -0.007,-0.25831 -0.007,-0.27157 -0.0265,-0.55638 -0.0397,-0.58287 -0.053,-0.60936 -0.0729,-0.62923 -0.0861,-0.64249 -0.1126,-0.66898 -0.12585,-0.67559 -0.15234,-0.68223 -0.17883,-0.69546 -0.20533,-0.7021 -0.23182,-0.70872 -0.25832,-0.70872 -0.1391,-0.35104 -0.15234,-0.35105 -0.15234,-0.35104 -0.16559,-0.35105 c -1.98043,-4.0536 -4.8153,-6.19962 -5.14647,-6.19962 -0.19209,0 -0.33118,0.12585 -0.33118,0.32455 0,0.0994 0,0.16559 0.62261,0.76171 3.23891,3.25877 5.11998,8.51123 5.11998,15.41294 0,5.63662 -1.21872,11.44545 -5.31868,15.60502 -0.42391,0.39079 -0.42391,0.46365 -0.42391,0.55637 0,0.19871 0.13909,0.33118 0.33118,0.33118 0.33117,0 3.29189,-2.24537 5.24582,-6.43144 1.68238,-3.62307 2.07317,-7.28588 2.07317,-10.06113 z"
           inkscape:connector-curvature="0"
           style="font-style:normal;font-variant:normal;font-weight:normal;font-stretch:normal;letter-spacing:normal;word-spacing:normal;text-anchor:start;fill:#000000;stroke:#000000;stroke-width:0;stroke-linecap:butt;stroke-linejoin:miter;stroke-miterlimit:10.43299961;stroke-opacity:1;stroke-dasharray:none;stroke-dashoffset:0" />
        <path
           id="path3253"
           d="m 713.54614,154.87346 h 9.21332 c 0.45041,0 1.08626,0 1.08626,-0.66235 0,-0.66235 -0.63585,-0.66235 -1.08626,-0.66235 h -9.21332 v -9.24644 c 0,-0.4504 0,-1.08626 -0.66235,-1.08626 -0.6491,0 -0.6491,0.63586 -0.6491,1.08626 v 9.24644 h -9.24644 c -0.46365,0 -1.08626,0 -1.08626,0.66235 0,0.66235 0.62261,0.66235 1.08626,0.66235 h 9.24644 v 9.23319 c 0,0.46365 0,1.09289 0.6491,1.09289 0.66235,0 0.66235,-0.62924 0.66235,-1.09289 z"
           inkscape:connector-curvature="0"
           style="font-style:normal;font-variant:normal;font-weight:normal;font-stretch:normal;letter-spacing:normal;word-spacing:normal;text-anchor:start;fill:#000000;stroke:#000000;stroke-width:0;stroke-linecap:butt;stroke-linejoin:miter;stroke-miterlimit:10.43299961;stroke-opacity:1;stroke-dasharray:none;stroke-dashoffset:0" />
        <path
           id="path3255"
           d="m 744.05409,152.48899 0.0199,-0.0861 0.0265,-0.0994 0.0265,-0.10597 0.0331,-0.11923 0.0331,-0.12585 0.0398,-0.13908 0.0398,-0.14572 0.053,-0.14572 0.053,-0.15234 0.053,-0.15897 0.0662,-0.16558 0.0662,-0.15897 0.0729,-0.16559 0.0795,-0.16559 0.0861,-0.16559 0.0927,-0.16559 0.0993,-0.15896 0.0994,-0.15896 0.1126,-0.15234 0.11922,-0.14572 0.12585,-0.14572 0.12585,-0.13247 0.13909,-0.12584 0.14572,-0.11923 0.15896,-0.10597 0.15897,-0.0927 0.0861,-0.0464 0.0861,-0.0398 0.0861,-0.0332 0.0927,-0.0331 0.0861,-0.0332 0.0994,-0.0265 0.0927,-0.0199 0.0994,-0.0199 0.0993,-0.0133 0.10598,-0.0133 0.10597,-0.007 0.10598,0 c 0.16559,0 0.95379,0 1.64263,0.42391 -0.92067,0.16559 -1.58302,0.99353 -1.58302,1.78173 0,0.52326 0.36429,1.15911 1.25185,1.15911 0.72858,0 1.78172,-0.58949 1.78172,-1.91419 0,-1.72212 -1.94731,-2.17252 -3.06006,-2.17252 -1.9142,0 -3.07332,1.74861 -3.47073,2.50369 -0.82794,-2.17251 -2.60304,-2.50369 -3.55683,-2.50369 -3.43761,0 -5.31869,4.2523 -5.31869,5.08024 0,0.33118 0.33118,0.33118 0.40403,0.33118 0.25832,0 0.35768,-0.0729 0.42391,-0.3643 1.11275,-3.49722 3.29852,-4.32516 4.41789,-4.32516 0.62923,0 1.78173,0.29144 1.78173,2.20564 0,1.02002 -0.563,3.2389 -1.78173,7.85549 -0.52988,2.04668 -1.67575,3.43099 -3.13955,3.43099 -0.19208,0 -0.94716,0 -1.64263,-0.43053 0.82794,-0.15896 1.5499,-0.84781 1.5499,-1.78172 0,-0.88756 -0.72196,-1.14588 -1.21872,-1.14588 -0.99353,0 -1.82147,0.85444 -1.82147,1.9142 0,1.51017 1.65588,2.17252 3.10643,2.17252 2.17913,0 3.36475,-2.31161 3.4641,-2.50369 0.39741,1.21873 1.58302,2.50369 3.56346,2.50369 3.40449,0 5.28556,-4.2523 5.28556,-5.08024 0,-0.33118 -0.29805,-0.33118 -0.40403,-0.33118 -0.29144,0 -0.36429,0.13247 -0.42391,0.35767 -1.08625,3.53034 -3.33163,4.32516 -4.38476,4.32516 -1.29822,0 -1.82147,-1.05314 -1.82147,-2.17914 0,-0.72858 0.19207,-1.45055 0.56962,-2.9011 z"
           inkscape:connector-curvature="0"
           style="font-style:normal;font-variant:normal;font-weight:normal;font-stretch:normal;letter-spacing:normal;word-spacing:normal;text-anchor:start;fill:#000000;stroke:#000000;stroke-width:0;stroke-linecap:butt;stroke-linejoin:miter;stroke-miterlimit:10.43299961;stroke-opacity:1;stroke-dasharray:none;stroke-dashoffset:0" />
        <path
           id="path3257"
           d="m 762.78541,170.3725 0,-0.0133 0,-0.0199 0,-0.007 0,-0.0133 0,-0.007 -0.007,-0.0133 0,-0.007 -0.007,-0.0133 -0.007,-0.0133 -0.007,-0.0133 -0.007,-0.0133 -0.0133,-0.0199 -0.007,-0.0133 -0.0133,-0.0199 -0.0133,-0.0199 -0.0199,-0.0199 -0.0133,-0.0199 -0.0199,-0.0265 -0.0133,-0.0133 -0.007,-0.0133 -0.0133,-0.0133 -0.0133,-0.0133 -0.0133,-0.0133 -0.0133,-0.0199 -0.0133,-0.0133 -0.0133,-0.0133 -0.0133,-0.0199 -0.0199,-0.0133 -0.0133,-0.0199 -0.0199,-0.0199 -0.0199,-0.0199 -0.0133,-0.0199 -0.0199,-0.0199 -0.0199,-0.0199 -0.0199,-0.0199 -0.0199,-0.0199 -0.0265,-0.0265 -0.0199,-0.0199 -0.0265,-0.0265 -0.0199,-0.0199 -0.0265,-0.0265 -0.0265,-0.0265 c -4.11984,-4.15957 -5.17298,-10.3923 -5.17298,-15.43943 0,-5.74259 1.25185,-11.49182 5.30545,-15.60502 0.4239,-0.40403 0.4239,-0.47027 0.4239,-0.56962 0,-0.23183 -0.11923,-0.32456 -0.31793,-0.32456 -0.33117,0 -3.29851,2.23876 -5.24583,6.42482 -1.689,3.63631 -2.07979,7.29912 -2.07979,10.07438 0,2.57655 0.35768,6.55729 2.17252,10.29295 1.97381,4.06023 4.82193,6.19962 5.1531,6.19962 0.1987,0 0.31793,-0.0927 0.31793,-0.33118 z"
           inkscape:connector-curvature="0"
           style="font-style:normal;font-variant:normal;font-weight:normal;font-stretch:normal;letter-spacing:normal;word-spacing:normal;text-anchor:start;fill:#000000;stroke:#000000;stroke-width:0;stroke-linecap:butt;stroke-linejoin:miter;stroke-miterlimit:10.43299961;stroke-opacity:1;stroke-dasharray:none;stroke-dashoffset:0" />
        <path
           id="path3259"
           d="m 771.46223,149.26334 h 3.10643 c 0.64911,0 0.98028,0 0.98028,-0.66236 0,-0.36429 -0.33117,-0.36429 -0.92067,-0.36429 h -2.90772 c 1.19223,-4.68946 1.35782,-5.35181 1.35782,-5.54389 0,-0.563 -0.39741,-0.89417 -0.95379,-0.89417 -0.10598,0 -1.02002,0.0331 -1.3247,1.19223 l -1.28497,5.24583 h -3.09981 c -0.66235,0 -0.99352,0 -0.99352,0.62261 0,0.40404 0.26494,0.40404 0.92729,0.40404 h 2.9011 c -2.37122,9.36566 -2.50369,9.92204 -2.50369,10.52477 0,1.78173 1.25185,3.03358 3.03357,3.03358 3.35813,0 5.24584,-4.8153 5.24584,-5.08024 0,-0.33118 -0.25832,-0.33118 -0.39742,-0.33118 -0.29805,0 -0.33117,0.0994 -0.49676,0.46364 -1.41743,3.42437 -3.16604,4.21919 -4.28542,4.21919 -0.68885,0 -1.02002,-0.43053 -1.02002,-1.51679 0,-0.7882 0.0596,-1.02664 0.19208,-1.58302 z"
           inkscape:connector-curvature="0"
           style="font-style:normal;font-variant:normal;font-weight:normal;font-stretch:normal;letter-spacing:normal;word-spacing:normal;text-anchor:start;fill:#000000;stroke:#000000;stroke-width:0;stroke-linecap:butt;stroke-linejoin:miter;stroke-miterlimit:10.43299961;stroke-opacity:1;stroke-dasharray:none;stroke-dashoffset:0" />
        <path
           id="path3261"
           d="m 797.4728,154.87346 h 9.21335 c 0.45698,0 1.08625,0 1.08625,-0.66235 0,-0.66235 -0.62927,-0.66235 -1.08625,-0.66235 h -9.21335 v -9.24644 c 0,-0.4504 0,-1.08626 -0.66235,-1.08626 -0.6491,0 -0.6491,0.63586 -0.6491,1.08626 v 9.24644 h -9.24644 c -0.46365,0 -1.08626,0 -1.08626,0.66235 0,0.66235 0.62261,0.66235 1.08626,0.66235 h 9.24644 v 9.23319 c 0,0.46365 0,1.09289 0.6491,1.09289 0.66235,0 0.66235,-0.62924 0.66235,-1.09289 z"
           inkscape:connector-curvature="0"
           style="font-style:normal;font-variant:normal;font-weight:normal;font-stretch:normal;letter-spacing:normal;word-spacing:normal;text-anchor:start;fill:#000000;stroke:#000000;stroke-width:0;stroke-linecap:butt;stroke-linejoin:miter;stroke-miterlimit:10.43299961;stroke-opacity:1;stroke-dasharray:none;stroke-dashoffset:0" />
        <path
           id="path3263"
           d="m 833.98169,139.91755 0,0 0,-0.007 0,0 0,-0.007 0,-0.0133 0,-0.007 0,-0.0133 0,-0.0133 0,-0.0133 0,-0.0133 0,-0.0133 0,-0.0133 0,-0.0133 0,-0.0199 0,-0.0133 -0.0662,-0.0199 0,-0.0133 0,-0.0199 0,-0.0133 0,-0.0133 0,-0.0199 -0.0662,-0.007 0,-0.007 0,-0.007 0,-0.007 0,-0.007 0,-0.007 0,-0.007 -0.0662,-0.007 0,-0.007 0,-0.007 0,0 0,-0.007 -0.0662,-0.007 0,0 0,-0.007 0,-0.007 0,0 -0.0662,0 0,-0.007 0,0 0,0 -0.0662,-0.007 0,0 0,0 c -0.52988,0 -3.64296,0.30469 -4.23909,0.3643 -0.26494,0.0332 -0.46365,0.19871 -0.46365,0.62923 0,0.39742 0.33118,0.39742 0.79483,0.39742 1.58966,0 1.6559,0.22519 1.6559,0.55637 l -0.0662,0.66235 -1.98707,7.82238 c -0.59612,-1.21873 -1.58966,-2.10628 -3.04678,-2.10628 l 0,0.72196 c 2.18571,0 2.64936,2.7024 2.64936,2.89449 0,0.21195 -0.0662,0.40403 -0.13247,0.56962 l -1.65583,6.47118 c -0.13247,0.58949 -0.13247,0.64911 -0.66235,1.21873 -1.39095,1.81484 -2.7819,2.3381 -3.69593,2.3381 -1.64269,0 -2.11294,-1.80822 -2.11294,-3.09981 0,-1.64925 1.05977,-5.70285 1.81485,-7.22626 1.01341,-1.94732 2.53683,-3.16605 3.79531,-3.16605 l 0,-0.72196 c -3.85495,0 -7.94823,4.8418 -7.94823,9.66372 0,3.10643 1.81485,5.27895 4.39138,5.27895 0.64908,0 2.29837,-0.13909 4.28544,-2.4772 0.26488,1.39094 1.39089,2.4772 2.98055,2.4772 1.19224,0 1.92083,-0.75508 2.45072,-1.81484 0.59612,-1.18562 0.99353,-3.20579 0.99353,-3.2654 0,-0.33118 -0.26494,-0.33118 -0.39741,-0.33118 -0.33118,0 -0.33118,0.13247 -0.46365,0.59612 -0.52989,2.14602 -1.12601,4.08671 -2.51696,4.08671 -0.86106,0 -0.99353,-0.85443 -0.99353,-1.51679 0,-0.78819 0.0662,-1.02664 0.1987,-1.58302 z"
           inkscape:connector-curvature="0"
           style="font-style:normal;font-variant:normal;font-weight:normal;font-stretch:normal;letter-spacing:normal;word-spacing:normal;text-anchor:start;fill:#000000;stroke:#000000;stroke-width:0;stroke-linecap:butt;stroke-linejoin:miter;stroke-miterlimit:10.43299961;stroke-opacity:1;stroke-dasharray:none;stroke-dashoffset:0" />
        <path
           id="path3265"
           d="m 843.65204,154.21111 0,-0.24507 0,-0.25832 0,-0.25831 0,-0.27157 -0.0662,-0.55638 0,-0.58287 -0.0662,-0.60936 -0.0662,-0.62923 -0.0662,-0.64249 -0.13248,-0.66898 -0.13247,-0.67559 -0.13247,-0.68223 -0.19871,-0.69546 -0.1987,-0.7021 -0.26495,-0.70872 -0.1987,-0.70872 -0.19871,-0.35104 -0.13247,-0.35105 -0.13247,-0.35104 -0.19871,-0.35105 c -1.98707,-4.0536 -4.76897,-6.19962 -5.10015,-6.19962 -0.19871,0 -0.33118,0.12585 -0.33118,0.32455 0,0.0994 0,0.16559 0.59612,0.76171 3.24555,3.25877 5.10015,8.51123 5.10015,15.41294 0,5.63662 -1.19224,11.44545 -5.29886,15.60502 -0.39741,0.39079 -0.39741,0.46365 -0.39741,0.55637 0,0.19871 0.13247,0.33118 0.33118,0.33118 0.33118,0 3.24555,-2.24537 5.23262,-6.43144 1.65589,-3.62307 2.05331,-7.28588 2.05331,-10.06113 z"
           inkscape:connector-curvature="0"
           style="font-style:normal;font-variant:normal;font-weight:normal;font-stretch:normal;letter-spacing:normal;word-spacing:normal;text-anchor:start;fill:#000000;stroke:#000000;stroke-width:0;stroke-linecap:butt;stroke-linejoin:miter;stroke-miterlimit:10.43299961;stroke-opacity:1;stroke-dasharray:none;stroke-dashoffset:0" />
        <polygon
           transform="matrix(0.6623523,0,0,-0.6623523,161.09796,431.5049)"
           id="polygon3267"
           points="1036.5,395.73 1036.5,393.75 1043.4,393.75 1043.4,443.56 1036.5,443.56 1036.5,441.57 1041.4,441.57 1041.4,395.73 "
           style="font-style:normal;font-variant:normal;font-weight:normal;font-stretch:normal;letter-spacing:normal;word-spacing:normal;text-anchor:start;fill:#000000;stroke:#000000;stroke-width:0;stroke-linecap:butt;stroke-linejoin:miter;stroke-miterlimit:10.43299961;stroke-opacity:1;stroke-dasharray:none;stroke-dashoffset:0" />
        <path
           id="path3269"
           d="m 887.96336,151.66105 0.0662,0 0.13247,0 0.0662,0 0.0662,-0.007 0.0662,0 0,-0.007 0.0662,-0.007 0.0662,-0.007 0,-0.007 0.0662,-0.007 0.0662,-0.0133 0,-0.0133 0.0662,-0.0133 0.0662,-0.0133 0,-0.0199 0.0662,-0.0199 0,-0.0265 0.0662,-0.0199 0,-0.0331 0.0662,-0.0265 0,-0.0331 0,-0.0199 0.0662,-0.0199 0,-0.0133 0,-0.0199 0,-0.0199 0,-0.0265 0,-0.0199 0,-0.0265 0,-0.0199 0.0662,-0.0265 0,-0.0265 0,-0.0265 0,-0.0265 0,-0.0265 0,-0.0265 0,-0.0331 c 0,-0.66236 -0.66236,-0.66236 -1.12601,-0.66236 H 868.2253 c -0.46365,0 -1.126,0 -1.126,0.66236 0,0.6491 0.66235,0.6491 1.126,0.6491 z"
           inkscape:connector-curvature="0"
           style="font-style:normal;font-variant:normal;font-weight:normal;font-stretch:normal;letter-spacing:normal;word-spacing:normal;text-anchor:start;fill:#000000;stroke:#000000;stroke-width:0;stroke-linecap:butt;stroke-linejoin:miter;stroke-miterlimit:10.43299961;stroke-opacity:1;stroke-dasharray:none;stroke-dashoffset:0" />
        <path
           id="path3271"
           d="m 887.96336,158.07262 0.0662,0 0.0662,0 0.0662,-0.007 0.0662,0 0.0662,0 0.0662,-0.007 0.0662,-0.007 0,0 0.0662,-0.007 0.0662,-0.0133 0,-0.007 0.0662,-0.0133 0.0662,-0.0133 0,-0.0133 0.0662,-0.0133 0,-0.0199 0.0662,-0.0199 0,-0.0265 0.0662,-0.0265 0,-0.0265 0.0662,-0.0331 0,-0.0133 0,-0.0199 0,-0.0133 0.0662,-0.0199 0,-0.0199 0,-0.0199 0,-0.0199 0,-0.0199 0,-0.0265 0,-0.0199 0,-0.0265 0.0662,-0.0265 0,-0.0265 0,-0.0265 0,-0.0265 0,-0.0265 0,-0.0331 0,-0.0265 c 0,-0.66235 -0.66236,-0.66235 -1.12601,-0.66235 H 868.2253 c -0.46365,0 -1.126,0 -1.126,0.66235 0,0.66236 0.66235,0.66236 1.126,0.66236 z"
           inkscape:connector-curvature="0"
           style="font-style:normal;font-variant:normal;font-weight:normal;font-stretch:normal;letter-spacing:normal;word-spacing:normal;text-anchor:start;fill:#000000;stroke:#000000;stroke-width:0;stroke-linecap:butt;stroke-linejoin:miter;stroke-miterlimit:10.43299961;stroke-opacity:1;stroke-dasharray:none;stroke-dashoffset:0" />
        <path
           id="path3273"
           d="m 905.97936,139.55325 -4.70268,0.3643 v 1.02664 c 2.31819,0 2.58313,0.2252 2.58313,1.84796 v 17.16155 c 0,1.47705 -0.39741,1.47705 -2.58313,1.47705 v 1.02665 c 1.05971,-0.0332 2.84807,-0.10598 3.6429,-0.10598 0.79483,0 2.45073,0.0729 3.64297,0.10598 v -1.02665 c -2.18578,0 -2.58319,0 -2.58319,-1.47705 z"
           inkscape:connector-curvature="0"
           style="font-style:normal;font-variant:normal;font-weight:normal;font-stretch:normal;letter-spacing:normal;word-spacing:normal;text-anchor:start;fill:#000000;stroke:#000000;stroke-width:0;stroke-linecap:butt;stroke-linejoin:miter;stroke-miterlimit:10.43299961;stroke-opacity:1;stroke-dasharray:none;stroke-dashoffset:0" />
        <path
           id="path3275"
           d="m 915.11982,147.87902 -4.57026,0.35767 v 1.02665 c 2.11954,0 2.45072,0.1987 2.45072,1.80822 v 8.88214 c 0,1.47705 -0.39742,1.47705 -2.58319,1.47705 v 1.02665 c 1.05977,-0.0332 2.84813,-0.10598 3.64296,-0.10598 1.12601,0 2.25202,0.0729 3.37802,0.10598 v -1.02665 c -2.18578,0 -2.31825,-0.16559 -2.31825,-1.44393 z"
           inkscape:connector-curvature="0"
           style="font-style:normal;font-variant:normal;font-weight:normal;font-stretch:normal;letter-spacing:normal;word-spacing:normal;text-anchor:start;fill:#000000;stroke:#000000;stroke-width:0;stroke-linecap:butt;stroke-linejoin:miter;stroke-miterlimit:10.43299961;stroke-opacity:1;stroke-dasharray:none;stroke-dashoffset:0" />
        <path
           id="path3277"
           d="m 915.25229,142.1298 0,-0.0927 0,-0.0993 0,-0.0927 0,-0.0927 0,-0.0861 -0.0662,-0.0861 0,-0.0861 -0.0662,-0.0795 0,-0.0795 -0.0662,-0.0795 -0.0662,-0.0729 0,-0.0662 -0.0662,-0.0662 -0.0662,-0.0662 -0.0662,-0.0662 -0.0662,-0.053 -0.0662,-0.0596 0,-0.053 -0.0662,-0.0464 -0.13247,-0.0464 -0.0662,-0.0464 -0.0662,-0.0398 -0.0662,-0.0332 -0.0662,-0.0331 -0.0662,-0.0265 -0.0662,-0.0265 -0.13247,-0.0199 -0.0662,-0.0199 -0.0662,-0.0133 -0.0662,-0.007 -0.13247,-0.007 -0.0662,-0.007 c -0.99354,0 -1.72213,0.89418 -1.72213,1.74861 0,0.89418 0.72859,1.74861 1.72213,1.74861 0.9273,0 1.72212,-0.68884 1.72212,-1.74861 z"
           inkscape:connector-curvature="0"
           style="font-style:normal;font-variant:normal;font-weight:normal;font-stretch:normal;letter-spacing:normal;word-spacing:normal;text-anchor:start;fill:#000000;stroke:#000000;stroke-width:0;stroke-linecap:butt;stroke-linejoin:miter;stroke-miterlimit:10.43299961;stroke-opacity:1;stroke-dasharray:none;stroke-dashoffset:0" />
        <path
           id="path3279"
           d="m 922.07451,151.10467 v 8.84903 c 0,1.47705 -0.33118,1.47705 -2.58319,1.47705 v 1.02665 c 1.19224,-0.0332 2.84813,-0.10598 3.7092,-0.10598 0.86106,0 2.58319,0.0729 3.70914,0.10598 v -1.02665 c -2.18572,0 -2.58313,0 -2.58313,-1.47705 v -6.07377 c 0,-3.43761 2.38442,-5.27895 4.50396,-5.27895 2.05331,0 2.45072,1.78173 2.45072,3.66281 v 7.68991 c 0,1.47705 -0.39741,1.47705 -2.58319,1.47705 v 1.02665 c 1.12601,-0.0332 2.84814,-0.10598 3.7092,-0.10598 0.86107,0 2.58313,0.0729 3.70914,0.10598 v -1.02665 c -2.25195,0 -2.58313,0 -2.58313,-1.47705 v -6.07377 c 0,-3.43761 2.31819,-5.27895 4.43773,-5.27895 2.11954,0 2.45072,1.78173 2.45072,3.66281 v 7.68991 c 0,1.47705 -0.33118,1.47705 -2.58319,1.47705 v 1.02665 c 1.19224,-0.0332 2.84813,-0.10598 3.7092,-0.10598 0.86106,0 2.58313,0.0729 3.70914,0.10598 v -1.02665 c -1.72213,0 -2.5169,0 -2.5169,-0.99353 v -6.29897 c 0,-2.83487 0,-3.86152 -1.05977,-5.0405 -0.46365,-0.56962 -1.52342,-1.21873 -3.44426,-1.21873 -2.7819,0 -4.23902,1.97381 -4.76891,3.22565 -0.52988,-2.86798 -2.91437,-3.22565 -4.43779,-3.22565 -2.38449,0 -3.97408,1.41744 -4.83515,3.45085 v -3.45085 l -4.70273,0.35767 v 1.02665 c 2.31825,0 2.58319,0.22519 2.58319,1.84133 z"
           inkscape:connector-curvature="0"
           style="font-style:normal;font-variant:normal;font-weight:normal;font-stretch:normal;letter-spacing:normal;word-spacing:normal;text-anchor:start;fill:#000000;stroke:#000000;stroke-width:0;stroke-linecap:butt;stroke-linejoin:miter;stroke-miterlimit:10.43299961;stroke-opacity:1;stroke-dasharray:none;stroke-dashoffset:0" />
        <path
           id="path3281"
           d="m 892.11877,182.29987 0,0.0265 0,0.0332 0,0.0265 0,0.0331 0,0.0331 0,0.0398 0,0.0331 -0.0662,0.0331 0,0.0729 0,0.0729 0,0.0795 -0.0662,0.0662 0,0.0397 0,0.0332 0,0.0331 0,0.0331 0,0.0332 0,0.0265 0,0.0332 -0.0662,0.0265 0,0.0199 0,0.0265 0,0.0199 0,0.0199 0,0.0133 0,0.0133 0,0.007 0,0.007 0,0.007 0,0 c 0,0.51001 0.39741,0.73521 0.79483,0.73521 0.39741,0 0.79483,-0.29806 0.86106,-0.50339 0.13247,-0.21195 0.33118,-0.94716 0.46365,-1.43068 0.0662,-0.43715 0.33118,-1.50354 0.46365,-2.07979 0.19871,-0.51001 0.33118,-1.0134 0.39742,-1.54328 0.26494,-0.95378 0.33118,-1.126 0.99353,-2.07979 0.66236,-0.92067 1.72213,-2.11952 3.4442,-2.11952 1.32471,0 1.39095,1.17898 1.39095,1.61614 0,1.38431 -0.99354,3.94099 -1.39095,4.91465 -0.26494,0.64911 -0.33118,0.85444 -0.33118,1.25185 0,1.21873 0.99354,1.97381 2.18578,1.97381 2.31825,0 3.31178,-3.17267 3.31178,-3.53034 0,-0.29806 -0.26494,-0.29806 -0.33117,-0.29806 -0.33118,0 -0.39742,0.13247 -0.46365,0.39079 -0.52989,1.84796 -1.52343,2.79513 -2.45073,2.79513 -0.46365,0 -0.59612,-0.31793 -0.59612,-0.80807 0,-0.52326 0.13247,-0.82794 0.52989,-1.86784 0.33118,-0.71534 1.25848,-3.15942 1.25848,-4.45101 0,-2.24537 -1.78837,-2.62954 -2.98061,-2.62954 -1.92077,0 -3.24549,1.16575 -3.90785,2.09304 -0.1987,-1.58964 -1.52342,-2.09304 -2.51695,-2.09304 -0.99354,0 -1.52342,0.71535 -1.78837,1.23861 -0.52988,0.85443 -0.86106,2.17913 -0.86106,2.29173 0,0.29806 0.33118,0.29806 0.39741,0.29806 0.33118,0 0.39742,-0.0729 0.52989,-0.69547 0.33118,-1.36444 0.79483,-2.49044 1.72213,-2.49044 0.52988,0 0.72859,0.50339 0.72859,1.126 0,0.44377 -0.19871,1.29159 -0.39741,1.9142 -0.13248,0.62923 -0.33118,1.57639 -0.46365,2.07978 z"
           inkscape:connector-curvature="0"
           style="font-style:normal;font-variant:normal;font-weight:normal;font-stretch:normal;letter-spacing:normal;word-spacing:normal;text-anchor:start;fill:#000000;stroke:#000000;stroke-width:0;stroke-linecap:butt;stroke-linejoin:miter;stroke-miterlimit:10.43299961;stroke-opacity:1;stroke-dasharray:none;stroke-dashoffset:0" />
        <path
           id="path3283"
           d="m 926.89227,178.53108 -0.26494,0.20533 -0.26494,0.20533 -0.26495,0.20533 -0.1987,0.21857 -0.19871,0.21196 -0.19871,0.21857 -0.19871,0.21858 -0.1987,0.21857 -0.13247,0.21858 -0.13248,0.21196 -0.1987,0.21857 -0.0662,0.21195 -0.13247,0.21196 -0.13247,0.20533 -0.0662,0.1987 -0.13247,0.19208 -0.0662,0.19209 -0.0662,0.17883 -0.0662,0.17884 -0.0662,0.16559 -0.0662,0.15896 0,0.14572 -0.0662,0.13909 -0.0662,0.12585 0,0.1126 0,0.0994 -0.0662,0.0927 0,0.0729 0,0.0596 0,0.0464 0,0.0265 0,0.0133 c 0,0.3378 0.1987,0.3378 0.52988,0.3378 0.39742,0 0.46365,0 0.59612,-0.39079 0.13247,-0.58287 0.52989,-2.05329 1.72213,-3.32501 1.32472,-1.40418 2.51696,-1.75523 3.44426,-2.05991 0.13247,-0.0397 0.26494,-0.17221 0.26494,-0.29806 0,-0.2252 -0.13247,-0.27157 -0.46365,-0.36429 -3.31178,-1.06639 -4.50403,-3.41112 -4.96768,-5.44454 -0.13247,-0.27819 -0.26494,-0.27819 -0.59612,-0.27819 -0.33118,0 -0.52988,0 -0.52988,0.34443 0,0.053 0.1987,1.58964 1.32471,3.18591 0.52989,0.7882 1.19224,1.43068 1.98707,1.98706 h -18.54588 c -0.39741,0 -0.9273,0 -0.9273,0.54975 0,0.57624 0.52989,0.57624 0.9273,0.57624 z"
           inkscape:connector-curvature="0"
           style="font-style:normal;font-variant:normal;font-weight:normal;font-stretch:normal;letter-spacing:normal;word-spacing:normal;text-anchor:start;fill:#000000;stroke:#000000;stroke-width:0;stroke-linecap:butt;stroke-linejoin:miter;stroke-miterlimit:10.43299961;stroke-opacity:1;stroke-dasharray:none;stroke-dashoffset:0" />
        <path
           id="path3285"
           d="m 945.30568,177.42495 -0.13247,-0.13247 -0.13247,-0.12584 -0.0662,-0.11923 -0.13247,-0.1126 -0.0662,-0.10597 -0.13247,-0.10598 -0.0662,-0.0993 -0.0662,-0.0927 -0.0662,-0.0927 -0.13247,-0.0861 -0.0662,-0.0861 -0.0662,-0.0795 -0.0662,-0.0729 -0.0662,-0.0729 -0.0662,-0.0728 -0.0662,-0.0662 -0.13247,-0.12585 -0.13247,-0.12585 -0.13248,-0.1126 -0.13247,-0.1126 -0.13247,-0.10598 -0.13247,-0.1126 -0.0662,-0.053 -0.0662,-0.053 -0.13247,-0.0596 -0.0662,-0.0596 c -1.39095,-1.02002 -2.84814,-1.40419 -4.10661,-1.40419 -2.91431,0 -4.96762,2.44408 -4.96762,5.21271 h 0.66236 c 0,-2.2255 1.78836,-3.94761 3.9079,-3.94761 2.11948,0 3.64291,1.75523 5.82869,4.42451 h 0 c -0.92731,1.50354 -2.91438,3.84164 -5.76245,3.84164 -2.38449,0 -3.97414,-2.09965 -3.97414,-4.31854 H 933.715 c 0,2.69578 1.98707,5.18622 4.83521,5.18622 3.24548,0 5.4975,-2.62954 6.29233,-3.84826 1.25848,1.43068 1.58966,1.82146 2.51689,2.44408 1.39095,1.01339 2.84814,1.40418 4.10662,1.40418 2.84813,0 4.96761,-2.44408 4.96761,-5.21271 h -0.66235 c 0,2.21226 -1.7883,3.95424 -3.90785,3.95424 -2.18578,0 -3.64296,-1.76185 -5.82868,-4.44438 h 0 c 0.92724,-1.49029 2.91431,-3.8284 5.69621,-3.8284 2.38449,0 4.04032,2.09966 4.04032,4.31854 h 0.66235 c 0,-2.7024 -1.987,-5.18622 -4.90138,-5.18622 -3.17931,0 -5.43126,2.62954 -6.22609,3.84827 z"
           inkscape:connector-curvature="0"
           style="font-style:normal;font-variant:normal;font-weight:normal;font-stretch:normal;letter-spacing:normal;word-spacing:normal;text-anchor:start;fill:#000000;stroke:#000000;stroke-width:0;stroke-linecap:butt;stroke-linejoin:miter;stroke-miterlimit:10.43299961;stroke-opacity:1;stroke-dasharray:none;stroke-dashoffset:0" />
        <path
           id="path3287"
           d="m 1003.3278,133.5652 0,-0.0265 0,-0.0265 0,-0.0331 0,-0.0265 0,-0.0199 0,-0.0265 0,-0.0265 0,-0.0199 0,-0.0265 0,-0.0199 0,-0.0199 0,-0.0199 0,-0.0199 0,-0.0199 0,-0.0199 0,-0.0133 0,-0.0199 0,-0.0133 0,-0.0199 0,-0.0133 0,-0.0265 -0.066,-0.0265 0,-0.0199 0,-0.0199 0,-0.0199 0,-0.0199 -0.066,-0.0133 0,-0.0133 0,-0.0133 -0.066,-0.007 0,-0.007 -0.066,-0.0133 0,0 0,0 0,-0.007 -0.066,0 0,-0.007 0,0 0,0 -0.066,0 0,0 0,-0.007 -0.066,0 0,0 0,0 -0.066,0 0,0 -0.066,0 0,0 0,0 -0.066,0 0,0 c -1.5234,1.45717 -3.57669,1.47704 -4.57022,1.47704 v 0.82794 c 0.59612,0 2.11952,0 3.37802,-0.64248 v 11.77 c 0,0.76833 0,1.06639 -2.31825,1.06639 h -0.86107 v 0.82794 c 0.39742,-0.0199 3.24552,-0.0927 4.10662,-0.0927 0.7286,0 3.6429,0.0729 4.1065,0.0927 v -0.82794 h -0.861 c -2.3182,0 -2.3182,-0.29806 -2.3182,-1.06639 z"
           inkscape:connector-curvature="0"
           style="font-style:normal;font-variant:normal;font-weight:normal;font-stretch:normal;letter-spacing:normal;word-spacing:normal;text-anchor:start;fill:#000000;stroke:#000000;stroke-width:0;stroke-linecap:butt;stroke-linejoin:miter;stroke-miterlimit:10.43299961;stroke-opacity:1;stroke-dasharray:none;stroke-dashoffset:0" />
        <polyline
           transform="matrix(0.6623523,0,0,-0.6623523,104.44945,430.24604)"
           id="polyline3289"
           points="1306,418 1405.2,418 1405.2,420.04 1306,420.04 "
           style="font-style:normal;font-variant:normal;font-weight:normal;font-stretch:normal;letter-spacing:normal;word-spacing:normal;text-anchor:start;fill:#000000;fill-rule:nonzero;stroke:#000000;stroke-width:0;stroke-linecap:butt;stroke-linejoin:miter;stroke-miterlimit:10.43299961;stroke-opacity:1;stroke-dasharray:none;stroke-dashoffset:0" />
        <path
           id="path3291"
           d="m 981.00648,168.36519 h -0.79483 c 0,0.50339 -0.26494,1.87445 -0.59612,2.09966 -0.13247,0.13247 -1.92077,0.13247 -2.25195,0.13247 h -4.23909 c 2.38449,-2.1394 3.24556,-2.78188 4.57027,-3.86814 1.72207,-1.36445 3.31172,-2.79513 3.31172,-4.98752 0,-2.79512 -2.38442,-4.50399 -5.36503,-4.50399 -2.84813,0 -4.83521,2.00692 -4.83521,4.12646 0,1.1856 0.99354,1.2982 1.25848,1.2982 0.52989,0 1.19225,-0.3974 1.19225,-1.22535 0,-0.41066 -0.13248,-1.21873 -1.32472,-1.21873 0.72859,-1.63601 2.25202,-2.13939 3.37802,-2.13939 2.25202,0 3.5105,1.78834 3.5105,3.6628 0,2.00693 -1.45719,3.59658 -2.18578,4.42452 l -5.5638,5.49752 c -0.26495,0.20533 -0.26495,0.25832 -0.26495,0.9008 h 9.53789 z"
           inkscape:connector-curvature="0"
           style="font-style:normal;font-variant:normal;font-weight:normal;font-stretch:normal;letter-spacing:normal;word-spacing:normal;text-anchor:start;fill:#000000;stroke:#000000;stroke-width:0;stroke-linecap:butt;stroke-linejoin:miter;stroke-miterlimit:10.43299961;stroke-opacity:1;stroke-dasharray:none;stroke-dashoffset:0" />
        <path
           id="path3293"
           d="m 993.72368,158.60211 0,-0.0265 0,-0.0331 0,-0.0265 0,-0.0331 0,-0.0265 0,-0.0265 0,-0.0265 0.0662,-0.0265 0,-0.0464 0,-0.0464 0,-0.0398 0,-0.0397 0.0662,-0.0397 0,-0.0332 0,-0.0332 0,-0.0265 0,-0.0265 0.0662,-0.0265 0,-0.0265 0,-0.0199 0,-0.0199 0.0662,-0.0133 0,-0.0199 0,-0.0133 0.0662,-0.0133 0,-0.0133 0.0662,-0.007 0,-0.0133 0,-0.007 0.0662,-0.007 0,-0.007 0.0662,-0.007 0.0662,-0.007 0,0 0.0662,-0.007 0.0662,0 c 0.0662,-0.0265 0.86107,-0.0265 1.39089,-0.0265 1.39095,0 1.98707,0 2.51696,0.19209 1.05977,0.31792 1.12601,0.99353 1.12601,1.82147 0,0.35766 0,0.66235 -0.19871,1.8612 l 0,0.25832 c 0,0.2252 0.13247,0.3378 0.39741,0.3378 0.33116,0 0.39736,-0.20533 0.39736,-0.56962 l 0.6624,-4.40464 c 0,-0.33118 -0.2649,-0.33118 -0.7286,-0.33118 h -14.1743 c -0.59612,0 -0.59612,0 -0.79483,0.48351 l -1.45718,4.08672 c 0,0.0993 -0.13247,0.30468 -0.13247,0.41728 0,0.0927 0.0662,0.31793 0.39741,0.31793 0.33118,0 0.33118,-0.1126 0.52989,-0.54313 1.32471,-3.69592 2.0533,-3.92775 5.56373,-3.92775 h 0.99354 c 0.66236,0 0.72859,0.0265 0.72859,0.23183 0,0.0199 0,0.13247 -0.13247,0.48351 l -3.04684,12.14092 c -0.19871,0.84782 -0.26495,1.08626 -2.64937,1.08626 -0.86106,0 -1.05977,0 -1.05977,0.51001 0,0.0596 0.0662,0.31793 0.39741,0.31793 0.66236,0 1.32472,-0.0729 1.98708,-0.0729 0.66229,0 1.32465,-0.0199 1.987,-0.0199 0.66236,0 1.39096,0 2.05331,0.0199 0.66236,0.0331 1.32472,0.0729 1.92084,0.0729 0.19871,0 0.52988,0 0.52988,-0.50339 0,-0.32455 -0.1987,-0.32455 -0.9273,-0.32455 -0.46365,0 -0.86106,-0.0331 -1.32471,-0.053 -0.79483,-0.0596 -0.86106,-0.15233 -0.86106,-0.43052 0,-0.16559 0,-0.21196 0.13247,-0.52988 z"
           inkscape:connector-curvature="0"
           style="font-style:normal;font-variant:normal;font-weight:normal;font-stretch:normal;letter-spacing:normal;word-spacing:normal;text-anchor:start;fill:#000000;stroke:#000000;stroke-width:0;stroke-linecap:butt;stroke-linejoin:miter;stroke-miterlimit:10.43299961;stroke-opacity:1;stroke-dasharray:none;stroke-dashoffset:0" />
        <path
           id="path3295"
           d="m 1012.3358,167.35179 h 7.0209 c 0.3312,0 0.8611,0 0.8611,-0.563 0,-0.56962 -0.5299,-0.56962 -0.8611,-0.56962 h -7.0209 v -7.08718 c 0,-0.29805 0,-0.84781 -0.5961,-0.84781 -0.5299,0 -0.5299,0.52989 -0.5299,0.84781 v 7.08718 h -7.0872 c -0.3312,0 -0.861,0 -0.861,0.54975 0,0.58287 0.5298,0.58287 0.861,0.58287 h 7.0872 v 7.08717 c 0,0.29806 0,0.84781 0.5299,0.84781 0.5961,0 0.5961,-0.52988 0.5961,-0.84781 z"
           inkscape:connector-curvature="0"
           style="font-style:normal;font-variant:normal;font-weight:normal;font-stretch:normal;letter-spacing:normal;word-spacing:normal;text-anchor:start;fill:#000000;stroke:#000000;stroke-width:0;stroke-linecap:butt;stroke-linejoin:miter;stroke-miterlimit:10.43299961;stroke-opacity:1;stroke-dasharray:none;stroke-dashoffset:0" />
        <path
           id="path3297"
           d="m 1029.6231,157.88677 0,-0.0265 0,-0.0265 0,-0.0265 0,-0.0265 0,-0.0265 0,-0.0265 0,-0.0265 0,-0.0199 0,-0.0199 0,-0.0265 0,-0.0199 0,-0.0199 0,-0.0199 0,-0.0199 0,-0.0133 0,-0.0199 0,-0.0199 0,-0.0133 0,-0.0133 0,-0.0199 0,-0.0265 -0.066,-0.0265 0,-0.0199 0,-0.0199 0,-0.0199 0,-0.0133 -0.066,-0.0199 0,-0.0133 0,-0.007 -0.066,-0.0133 0,-0.007 0,-0.007 -0.066,-0.007 0,0 0,-0.007 0,0 -0.066,0 0,-0.007 0,0 -0.066,0 0,0 0,0 -0.066,-0.007 0,0 0,0 -0.066,0 0,0 0,0 -0.066,0 0,0 -0.066,0 0,0 c -1.5234,1.45717 -3.5767,1.47704 -4.5702,1.47704 v 0.82794 c 0.5961,0 2.1195,0 3.378,-0.63585 v 11.76337 c 0,0.76833 0,1.06639 -2.3183,1.06639 h -0.861 v 0.82794 c 0.3974,-0.0199 3.2455,-0.0927 4.1066,-0.0927 0.7285,0 3.6429,0.0729 4.1065,0.0927 v -0.82794 h -0.861 c -2.3183,0 -2.3183,-0.29806 -2.3183,-1.06639 z"
           inkscape:connector-curvature="0"
           style="font-style:normal;font-variant:normal;font-weight:normal;font-stretch:normal;letter-spacing:normal;word-spacing:normal;text-anchor:start;fill:#000000;stroke:#000000;stroke-width:0;stroke-linecap:butt;stroke-linejoin:miter;stroke-miterlimit:10.43299961;stroke-opacity:1;stroke-dasharray:none;stroke-dashoffset:0" />
        <path
           id="path3301"
           d="m 1066.5138,108.87784 0,-0.0265 0,-0.0332 0,-0.0265 0,-0.0332 0.066,-0.0265 0,-0.0265 0,-0.0265 0,-0.0265 0,-0.0464 0,-0.0464 0,-0.0398 0.066,-0.0397 0,-0.0398 0,-0.0331 0,-0.0331 0,-0.0265 0.066,-0.0265 0,-0.0265 0,-0.0265 0,-0.0199 0.066,-0.0199 0,-0.0133 0,-0.0199 0.066,-0.0133 0,-0.0133 0,-0.0133 0.066,-0.007 0,-0.0133 0.066,-0.007 0,-0.007 0.066,-0.007 0,-0.007 0.066,-0.007 0,0 0.066,-0.007 0.066,0 c 0.1325,-0.0265 0.9273,-0.0265 1.391,-0.0265 1.3909,0 1.987,0 2.5831,0.19209 0.9935,0.31792 1.0598,0.99352 1.0598,1.82146 0,0.35767 0,0.66236 -0.1325,1.86121 l -0.066,0.25832 c 0,0.2252 0.1325,0.3378 0.3975,0.3378 0.3311,0 0.3974,-0.20533 0.4636,-0.56962 l 0.5961,-4.40465 c 0,-0.33117 -0.2649,-0.33117 -0.7286,-0.33117 h -14.1743 c -0.5299,0 -0.5961,0 -0.7948,0.48351 l -1.4572,4.08672 c 0,0.0994 -0.066,0.30468 -0.066,0.41728 0,0.0927 0,0.31793 0.3974,0.31793 0.2649,0 0.3312,-0.1126 0.4636,-0.54313 1.3248,-3.69593 2.1196,-3.92775 5.6301,-3.92775 h 0.9272 c 0.7286,0 0.7286,0.0265 0.7286,0.23182 0,0.0199 0,0.13247 -0.066,0.48352 l -3.0468,12.14092 c -0.265,0.84781 -0.3312,1.08626 -2.7157,1.08626 -0.861,0 -1.0598,0 -1.0598,0.51001 0,0.0596 0.066,0.31793 0.3975,0.31793 0.6623,0 1.3247,-0.0729 1.987,-0.0729 0.6624,0 1.3248,-0.0199 1.9871,-0.0199 0.6624,0 1.4572,0 2.0533,0.0199 0.6623,0.0332 1.3247,0.0729 1.987,0.0729 0.1325,0 0.5299,0 0.5299,-0.50339 0,-0.32455 -0.2649,-0.32455 -0.9935,-0.32455 -0.3974,0 -0.8611,-0.0332 -1.3247,-0.053 -0.7948,-0.0596 -0.7948,-0.15234 -0.7948,-0.43052 0,-0.16559 0,-0.21196 0.066,-0.52989 z"
           inkscape:connector-curvature="0"
           style="font-style:normal;font-variant:normal;font-weight:normal;font-stretch:normal;letter-spacing:normal;word-spacing:normal;text-anchor:start;fill:#000000;stroke:#000000;stroke-width:0;stroke-linecap:butt;stroke-linejoin:miter;stroke-miterlimit:10.43299961;stroke-opacity:1;stroke-dasharray:none;stroke-dashoffset:0" />
        <path
           id="path3313"
           d="m 1101.0801,152.48899 0.066,-0.0861 0,-0.0994 0,-0.10597 0.066,-0.11923 0,-0.12585 0.066,-0.13908 0.066,-0.14572 0,-0.14572 0.066,-0.15234 0.066,-0.15897 0.066,-0.16558 0.066,-0.15897 0.066,-0.16559 0.066,-0.16559 0.1325,-0.16559 0.066,-0.16559 0.066,-0.15896 0.1325,-0.15896 0.1325,-0.15234 0.066,-0.14572 0.1325,-0.14572 0.1325,-0.13247 0.1324,-0.12584 0.1987,-0.11923 0.1324,-0.10597 0.1325,-0.0927 0.1325,-0.0464 0.066,-0.0398 0.066,-0.0332 0.1324,-0.0331 0.066,-0.0332 0.066,-0.0265 0.1325,-0.0199 0.066,-0.0199 0.1325,-0.0133 0.066,-0.0133 0.1325,-0.007 0.1325,0 c 0.1324,0 0.9273,0 1.5896,0.42391 -0.9273,0.16559 -1.5896,0.99353 -1.5896,1.78173 0,0.52326 0.3974,1.15911 1.2584,1.15911 0.7286,0 1.7884,-0.58949 1.7884,-1.91419 0,-1.72212 -1.9208,-2.17252 -3.0468,-2.17252 -1.9208,0 -3.0468,1.74861 -3.4442,2.50369 -0.8611,-2.17251 -2.6495,-2.50369 -3.5768,-2.50369 -3.4442,0 -5.2988,4.2523 -5.2988,5.08024 0,0.33118 0.3312,0.33118 0.3975,0.33118 0.2649,0 0.3311,-0.0729 0.3974,-0.3643 1.126,-3.49722 3.3117,-4.32516 4.4377,-4.32516 0.5961,0 1.7884,0.29144 1.7884,2.20564 0,1.02002 -0.5962,3.2389 -1.7884,7.85549 -0.5299,2.04668 -1.6559,3.43099 -3.1793,3.43099 -0.1324,0 -0.9273,0 -1.5896,-0.43053 0.7948,-0.15896 1.5234,-0.84781 1.5234,-1.78172 0,-0.88756 -0.7286,-1.14588 -1.1922,-1.14588 -0.9936,0 -1.8546,0.85444 -1.8546,1.9142 0,1.51017 1.6559,2.17252 3.113,2.17252 2.1858,0 3.378,-2.31161 3.4442,-2.50369 0.3975,1.21873 1.5897,2.50369 3.5768,2.50369 3.4442,0 5.2988,-4.2523 5.2988,-5.08024 0,-0.33118 -0.265,-0.33118 -0.3974,-0.33118 -0.3312,0 -0.3975,0.13247 -0.3975,0.35767 -1.126,3.53034 -3.3779,4.32516 -4.4377,4.32516 -1.2585,0 -1.7884,-1.05314 -1.7884,-2.17914 0,-0.72858 0.1987,-1.45055 0.5299,-2.9011 z"
           inkscape:connector-curvature="0"
           style="font-style:normal;font-variant:normal;font-weight:normal;font-stretch:normal;letter-spacing:normal;word-spacing:normal;text-anchor:start;fill:#000000;stroke:#000000;stroke-width:0;stroke-linecap:butt;stroke-linejoin:miter;stroke-miterlimit:10.43299961;stroke-opacity:1;stroke-dasharray:none;stroke-dashoffset:0" />
        <path
           id="path3315"
           d="m 1119.8247,170.3725 0,-0.0133 0,-0.0199 0,-0.007 0,-0.0133 0,-0.007 0,-0.0133 0,-0.007 0,-0.0133 0,-0.0133 0,-0.0133 -0.066,-0.0133 0,-0.0199 0,-0.0133 0,-0.0199 0,-0.0199 0,-0.0199 -0.066,-0.0199 0,-0.0265 0,-0.0133 0,-0.0133 -0.066,-0.0133 0,-0.0133 0,-0.0133 0,-0.0199 0,-0.0133 -0.066,-0.0133 0,-0.0199 0,-0.0133 0,-0.0199 -0.066,-0.0199 0,-0.0199 0,-0.0199 0,-0.0199 -0.066,-0.0199 0,-0.0199 0,-0.0199 -0.066,-0.0265 0,-0.0199 0,-0.0265 -0.066,-0.0199 0,-0.0265 0,-0.0265 c -4.1728,-4.15957 -5.1664,-10.3923 -5.1664,-15.43943 0,-5.74259 1.1923,-11.49182 5.2989,-15.60502 0.3974,-0.40403 0.3974,-0.47027 0.3974,-0.56962 0,-0.23183 -0.1325,-0.32456 -0.3312,-0.32456 -0.3311,0 -3.3117,2.23876 -5.2326,6.42482 -1.7221,3.63631 -2.0533,7.29912 -2.0533,10.07438 0,2.57655 0.3312,6.55729 2.1196,10.29295 1.987,4.06023 4.8352,6.19962 5.1663,6.19962 0.1987,0 0.3312,-0.0927 0.3312,-0.33118 z"
           inkscape:connector-curvature="0"
           style="font-style:normal;font-variant:normal;font-weight:normal;font-stretch:normal;letter-spacing:normal;word-spacing:normal;text-anchor:start;fill:#000000;stroke:#000000;stroke-width:0;stroke-linecap:butt;stroke-linejoin:miter;stroke-miterlimit:10.43299961;stroke-opacity:1;stroke-dasharray:none;stroke-dashoffset:0" />
        <path
           id="path3317"
           d="m 1128.5015,149.26334 h 3.1131 c 0.6623,0 0.9935,0 0.9935,-0.66236 0,-0.36429 -0.3312,-0.36429 -0.9273,-0.36429 h -2.9144 c 1.1923,-4.68946 1.3247,-5.35181 1.3247,-5.54389 0,-0.563 -0.3974,-0.89417 -0.9273,-0.89417 -0.1324,0 -0.9935,0.0331 -1.3246,1.19223 l -1.2585,5.24583 h -3.1131 c -0.6623,0 -0.9935,0 -0.9935,0.62261 0,0.40404 0.2649,0.40404 0.9273,0.40404 h 2.9144 c -2.3845,9.36566 -2.517,9.92204 -2.517,10.52477 0,1.78173 1.2585,3.03358 3.0468,3.03358 3.3118,0 5.2326,-4.8153 5.2326,-5.08024 0,-0.33118 -0.2649,-0.33118 -0.3974,-0.33118 -0.3312,0 -0.3312,0.0994 -0.5299,0.46364 -1.3909,3.42437 -3.113,4.21919 -4.239,4.21919 -0.7286,0 -1.0598,-0.43053 -1.0598,-1.51679 0,-0.7882 0.066,-1.02664 0.1987,-1.58302 z"
           inkscape:connector-curvature="0"
           style="font-style:normal;font-variant:normal;font-weight:normal;font-stretch:normal;letter-spacing:normal;word-spacing:normal;text-anchor:start;fill:#000000;stroke:#000000;stroke-width:0;stroke-linecap:butt;stroke-linejoin:miter;stroke-miterlimit:10.43299961;stroke-opacity:1;stroke-dasharray:none;stroke-dashoffset:0" />
        <path
           id="path3319"
           d="m 1143.1395,154.21111 0,-0.24507 0,-0.25832 0,-0.25831 0,-0.27157 0,-0.55638 -0.066,-0.58287 -0.066,-0.60936 -0.066,-0.62923 -0.066,-0.64249 -0.1325,-0.66898 -0.1325,-0.67559 -0.1325,-0.68223 -0.1987,-0.69546 -0.1987,-0.7021 -0.1987,-0.70872 -0.2649,-0.70872 -0.1325,-0.35104 -0.1987,-0.35105 -0.1325,-0.35104 -0.1987,-0.35105 c -1.9208,-4.0536 -4.7689,-6.19962 -5.1001,-6.19962 -0.1987,0 -0.3311,0.12585 -0.3311,0.32455 0,0.0994 0,0.16559 0.5961,0.76171 3.2455,3.25877 5.1663,8.51123 5.1663,15.41294 0,5.63662 -1.2585,11.44545 -5.365,15.60502 -0.3974,0.39079 -0.3974,0.46365 -0.3974,0.55637 0,0.19871 0.1324,0.33118 0.3311,0.33118 0.3312,0 3.2455,-2.24537 5.2326,-6.43144 1.6559,-3.62307 2.0533,-7.28588 2.0533,-10.06113 z"
           inkscape:connector-curvature="0"
           style="font-style:normal;font-variant:normal;font-weight:normal;font-stretch:normal;letter-spacing:normal;word-spacing:normal;text-anchor:start;fill:#000000;stroke:#000000;stroke-width:0;stroke-linecap:butt;stroke-linejoin:miter;stroke-miterlimit:10.43299961;stroke-opacity:1;stroke-dasharray:none;stroke-dashoffset:0" />
        <path
           id="path3321"
           d="m 1157.4463,152.48899 0,-0.0861 0.066,-0.0994 0,-0.10597 0,-0.11923 0.066,-0.12585 0.066,-0.13908 0,-0.14572 0.066,-0.14572 0.066,-0.15234 0.066,-0.15897 0.066,-0.16558 0.066,-0.15897 0.066,-0.16559 0.066,-0.16559 0.066,-0.16559 0.1325,-0.16559 0.066,-0.15896 0.1325,-0.15896 0.066,-0.15234 0.1325,-0.14572 0.1324,-0.14572 0.1325,-0.13247 0.1325,-0.12584 0.1325,-0.11923 0.1987,-0.10597 0.1324,-0.0927 0.066,-0.0464 0.1324,-0.0398 0.066,-0.0332 0.066,-0.0331 0.1325,-0.0332 0.066,-0.0265 0.1325,-0.0199 0.066,-0.0199 0.1325,-0.0133 0.066,-0.0133 0.1325,-0.007 0.066,0 c 0.1988,0 0.9935,0 1.6559,0.42391 -0.9273,0.16559 -1.5896,0.99353 -1.5896,1.78173 0,0.52326 0.3974,1.15911 1.2584,1.15911 0.7286,0 1.7884,-0.58949 1.7884,-1.91419 0,-1.72212 -1.9209,-2.17252 -3.0468,-2.17252 -1.9209,0 -3.1131,1.74861 -3.5105,2.50369 -0.7948,-2.17251 -2.5832,-2.50369 -3.5105,-2.50369 -3.4442,0 -5.365,4.2523 -5.365,5.08024 0,0.33118 0.3311,0.33118 0.3974,0.33118 0.2649,0 0.3974,-0.0729 0.4636,-0.3643 1.126,-3.49722 3.3118,-4.32516 4.4378,-4.32516 0.5961,0 1.7221,0.29144 1.7221,2.20564 0,1.02002 -0.5299,3.2389 -1.7221,7.85549 -0.5299,2.04668 -1.7221,3.43099 -3.1793,3.43099 -0.1987,0 -0.9273,0 -1.6559,-0.43053 0.8611,-0.15896 1.5897,-0.84781 1.5897,-1.78172 0,-0.88756 -0.7286,-1.14588 -1.2585,-1.14588 -0.9935,0 -1.7884,0.85444 -1.7884,1.9142 0,1.51017 1.6559,2.17252 3.1131,2.17252 2.1858,0 3.378,-2.31161 3.4442,-2.50369 0.3974,1.21873 1.5897,2.50369 3.5767,2.50369 3.3781,0 5.2988,-4.2523 5.2988,-5.08024 0,-0.33118 -0.3311,-0.33118 -0.3974,-0.33118 -0.3312,0 -0.3974,0.13247 -0.4636,0.35767 -1.0597,3.53034 -3.3118,4.32516 -4.3715,4.32516 -1.3247,0 -1.8546,-1.05314 -1.8546,-2.17914 0,-0.72858 0.1987,-1.45055 0.5961,-2.9011 z"
           inkscape:connector-curvature="0"
           style="font-style:normal;font-variant:normal;font-weight:normal;font-stretch:normal;letter-spacing:normal;word-spacing:normal;text-anchor:start;fill:#000000;stroke:#000000;stroke-width:0;stroke-linecap:butt;stroke-linejoin:miter;stroke-miterlimit:10.43299961;stroke-opacity:1;stroke-dasharray:none;stroke-dashoffset:0" />
        <path
           id="path3323"
           d="m 1176.1909,170.3725 0,-0.0133 0,-0.0199 0,-0.007 0,-0.0133 0,-0.007 0,-0.0133 0,-0.007 -0.066,-0.0133 0,-0.0133 0,-0.0133 0,-0.0133 0,-0.0199 0,-0.0133 0,-0.0199 -0.066,-0.0199 0,-0.0199 0,-0.0199 0,-0.0265 -0.066,-0.0133 0,-0.0133 0,-0.0133 0,-0.0133 0,-0.0133 0,-0.0199 -0.066,-0.0133 0,-0.0133 0,-0.0199 0,-0.0133 -0.066,-0.0199 0,-0.0199 0,-0.0199 0,-0.0199 -0.066,-0.0199 0,-0.0199 0,-0.0199 -0.066,-0.0199 0,-0.0265 0,-0.0199 -0.066,-0.0265 0,-0.0199 0,-0.0265 -0.066,-0.0265 c -4.1067,-4.15957 -5.1664,-10.3923 -5.1664,-15.43943 0,-5.74259 1.2585,-11.49182 5.2988,-15.60502 0.4637,-0.40403 0.4637,-0.47027 0.4637,-0.56962 0,-0.23183 -0.1325,-0.32456 -0.3312,-0.32456 -0.3312,0 -3.3118,2.23876 -5.2326,6.42482 -1.7221,3.63631 -2.1195,7.29912 -2.1195,10.07438 0,2.57655 0.3974,6.55729 2.1857,10.29295 1.9871,4.06023 4.8352,6.19962 5.1664,6.19962 0.1987,0 0.3312,-0.0927 0.3312,-0.33118 z"
           inkscape:connector-curvature="0"
           style="font-style:normal;font-variant:normal;font-weight:normal;font-stretch:normal;letter-spacing:normal;word-spacing:normal;text-anchor:start;fill:#000000;stroke:#000000;stroke-width:0;stroke-linecap:butt;stroke-linejoin:miter;stroke-miterlimit:10.43299961;stroke-opacity:1;stroke-dasharray:none;stroke-dashoffset:0" />
        <path
           id="path3325"
           d="m 1184.8677,149.26334 h 3.113 c 0.5961,0 0.9273,0 0.9273,-0.66236 0,-0.36429 -0.3312,-0.36429 -0.861,-0.36429 h -2.9144 c 1.1923,-4.68946 1.3248,-5.35181 1.3248,-5.54389 0,-0.563 -0.3975,-0.89417 -0.9273,-0.89417 -0.1325,0 -1.0598,0.0331 -1.3248,1.19223 l -1.3247,5.24583 h -3.0468 c -0.6624,0 -1.0598,0 -1.0598,0.62261 0,0.40404 0.3312,0.40404 0.9935,0.40404 h 2.8482 c -2.3845,9.36566 -2.517,9.92204 -2.517,10.52477 0,1.78173 1.2585,3.03358 3.0469,3.03358 3.378,0 5.2988,-4.8153 5.2988,-5.08024 0,-0.33118 -0.265,-0.33118 -0.3974,-0.33118 -0.3312,0 -0.3312,0.0994 -0.5299,0.46364 -1.3909,3.42437 -3.1793,4.21919 -4.3053,4.21919 -0.6624,0 -0.9935,-0.43053 -0.9935,-1.51679 0,-0.7882 0.066,-1.02664 0.1987,-1.58302 z"
           inkscape:connector-curvature="0"
           style="font-style:normal;font-variant:normal;font-weight:normal;font-stretch:normal;letter-spacing:normal;word-spacing:normal;text-anchor:start;fill:#000000;stroke:#000000;stroke-width:0;stroke-linecap:butt;stroke-linejoin:miter;stroke-miterlimit:10.43299961;stroke-opacity:1;stroke-dasharray:none;stroke-dashoffset:0" />
        <path
           id="path3327"
           d="m 1210.9644,154.87346 h 9.2067 c 0.3973,0 1.0597,0 1.0597,-0.66235 0,-0.66235 -0.6624,-0.66235 -1.0597,-0.66235 h -9.2067 v -9.24644 c 0,-0.4504 0,-1.08626 -0.6624,-1.08626 -0.6623,0 -0.6623,0.63586 -0.6623,1.08626 v 9.24644 h -9.273 c -0.4636,0 -1.0597,0 -1.0597,0.66235 0,0.66235 0.5961,0.66235 1.0597,0.66235 h 9.273 v 9.23319 c 0,0.46365 0,1.09289 0.6623,1.09289 0.6624,0 0.6624,-0.62924 0.6624,-1.09289 z"
           inkscape:connector-curvature="0"
           style="font-style:normal;font-variant:normal;font-weight:normal;font-stretch:normal;letter-spacing:normal;word-spacing:normal;text-anchor:start;fill:#000000;stroke:#000000;stroke-width:0;stroke-linecap:butt;stroke-linejoin:miter;stroke-miterlimit:10.43299961;stroke-opacity:1;stroke-dasharray:none;stroke-dashoffset:0" />
        <path
           id="path3329"
           d="m 1247.46,139.91755 0,0 0,-0.007 0,0 0,-0.007 0,-0.0133 0,-0.007 0,-0.0133 0,-0.0133 0,-0.0133 0,-0.0133 0,-0.0133 0,-0.0133 0,-0.0133 -0.066,-0.0199 0,-0.0133 0,-0.0199 0,-0.0133 0,-0.0199 0,-0.0133 0,-0.0133 -0.066,-0.0199 0,-0.007 0,-0.007 0,-0.007 0,-0.007 0,-0.007 0,-0.007 -0.066,-0.007 0,-0.007 0,-0.007 0,-0.007 0,0 -0.066,-0.007 0,-0.007 0,0 0,-0.007 0,-0.007 -0.066,0 0,0 0,-0.007 0,0 -0.066,0 0,-0.007 0,0 -0.066,0 c -0.4636,0 -3.5767,0.30469 -4.1728,0.3643 -0.2649,0.0332 -0.4636,0.19871 -0.4636,0.62923 0,0.39742 0.3311,0.39742 0.7948,0.39742 1.5897,0 1.6559,0.22519 1.6559,0.55637 l -0.066,0.66235 -1.9871,7.82238 c -0.5961,-1.21873 -1.5897,-2.10628 -3.0469,-2.10628 l 0,0.72196 c 2.1858,0 2.6495,2.7024 2.6495,2.89449 0,0.21195 -0.066,0.40403 -0.1325,0.56962 l -1.6559,6.47118 c -0.1325,0.58949 -0.1325,0.64911 -0.6624,1.21873 -1.4571,1.81484 -2.7819,2.3381 -3.7091,2.3381 -1.6559,0 -2.1195,-1.80822 -2.1195,-3.09981 0,-1.64925 1.0597,-5.70285 1.7883,-7.22626 1.0598,-1.94732 2.5169,-3.16605 3.8416,-3.16605 l 0,-0.72196 c -3.8416,0 -7.9482,4.8418 -7.9482,9.66372 0,3.10643 1.7884,5.27895 4.3716,5.27895 0.6623,0 2.3182,-0.13909 4.3052,-2.4772 0.265,1.39094 1.391,2.4772 2.9806,2.4772 1.1923,0 1.9209,-0.75508 2.4507,-1.81484 0.5299,-1.18562 0.9935,-3.20579 0.9935,-3.2654 0,-0.33118 -0.3311,-0.33118 -0.3974,-0.33118 -0.3312,0 -0.3312,0.13247 -0.4636,0.59612 -0.5299,2.14602 -1.1922,4.08671 -2.5169,4.08671 -0.8611,0 -0.9936,-0.85443 -0.9936,-1.51679 0,-0.78819 0.066,-1.02664 0.1987,-1.58302 z"
           inkscape:connector-curvature="0"
           style="font-style:normal;font-variant:normal;font-weight:normal;font-stretch:normal;letter-spacing:normal;word-spacing:normal;text-anchor:start;fill:#000000;stroke:#000000;stroke-width:0;stroke-linecap:butt;stroke-linejoin:miter;stroke-miterlimit:10.43299961;stroke-opacity:1;stroke-dasharray:none;stroke-dashoffset:0" />
        <path
           id="path3331"
           d="m 1257.1303,154.21111 0,-0.24507 0,-0.25832 0,-0.25831 0,-0.27157 -0.066,-0.55638 0,-0.58287 -0.066,-0.60936 -0.066,-0.62923 -0.1325,-0.64249 -0.066,-0.66898 -0.1325,-0.67559 -0.1324,-0.68223 -0.1988,-0.69546 -0.1987,-0.7021 -0.2649,-0.70872 -0.2649,-0.70872 -0.1325,-0.35104 -0.1325,-0.35105 -0.1325,-0.35104 -0.1987,-0.35105 c -1.987,-4.0536 -4.8351,-6.19962 -5.1663,-6.19962 -0.1325,0 -0.3312,0.12585 -0.3312,0.32455 0,0.0994 0,0.16559 0.6624,0.76171 3.2455,3.25877 5.1001,8.51123 5.1001,15.41294 0,5.63662 -1.1923,11.44545 -5.2988,15.60502 -0.4637,0.39079 -0.4637,0.46365 -0.4637,0.55637 0,0.19871 0.1987,0.33118 0.3312,0.33118 0.3312,0 3.3118,-2.24537 5.2988,-6.43144 1.6559,-3.62307 2.0533,-7.28588 2.0533,-10.06113 z"
           inkscape:connector-curvature="0"
           style="font-style:normal;font-variant:normal;font-weight:normal;font-stretch:normal;letter-spacing:normal;word-spacing:normal;text-anchor:start;fill:#000000;stroke:#000000;stroke-width:0;stroke-linecap:butt;stroke-linejoin:miter;stroke-miterlimit:10.43299961;stroke-opacity:1;stroke-dasharray:none;stroke-dashoffset:0" />
        <g
           transform="matrix(0.62310181,0,0,0.62310181,277.00961,-60.291695)"
           id="g3637">
          <path
             style="font-style:normal;font-variant:normal;font-weight:normal;font-stretch:normal;letter-spacing:normal;word-spacing:normal;text-anchor:start;fill:#000000;stroke:#000000;stroke-width:0;stroke-linecap:butt;stroke-linejoin:miter;stroke-miterlimit:10.43299961;stroke-opacity:1;stroke-dasharray:none;stroke-dashoffset:0"
             inkscape:connector-curvature="0"
             d="m 1225.801,396.39154 h 3.8268 c 0.6377,0 1.1692,0 1.1692,-0.80787 0,-0.52087 -0.5315,-0.52087 -1.0629,-0.52087 h -3.6142 l 1.3819,-5.47441 c 0.1063,-0.18071 0.1063,-0.37205 0.1063,-0.52087 0,-0.68031 -0.4252,-1.19055 -1.1693,-1.19055 -0.9567,0 -1.4882,0.62717 -1.8071,1.59449 -0.2126,0.9248 0.2126,-0.85039 -1.3819,5.59134 h -3.8268 c -0.6378,0 -1.1693,0 -1.1693,0.8185 0,0.51024 0.4252,0.51024 1.1693,0.51024 h 3.5079 l -2.2323,8.7378 c -0.2126,0.93543 -0.5315,2.26417 -0.5315,2.74251 0,2.18977 1.8071,3.51851 3.9331,3.51851 4.1457,0 6.4842,-5.17677 6.4842,-5.65512 0,-0.48898 -0.5315,-0.48898 -0.6377,-0.48898 -0.4252,0 -0.4252,0.085 -0.7441,0.70158 -1.063,2.33858 -2.9764,4.42205 -4.9961,4.42205 -0.7441,0 -1.2756,-0.48898 -1.2756,-1.81772 0,-0.38268 0.2126,-1.15866 0.2126,-1.53071 z"
             id="path3303" />
          <path
             style="font-style:normal;font-variant:normal;font-weight:normal;font-stretch:normal;letter-spacing:normal;word-spacing:normal;text-anchor:start;fill:#000000;stroke:#000000;stroke-width:0;stroke-linecap:butt;stroke-linejoin:miter;stroke-miterlimit:10.43299961;stroke-opacity:1;stroke-dasharray:none;stroke-dashoffset:0"
             inkscape:connector-curvature="0"
             d="m 1261.0923,398.59193 0.1063,0 0,0 0.1063,0 0,0 0.1063,-0.0106 0.1063,0 0,-0.0106 0.1063,0 0.1063,-0.0106 0,-0.0106 0.1063,-0.0106 0,-0.0106 0.1063,-0.0213 0,-0.0106 0.1063,-0.0213 0,-0.0213 0.1063,-0.0319 0,-0.0319 0.1063,-0.0319 0,-0.0319 0,-0.0425 0.1063,-0.0425 0,-0.0213 0,-0.0213 0,-0.0319 0,-0.0213 0.1063,-0.0319 0,-0.0213 0,-0.0319 0,-0.0319 0,-0.0319 0,-0.0319 0,-0.0319 0,-0.0319 0,-0.0425 0,-0.0319 0,-0.0425 0,-0.0425 0,-0.0425 0,-0.0425 c 0,-0.89291 -0.8504,-0.89291 -1.2756,-0.89291 h -24.5551 c -0.5315,0 -1.3819,0 -1.3819,0.89291 0,0.93543 0.8504,0.93543 1.3819,0.93543 z"
             id="path3305" />
          <path
             style="font-style:normal;font-variant:normal;font-weight:normal;font-stretch:normal;letter-spacing:normal;word-spacing:normal;text-anchor:start;fill:#000000;stroke:#000000;stroke-width:0;stroke-linecap:butt;stroke-linejoin:miter;stroke-miterlimit:10.43299961;stroke-opacity:1;stroke-dasharray:none;stroke-dashoffset:0"
             inkscape:connector-curvature="0"
             d="m 1261.1986,406.72382 0,0 0,0 0.1063,0 0,0 0.1063,0 0,0 0.1063,-0.0106 0,0 0.1063,-0.0106 0.1063,0 0,-0.0106 0.1063,-0.0106 0,-0.0106 0.1063,-0.0213 0,-0.0106 0.1063,-0.0213 0,-0.0213 0.1063,-0.0213 0,-0.0319 0.1063,-0.0319 0,-0.0319 0,-0.0425 0.1063,-0.0319 0,-0.0213 0,-0.0319 0,-0.0213 0,-0.0213 0,-0.0319 0.1063,-0.0213 0,-0.0319 0,-0.0213 0,-0.0319 0,-0.0319 0,-0.0319 0,-0.0319 0,-0.0425 0,-0.0319 0,-0.0319 0,-0.0425 0,-0.0425 0,-0.0319 c 0,-0.93543 -0.8504,-0.93543 -1.3819,-0.93543 h -24.4488 c -0.5315,0 -1.3819,0 -1.3819,0.93543 0,0.87165 0.8504,0.87165 1.3819,0.87165 z"
             id="path3307" />
          <path
             style="font-style:normal;font-variant:normal;font-weight:normal;font-stretch:normal;letter-spacing:normal;word-spacing:normal;text-anchor:start;fill:#000000;stroke:#000000;stroke-width:0;stroke-linecap:butt;stroke-linejoin:miter;stroke-miterlimit:10.43299961;stroke-opacity:1;stroke-dasharray:none;stroke-dashoffset:0"
             inkscape:connector-curvature="0"
             d="m 1292.7695,402.66319 0,-0.0106 0.1063,0 0.1063,0 0.1063,0 0.1063,0 0,-0.0106 0.1063,0 0.1063,-0.0106 0,-0.0106 0.1063,-0.0106 0,-0.0106 0.1063,-0.0213 0,-0.0106 0.1063,-0.0213 0,-0.0213 0.1063,-0.0319 0,-0.0213 0.1063,-0.0319 0,-0.0319 0.1063,-0.0425 0,-0.0425 0,-0.0213 0,-0.0213 0,-0.0213 0.1063,-0.0319 0,-0.0213 0,-0.0319 0,-0.0213 0,-0.0319 0,-0.0319 0,-0.0319 0,-0.0319 0,-0.0319 0.1063,-0.0425 0,-0.0319 0,-0.0425 0,-0.0319 0,-0.0425 0,-0.0425 c 0,-0.91417 -0.8504,-0.91417 -1.4882,-0.91417 h -22.1103 c -0.5314,0 -1.4881,0 -1.4881,0.88228 0,0.93543 0.8504,0.93543 1.4881,0.93543 z"
             id="path3309" />
          <path
             style="font-style:normal;font-variant:normal;font-weight:normal;font-stretch:normal;letter-spacing:normal;word-spacing:normal;text-anchor:start;fill:#000000;stroke:#000000;stroke-width:0;stroke-linecap:butt;stroke-linejoin:miter;stroke-miterlimit:10.43299961;stroke-opacity:1;stroke-dasharray:none;stroke-dashoffset:0"
             inkscape:connector-curvature="0"
             d="m 1313.9509,391.1811 0,-0.0425 0,-0.0532 0,-0.0425 0,-0.0532 0.1063,-0.0425 0,-0.0425 0,-0.0425 0,-0.0425 0,-0.0744 0,-0.0744 0,-0.0638 0.1063,-0.0638 0,-0.0638 0,-0.0532 0,-0.0531 0,-0.0425 0.1063,-0.0425 0,-0.0425 0,-0.0425 0,-0.0319 0.1063,-0.0319 0,-0.0213 0,-0.0319 0.1063,-0.0213 0,-0.0213 0,-0.0213 0.1063,-0.0106 0,-0.0213 0.1063,-0.0106 0,-0.0106 0.1063,-0.0106 0,-0.0106 0.1063,-0.0106 0,0 0.1063,-0.0106 0.1063,0 c 0.2126,-0.0425 1.4882,-0.0425 2.2323,-0.0425 2.2323,0 3.189,0 4.1457,0.30827 1.5944,0.51023 1.7007,1.59448 1.7007,2.92322 0,0.57402 0,1.063 -0.2126,2.98701 l -0.1063,0.41457 c 0,0.36142 0.2126,0.54212 0.6378,0.54212 0.5315,0 0.6378,-0.32952 0.7441,-0.91417 l 0.9567,-7.0689 c 0,-0.53149 -0.4252,-0.53149 -1.1693,-0.53149 h -22.748 c -0.8504,0 -0.9567,0 -1.2756,0.77598 l -2.3386,6.55866 c 0,0.15945 -0.1063,0.48898 -0.1063,0.66969 0,0.14882 0,0.51023 0.6378,0.51023 0.4252,0 0.5315,-0.1807 0.7441,-0.87165 2.126,-5.9315 3.4016,-6.30354 9.0355,-6.30354 h 1.4881 c 1.1693,0 1.1693,0.0425 1.1693,0.37204 0,0.0319 0,0.2126 -0.1063,0.77599 l -4.8897,19.48464 c -0.4252,1.36063 -0.5315,1.74331 -4.3583,1.74331 -1.3819,0 -1.7008,0 -1.7008,0.8185 0,0.0957 0.1063,0.51024 0.6378,0.51024 1.063,0 2.126,-0.11693 3.189,-0.11693 1.063,0 2.126,-0.0319 3.189,-0.0319 1.063,0 2.3386,0 3.2952,0.0319 1.063,0.0532 2.126,0.11693 3.189,0.11693 0.2126,0 0.8504,0 0.8504,-0.80787 0,-0.52087 -0.4252,-0.52087 -1.5945,-0.52087 -0.6378,0 -1.3819,-0.0532 -2.126,-0.085 -1.2755,-0.0957 -1.2755,-0.24449 -1.2755,-0.69094 0,-0.26575 0,-0.34016 0.1063,-0.8504 z"
             id="path3301-0" />
        </g>
        <path
           id="path3245-0"
           d="m 551.52146,-24.243253 0.0199,-0.0861 0.0265,-0.0994 0.0265,-0.10597 0.0331,-0.11923 0.0331,-0.12585 0.0398,-0.13908 0.0464,-0.14572 0.0464,-0.14572 0.053,-0.15234 0.0596,-0.15897 0.0596,-0.16558 0.0662,-0.15897 0.0795,-0.16559 0.0795,-0.16559 0.0795,-0.16559 0.0927,-0.16559 0.0994,-0.15896 0.10598,-0.15896 0.10598,-0.15234 0.11922,-0.14572 0.12584,-0.14572 0.13248,-0.13247 0.13247,-0.12584 0.15234,-0.11923 0.15234,-0.10597 0.15897,-0.0927 0.0861,-0.0464 0.0861,-0.0398 0.0861,-0.0332 0.0927,-0.0331 0.0927,-0.0332 0.0927,-0.0265 0.0927,-0.0199 0.0993,-0.0199 0.10598,-0.0133 0.0993,-0.0133 0.10598,-0.007 0.10597,0 c 0.16559,0 0.95379,0 1.64926,0.42391 -0.92067,0.16559 -1.58302,0.99353 -1.58302,1.78173 0,0.52326 0.35767,1.15911 1.25185,1.15911 0.72196,0 1.7751,-0.58949 1.7751,-1.91419 0,-1.72212 -1.94069,-2.17252 -3.06007,-2.17252 -1.9142,0 -3.07331,1.74861 -3.47073,2.50369 -0.82797,-2.1725 -2.60307,-2.50368 -3.55685,-2.50368 -3.43761,0 -5.3187,4.2523 -5.3187,5.08024 0,0.33118 0.33118,0.33118 0.40404,0.33118 0.25832,0 0.35767,-0.0729 0.42391,-0.3643 1.11937,-3.49722 3.29851,-4.32516 4.41789,-4.32516 0.62923,0 1.78173,0.29144 1.78173,2.20564 0,1.02002 -0.56301,3.2389 -1.78173,7.85549 -0.52989,2.04668 -1.67575,3.43099 -3.13293,3.43099 -0.19871,0 -0.95379,0 -1.64926,-0.43053 0.82794,-0.15896 1.55653,-0.84781 1.55653,-1.78172 0,-0.88756 -0.72859,-1.14588 -1.22535,-1.14588 -0.99353,0 -1.82147,0.85444 -1.82147,1.9142 0,1.51017 1.65588,2.17252 3.10643,2.17252 2.18576,0 3.36475,-2.31161 3.4641,-2.50369 0.39742,1.21873 1.58302,2.50369 3.56346,2.50369 3.40449,0 5.28557,-4.2523 5.28557,-5.08024 0,-0.33118 -0.29806,-0.33118 -0.40404,-0.33118 -0.2848,0 -0.35766,0.13247 -0.4239,0.35767 -1.08626,3.53034 -3.33163,4.32516 -4.38477,4.32516 -1.29821,0 -1.82147,-1.05314 -1.82147,-2.17914 0,-0.72858 0.19208,-1.45055 0.56962,-2.9011 z"
           inkscape:connector-curvature="0"
           style="font-style:normal;font-variant:normal;font-weight:normal;font-stretch:normal;letter-spacing:normal;word-spacing:normal;text-anchor:start;fill:#000080;stroke:#000080;stroke-width:0;stroke-linecap:butt;stroke-linejoin:miter;stroke-miterlimit:10.43299961;stroke-opacity:1;stroke-dasharray:none;stroke-dashoffset:0" />
        <path
           id="path3247-1"
           d="m 570.25941,-6.3597433 0,-0.0133 -0.007,-0.0199 0,-0.007 0,-0.0133 0,-0.007 -0.007,-0.0133 0,-0.007 -0.007,-0.0133 -0.007,-0.0133 -0.007,-0.0133 -0.007,-0.0133 -0.007,-0.0199 -0.0133,-0.0133 -0.0133,-0.0199 -0.0133,-0.0199 -0.0133,-0.0199 -0.0199,-0.0199 -0.0199,-0.0265 -0.0133,-0.0133 -0.007,-0.0133 -0.0133,-0.0133 -0.0133,-0.0133 -0.0133,-0.0133 -0.0133,-0.0199 -0.0133,-0.0133 -0.0133,-0.0133 -0.0133,-0.0199 -0.0199,-0.0133 -0.0133,-0.0199 -0.0199,-0.0199 -0.0133,-0.0199 -0.0199,-0.0199 -0.0199,-0.0199 -0.0199,-0.0199 -0.0199,-0.0199 -0.0199,-0.0199 -0.0265,-0.0265 -0.0199,-0.0199 -0.0199,-0.0265 -0.0265,-0.0199 -0.0265,-0.0265 -0.0265,-0.0265 c -4.11983,-4.1595697 -5.17297,-10.3922997 -5.17297,-15.4394297 0,-5.74259 1.25184,-11.49182 5.30544,-15.60502 0.43036,-0.40412 0.43036,-0.47036 0.43036,-0.56971 0,-0.23183 -0.12585,-0.32456 -0.32455,-0.32456 -0.33118,0 -3.29852,2.23876 -5.24584,6.42482 -1.68899,3.63631 -2.07978,7.29912 -2.07978,10.07438 0,2.57655 0.36429,6.55729 2.17251,10.29295 1.97382,4.0602297 4.82193,6.1996197 5.15311,6.1996197 0.1987,0 0.32455,-0.0927 0.32455,-0.33118 z"
           inkscape:connector-curvature="0"
           style="font-style:normal;font-variant:normal;font-weight:normal;font-stretch:normal;letter-spacing:normal;word-spacing:normal;text-anchor:start;fill:#000080;stroke:#000080;stroke-width:0;stroke-linecap:butt;stroke-linejoin:miter;stroke-miterlimit:10.43299961;stroke-opacity:1;stroke-dasharray:none;stroke-dashoffset:0" />
        <path
           id="path3249-6"
           d="m 578.9296,-27.468903 h 3.10643 c 0.64911,0 0.98029,0 0.98029,-0.66236 0,-0.36429 -0.33118,-0.36429 -0.91405,-0.36429 h -2.91435 c 1.19223,-4.68946 1.35782,-5.35181 1.35782,-5.54389 0,-0.563 -0.39079,-0.89417 -0.95379,-0.89417 -0.0993,0 -1.02002,0.0331 -1.3247,1.19223 l -1.27834,5.24583 h -3.10644 c -0.66235,0 -0.99352,0 -0.99352,0.62261 0,0.40404 0.27156,0.40404 0.93392,0.40404 h 2.89447 c -2.37122,9.36566 -2.50369,9.92204 -2.50369,10.52477 0,1.78173 1.25185,3.03358 3.03357,3.03358 3.36475,0 5.24583,-4.8153 5.24583,-5.08024 0,-0.33118 -0.25831,-0.33118 -0.39078,-0.33118 -0.30468,0 -0.33118,0.0994 -0.49677,0.46364 -1.42405,3.42437 -3.17266,4.21919 -4.28542,4.21919 -0.69547,0 -1.02664,-0.43053 -1.02664,-1.51679 0,-0.7882 0.0596,-1.02664 0.1987,-1.58302 z"
           inkscape:connector-curvature="0"
           style="font-style:normal;font-variant:normal;font-weight:normal;font-stretch:normal;letter-spacing:normal;word-spacing:normal;text-anchor:start;fill:#000080;stroke:#000080;stroke-width:0;stroke-linecap:butt;stroke-linejoin:miter;stroke-miterlimit:10.43299961;stroke-opacity:1;stroke-dasharray:none;stroke-dashoffset:0" />
        <path
           id="path3251-0"
           d="m 593.58746,-22.521133 0,-0.24507 -0.007,-0.25832 -0.007,-0.25831 -0.007,-0.27157 -0.0265,-0.55638 -0.0397,-0.58287 -0.053,-0.60936 -0.0729,-0.62923 -0.0861,-0.64249 -0.1126,-0.66898 -0.12591,-0.67559 -0.15234,-0.68223 -0.17883,-0.69546 -0.20533,-0.7021 -0.23182,-0.70872 -0.25832,-0.70872 -0.1391,-0.35104 -0.15234,-0.35105 -0.15234,-0.35104 -0.16559,-0.35105 c -1.98043,-4.0536 -4.8153,-6.19962 -5.14647,-6.19962 -0.19209,0 -0.33118,0.12585 -0.33118,0.32455 0,0.0994 0,0.16559 0.62261,0.76171 3.23891,3.25877 5.11998,8.51123 5.11998,15.41294 0,5.63662 -1.21872,11.44545 -5.31868,15.6050197 -0.42391,0.39079 -0.42391,0.46365 -0.42391,0.55637 0,0.19871 0.13909,0.33118 0.33118,0.33118 0.33117,0 3.29189,-2.24537 5.24582,-6.4314397 1.68238,-3.62307 2.07317,-7.28588 2.07317,-10.06113 z"
           inkscape:connector-curvature="0"
           style="font-style:normal;font-variant:normal;font-weight:normal;font-stretch:normal;letter-spacing:normal;word-spacing:normal;text-anchor:start;fill:#000080;stroke:#000080;stroke-width:0;stroke-linecap:butt;stroke-linejoin:miter;stroke-miterlimit:10.43299961;stroke-opacity:1;stroke-dasharray:none;stroke-dashoffset:0" />
        <path
           id="path3255-6"
           d="m 641.75163,-35.280325 0.0199,-0.0861 0.0265,-0.0994 0.0265,-0.10597 0.0331,-0.11923 0.0331,-0.12585 0.0398,-0.13908 0.0398,-0.14572 0.053,-0.14572 0.053,-0.15234 0.053,-0.15897 0.0662,-0.16558 0.0662,-0.15897 0.0729,-0.16559 0.0795,-0.16559 0.0861,-0.16559 0.0927,-0.16559 0.0993,-0.15896 0.0994,-0.15896 0.1126,-0.15234 0.11922,-0.14572 0.12585,-0.14572 0.12585,-0.13247 0.13909,-0.12584 0.14572,-0.11923 0.15896,-0.10597 0.15897,-0.0927 0.0861,-0.0464 0.0861,-0.0398 0.0861,-0.0332 0.0927,-0.0331 0.0861,-0.0332 0.0994,-0.0265 0.0927,-0.0199 0.0994,-0.0199 0.0993,-0.0133 0.10598,-0.0133 0.10597,-0.007 0.10598,0 c 0.16559,0 0.95379,0 1.64263,0.42391 -0.92067,0.16559 -1.58302,0.99353 -1.58302,1.78173 0,0.52326 0.36429,1.15911 1.25185,1.15911 0.72858,0 1.78172,-0.58949 1.78172,-1.91419 0,-1.72212 -1.94731,-2.17252 -3.06006,-2.17252 -1.9142,0 -3.07332,1.74861 -3.47073,2.50369 -0.82798,-2.1725 -2.60308,-2.50368 -3.55687,-2.50368 -3.43761,0 -5.31869,4.2523 -5.31869,5.08024 0,0.33118 0.33118,0.33118 0.40403,0.33118 0.25832,0 0.35768,-0.0729 0.42391,-0.3643 1.11275,-3.49722 3.29852,-4.32516 4.41789,-4.32516 0.62923,0 1.78173,0.29144 1.78173,2.20564 0,1.02002 -0.563,3.2389 -1.78173,7.85549 -0.52988,2.04668 -1.67575,3.43099 -3.13955,3.43099 -0.19208,0 -0.94716,0 -1.64263,-0.43053 0.82794,-0.15896 1.5499,-0.84781 1.5499,-1.78172 0,-0.88756 -0.72196,-1.14588 -1.21872,-1.14588 -0.99353,0 -1.82147,0.85444 -1.82147,1.9142 0,1.51017 1.65588,2.17252 3.10643,2.17252 2.17913,0 3.36475,-2.31161 3.4641,-2.50369 0.39741,1.21873 1.58302,2.50369 3.56346,2.50369 3.40449,0 5.28556,-4.2523 5.28556,-5.08024 0,-0.33118 -0.29805,-0.33118 -0.40403,-0.33118 -0.29144,0 -0.36429,0.13247 -0.42391,0.35767 -1.08625,3.53034 -3.33163,4.32516 -4.38476,4.32516 -1.29822,0 -1.82147,-1.05314 -1.82147,-2.17914 0,-0.72858 0.19207,-1.45055 0.56962,-2.9011 z"
           inkscape:connector-curvature="0"
           style="font-style:normal;font-variant:normal;font-weight:normal;font-stretch:normal;letter-spacing:normal;word-spacing:normal;text-anchor:start;fill:#0088aa;stroke:#000000;stroke-width:0;stroke-linecap:butt;stroke-linejoin:miter;stroke-miterlimit:10.43299961;stroke-opacity:1;stroke-dasharray:none;stroke-dashoffset:0" />
        <path
           id="path3257-2"
           d="m 660.48295,-17.396815 0,-0.0133 0,-0.0199 0,-0.007 0,-0.0133 0,-0.007 -0.007,-0.0133 0,-0.007 -0.007,-0.0133 -0.007,-0.0133 -0.007,-0.0133 -0.007,-0.0133 -0.0133,-0.0199 -0.007,-0.0133 -0.0133,-0.0199 -0.0133,-0.0199 -0.0199,-0.0199 -0.0133,-0.0199 -0.0199,-0.0265 -0.0133,-0.0133 -0.007,-0.0133 -0.0133,-0.0133 -0.0133,-0.0133 -0.0133,-0.0133 -0.0133,-0.0199 -0.0133,-0.0133 -0.0133,-0.0133 -0.0133,-0.0199 -0.0199,-0.0133 -0.0133,-0.0199 -0.0199,-0.0199 -0.0199,-0.0199 -0.0133,-0.0199 -0.0199,-0.0199 -0.0199,-0.0199 -0.0199,-0.0199 -0.0199,-0.0199 -0.0265,-0.0265 -0.0199,-0.0199 -0.0265,-0.0265 -0.0199,-0.0199 -0.0265,-0.0265 -0.0265,-0.0265 c -4.11984,-4.15957 -5.17298,-10.3923 -5.17298,-15.43943 0,-5.74259 1.25185,-11.49182 5.30545,-15.60502 0.42375,-0.40412 0.42375,-0.47036 0.42375,-0.56971 0,-0.23183 -0.11923,-0.32456 -0.31793,-0.32456 -0.33117,0 -3.29851,2.23876 -5.24583,6.42482 -1.689,3.63631 -2.07979,7.29912 -2.07979,10.07438 0,2.57655 0.35768,6.55729 2.17252,10.29295 1.97381,4.06023 4.82193,6.19962 5.1531,6.19962 0.1987,0 0.31793,-0.0927 0.31793,-0.33118 z"
           inkscape:connector-curvature="0"
           style="font-style:normal;font-variant:normal;font-weight:normal;font-stretch:normal;letter-spacing:normal;word-spacing:normal;text-anchor:start;fill:#0088aa;stroke:#000000;stroke-width:0;stroke-linecap:butt;stroke-linejoin:miter;stroke-miterlimit:10.43299961;stroke-opacity:1;stroke-dasharray:none;stroke-dashoffset:0" />
        <path
           id="path3259-3"
           d="m 669.15977,-38.505975 h 3.10643 c 0.64911,0 0.98028,0 0.98028,-0.66236 0,-0.36429 -0.33117,-0.36429 -0.92067,-0.36429 h -2.90772 c 1.19223,-4.68946 1.35782,-5.35181 1.35782,-5.54389 0,-0.563 -0.39741,-0.89417 -0.95379,-0.89417 -0.10598,0 -1.02002,0.0331 -1.3247,1.19223 l -1.28497,5.24583 h -3.09981 c -0.66235,0 -0.99352,0 -0.99352,0.62261 0,0.40404 0.26494,0.40404 0.92729,0.40404 h 2.9011 c -2.37122,9.36566 -2.50369,9.92204 -2.50369,10.52477 0,1.78173 1.25185,3.03358 3.03357,3.03358 3.35813,0 5.24584,-4.8153 5.24584,-5.08024 0,-0.33118 -0.25832,-0.33118 -0.39742,-0.33118 -0.29805,0 -0.33117,0.0994 -0.49676,0.46364 -1.41743,3.42437 -3.16604,4.21919 -4.28542,4.21919 -0.68885,0 -1.02002,-0.43053 -1.02002,-1.51679 0,-0.7882 0.0596,-1.02664 0.19208,-1.58302 z"
           inkscape:connector-curvature="0"
           style="font-style:normal;font-variant:normal;font-weight:normal;font-stretch:normal;letter-spacing:normal;word-spacing:normal;text-anchor:start;fill:#0088aa;stroke:#000000;stroke-width:0;stroke-linecap:butt;stroke-linejoin:miter;stroke-miterlimit:10.43299961;stroke-opacity:1;stroke-dasharray:none;stroke-dashoffset:0" />
        <path
           id="path3261-4"
           d="m 695.17034,-32.895855 h 9.21335 c 0.45698,0 1.08625,0 1.08625,-0.66235 0,-0.66235 -0.62927,-0.66235 -1.08625,-0.66235 h -9.21335 v -9.24644 c 0,-0.4504 0,-1.08626 -0.66235,-1.08626 -0.6491,0 -0.6491,0.63586 -0.6491,1.08626 v 9.24644 h -9.24644 c -0.46365,0 -1.08626,0 -1.08626,0.66235 0,0.66235 0.62261,0.66235 1.08626,0.66235 h 9.24644 v 9.23319 c 0,0.46365 0,1.09289 0.6491,1.09289 0.66235,0 0.66235,-0.62924 0.66235,-1.09289 z"
           inkscape:connector-curvature="0"
           style="font-style:normal;font-variant:normal;font-weight:normal;font-stretch:normal;letter-spacing:normal;word-spacing:normal;text-anchor:start;fill:#0088aa;stroke:#000000;stroke-width:0;stroke-linecap:butt;stroke-linejoin:miter;stroke-miterlimit:10.43299961;stroke-opacity:1;stroke-dasharray:none;stroke-dashoffset:0" />
        <path
           id="path3263-0"
           d="m 731.67923,-47.851765 0,0 0,-0.007 0,0 0,-0.007 0,-0.0133 0,-0.007 0,-0.0133 0,-0.0133 0,-0.0133 0,-0.0133 0,-0.0133 0,-0.0133 0,-0.0133 0,-0.0199 0,-0.0133 -0.0662,-0.0199 0,-0.0133 0,-0.0199 0,-0.0133 0,-0.0133 0,-0.0199 -0.0662,-0.007 0,-0.007 0,-0.007 0,-0.007 0,-0.007 0,-0.007 0,-0.007 -0.0662,-0.007 0,-0.007 0,-0.007 0,0 0,-0.007 -0.0662,-0.007 0,0 0,-0.007 0,-0.007 0,0 -0.0662,0 0,-0.007 0,0 0,0 -0.0662,-0.007 0,0 0,0 c -0.52988,0 -3.64296,0.30469 -4.23909,0.3643 -0.26494,0.0332 -0.46365,0.19871 -0.46365,0.62923 0,0.39742 0.33118,0.39742 0.79483,0.39742 1.58966,0 1.6559,0.22519 1.6559,0.55637 l -0.0662,0.66235 -1.98707,7.82238 c -0.59608,-1.21865 -1.58962,-2.1062 -3.04674,-2.1062 l 0,0.72196 c 2.18571,0 2.64936,2.7024 2.64936,2.89449 0,0.21195 -0.0662,0.40403 -0.13247,0.56962 l -1.65583,6.47118 c -0.13247,0.58949 -0.13247,0.64911 -0.66235,1.21873 -1.39095,1.81484 -2.7819,2.3381 -3.69593,2.3381 -1.64269,0 -2.11294,-1.80822 -2.11294,-3.09981 0,-1.64925 1.05977,-5.70285 1.81485,-7.22626 1.01341,-1.94732 2.53683,-3.16605 3.79531,-3.16605 l 0,-0.72196 c -3.85495,0 -7.94823,4.8418 -7.94823,9.66372 0,3.10643 1.81485,5.27895 4.39138,5.27895 0.64908,0 2.29837,-0.13909 4.28544,-2.4772 0.26488,1.39094 1.39089,2.4772 2.98055,2.4772 1.19224,0 1.92083,-0.75508 2.45072,-1.81484 0.59612,-1.18562 0.99353,-3.20579 0.99353,-3.2654 0,-0.33118 -0.26494,-0.33118 -0.39741,-0.33118 -0.33118,0 -0.33118,0.13247 -0.46365,0.59612 -0.52989,2.14602 -1.12601,4.08671 -2.51696,4.08671 -0.86106,0 -0.99353,-0.85443 -0.99353,-1.51679 0,-0.78819 0.0662,-1.02664 0.1987,-1.58302 z"
           inkscape:connector-curvature="0"
           style="font-style:normal;font-variant:normal;font-weight:normal;font-stretch:normal;letter-spacing:normal;word-spacing:normal;text-anchor:start;fill:#0088aa;stroke:#000000;stroke-width:0;stroke-linecap:butt;stroke-linejoin:miter;stroke-miterlimit:10.43299961;stroke-opacity:1;stroke-dasharray:none;stroke-dashoffset:0" />
        <path
           id="path3265-8"
           d="m 741.34958,-33.558205 0,-0.24507 0,-0.25832 0,-0.25831 0,-0.27157 -0.0662,-0.55638 0,-0.58287 -0.0662,-0.60936 -0.0662,-0.62923 -0.0662,-0.64249 -0.13246,-0.66898 -0.13247,-0.67559 -0.13247,-0.68223 -0.19871,-0.69546 -0.1987,-0.7021 -0.26495,-0.70872 -0.1987,-0.70872 -0.19871,-0.35104 -0.13247,-0.35105 -0.13247,-0.35104 -0.19871,-0.35105 c -1.98707,-4.0536 -4.76897,-6.19962 -5.10015,-6.19962 -0.19871,0 -0.33118,0.12585 -0.33118,0.32455 0,0.0994 0,0.16559 0.59612,0.76171 3.24555,3.25877 5.10015,8.51123 5.10015,15.41294 0,5.63662 -1.19224,11.44545 -5.29886,15.60502 -0.39741,0.39079 -0.39741,0.46365 -0.39741,0.55637 0,0.19871 0.13247,0.33118 0.33118,0.33118 0.33118,0 3.24555,-2.24537 5.23262,-6.43144 1.65589,-3.62307 2.05331,-7.28588 2.05331,-10.06113 z"
           inkscape:connector-curvature="0"
           style="font-style:normal;font-variant:normal;font-weight:normal;font-stretch:normal;letter-spacing:normal;word-spacing:normal;text-anchor:start;fill:#0088aa;stroke:#000000;stroke-width:0;stroke-linecap:butt;stroke-linejoin:miter;stroke-miterlimit:10.43299961;stroke-opacity:1;stroke-dasharray:none;stroke-dashoffset:0" />
        <path
           style="fill:none;stroke:#000000;stroke-width:1px;stroke-linecap:butt;stroke-linejoin:miter;stroke-opacity:1;marker-end:url(#Arrow1Lend)"
           d="m 67.680221,253.33152 603.061069,0"
           id="path4579"
           inkscape:connector-curvature="0"
           transform="matrix(1.1261382,0,0,1.1261382,443.64533,-200.54172)" />
        <text
           xml:space="preserve"
           style="font-size:40px;font-style:normal;font-weight:normal;line-height:125%;letter-spacing:0px;word-spacing:0px;fill:#000000;fill-opacity:1;stroke:none;font-family:Sans"
           x="680.84283"
           y="244.24014"
           id="text5025"
           sodipodi:linespacing="125%"
           transform="matrix(1.1261382,0,0,1.1261382,443.64533,-200.54172)"><tspan
             sodipodi:role="line"
             id="tspan5027"
             x="680.84283"
             y="244.24014" /></text>
        <path
           id="path3325-8"
           d="m 1211.3952,82.835348 h 3.113 c 0.5961,0 0.9273,0 0.9273,-0.66236 0,-0.36429 -0.3312,-0.36429 -0.861,-0.36429 h -2.9144 c 1.1923,-4.68946 1.3248,-5.35181 1.3248,-5.54389 0,-0.563 -0.3975,-0.89417 -0.9273,-0.89417 -0.1325,0 -1.0598,0.0331 -1.3248,1.19223 l -1.3247,5.24583 h -3.0468 c -0.6624,0 -1.0598,0 -1.0598,0.62261 0,0.40404 0.3312,0.40404 0.9935,0.40404 h 2.8482 c -2.3845,9.36566 -2.517,9.92204 -2.517,10.52477 0,1.78173 1.2585,3.03358 3.0469,3.03358 3.378,0 5.2988,-4.8153 5.2988,-5.08024 0,-0.33118 -0.265,-0.33118 -0.3974,-0.33118 -0.3312,0 -0.3312,0.0994 -0.5299,0.46364 -1.3909,3.42437 -3.1793,4.21919 -4.3053,4.21919 -0.6624,0 -0.9935,-0.43053 -0.9935,-1.51679 0,-0.7882 0.066,-1.02664 0.1987,-1.58302 z"
           inkscape:connector-curvature="0"
           style="font-style:normal;font-variant:normal;font-weight:normal;font-stretch:normal;letter-spacing:normal;word-spacing:normal;text-anchor:start;fill:#000000;stroke:#000000;stroke-width:0;stroke-linecap:butt;stroke-linejoin:miter;stroke-miterlimit:10.43299961;stroke-opacity:1;stroke-dasharray:none;stroke-dashoffset:0" />
      </g>
      <g
         id="g4513"
         transform="matrix(0.75767937,0,0,0.75767937,279.77778,3.0173795)">
        <path
           style="font-style:normal;font-variant:normal;font-weight:normal;font-stretch:normal;letter-spacing:normal;word-spacing:normal;text-anchor:start;fill:#000000;stroke:#000000;stroke-width:0;stroke-linecap:butt;stroke-linejoin:miter;stroke-miterlimit:10.43299961;stroke-opacity:1;stroke-dasharray:none;stroke-dashoffset:0"
           inkscape:connector-curvature="0"
           d="m 457.92915,-22.526403 0,0 0,-0.007 0,0 0,-0.007 0,-0.0133 0,-0.007 0,-0.0133 0,-0.0133 0,-0.0133 0,-0.0133 0,-0.0133 0,-0.0133 0,-0.0133 0,-0.0199 0,-0.0133 -0.0662,-0.0199 0,-0.0133 0,-0.0199 0,-0.0133 0,-0.0133 0,-0.0199 -0.0662,-0.007 0,-0.007 0,-0.007 0,-0.007 0,-0.007 0,-0.007 0,-0.007 -0.0662,-0.007 0,-0.007 0,-0.007 0,0 0,-0.007 -0.0662,-0.007 0,0 0,-0.007 0,-0.007 0,0 -0.0662,0 0,-0.007 0,0 0,0 -0.0662,-0.007 0,0 0,0 c -0.52988,0 -3.64296,0.30469 -4.23909,0.3643 -0.26494,0.0332 -0.46365,0.19871 -0.46365,0.62923 0,0.39742 0.33118,0.39742 0.79483,0.39742 1.58966,0 1.6559,0.22519 1.6559,0.55637 l -0.0662,0.66235 -1.98707,7.82238 c -0.59612,-1.21873 -1.58966,-2.10628 -3.04678,-2.10628 l 0,0.72196 c 2.18571,0 2.64936,2.7024 2.64936,2.89449 0,0.21195 -0.0662,0.40403 -0.13247,0.56962 l -1.65583,6.4711801 c -0.13247,0.58949 -0.13247,0.64911 -0.66235,1.21873 -1.39095,1.81483998 -2.7819,2.33809998 -3.69593,2.33809998 -1.64269,0 -2.11294,-1.80821998 -2.11294,-3.09980998 0,-1.64925 1.05977,-5.70285 1.81485,-7.2262601 1.01341,-1.94732 2.53683,-3.16605 3.79531,-3.16605 l 0,-0.72196 c -3.85495,0 -7.94823,4.8418001 -7.94823,9.6637201 0,3.10643 1.81485,5.27894998 4.39138,5.27894998 0.64908,0 2.29837,-0.13909 4.28544,-2.47719998 0.26488,1.39093998 1.39089,2.47719998 2.98055,2.47719998 1.19224,0 1.92083,-0.75508 2.45072,-1.81483998 0.59612,-1.18562 0.99353,-3.20579 0.99353,-3.2654 0,-0.33118 -0.26494,-0.33118 -0.39741,-0.33118 -0.33118,0 -0.33118,0.13247 -0.46365,0.59612 -0.52989,2.14602 -1.12601,4.08670998 -2.51696,4.08670998 -0.86106,0 -0.99353,-0.85442998 -0.99353,-1.51678998 0,-0.78819 0.0662,-1.02664 0.1987,-1.58302 z"
           id="path3263-6"
           transform="matrix(0.88799044,0,0,0.88799044,351.76148,-259.06373)" />
        <path
           sodipodi:nodetypes="czzszzzzc"
           inkscape:connector-curvature="0"
           id="path3704"
           d="m 725.71429,-273.3521 c 0,0 58.21429,-90 87.32143,-90 29.10714,0 58.21428,90 87.32143,90 29.10714,0 58.21428,-90 87.32146,-90 29.10709,0 58.21419,90 87.32139,90 29.1071,0 58.2143,-90 87.3214,-90 29.1072,0 58.2143,90 87.3214,90 29.1072,0 58.2143,-90 87.3215,-90 29.1071,0 87.3214,90 87.3214,90"
           style="fill:none;stroke:#000080;stroke-width:3;stroke-linecap:butt;stroke-linejoin:miter;stroke-miterlimit:4;stroke-opacity:1;stroke-dasharray:none" />
        <path
           sodipodi:nodetypes="czzszzzzc"
           inkscape:connector-curvature="0"
           id="path3704-5"
           d="m 773.57144,-272.63782 c 0,0 58.21429,-90 87.32143,-90 29.10714,0 58.21428,90 87.32143,90 29.10714,0 58.2143,-90 87.3214,-90 29.1071,0 58.2142,90 87.3214,90 29.1071,0 58.2143,-90 87.3214,-90 29.1072,0 58.2143,90 87.3214,90 29.1072,0 58.2143,-90 87.3215,-90 29.1071,0 87.3214,90 87.3214,90"
           style="fill:none;stroke:#00ccff;stroke-width:3;stroke-linecap:butt;stroke-linejoin:miter;stroke-miterlimit:4;stroke-opacity:1;stroke-dasharray:none" />
        <path
           transform="translate(745.71429,-437.14286)"
           inkscape:connector-curvature="0"
           id="path4492"
           d="m -10,150.93361 45.714286,0"
           style="fill:none;stroke:#000000;stroke-width:1px;stroke-linecap:butt;stroke-linejoin:miter;stroke-opacity:1" />
      </g>
    </g>
    <flowRoot
       xml:space="preserve"
       id="flowRoot3448"
       style="font-size:40px;font-style:normal;font-weight:normal;line-height:125%;letter-spacing:0px;word-spacing:0px;fill:#000000;fill-opacity:1;stroke:none;font-family:Sans"><flowRegion
         id="flowRegion3450"><rect
           id="rect3452"
           width="68.571426"
           height="174.28572"
           x="1342.8572"
           y="355.21933" /></flowRegion><flowPara
         id="flowPara3454" /></flowRoot>  </g>
</svg>
